G04 #@! TF.GenerationSoftware,KiCad,Pcbnew,(5.1.10-1-10_14)*
G04 #@! TF.CreationDate,2021-06-04T22:41:06-05:00*
G04 #@! TF.ProjectId,169-display-replacement-v2,3136392d-6469-4737-906c-61792d726570,rev?*
G04 #@! TF.SameCoordinates,Original*
G04 #@! TF.FileFunction,Copper,L2,Bot*
G04 #@! TF.FilePolarity,Positive*
%FSLAX46Y46*%
G04 Gerber Fmt 4.6, Leading zero omitted, Abs format (unit mm)*
G04 Created by KiCad (PCBNEW (5.1.10-1-10_14)) date 2021-06-04 22:41:06*
%MOMM*%
%LPD*%
G01*
G04 APERTURE LIST*
G04 #@! TA.AperFunction,ComponentPad*
%ADD10O,1.200000X2.000000*%
G04 #@! TD*
G04 #@! TA.AperFunction,ComponentPad*
%ADD11R,1.700000X1.700000*%
G04 #@! TD*
G04 #@! TA.AperFunction,ComponentPad*
%ADD12O,1.700000X1.700000*%
G04 #@! TD*
G04 #@! TA.AperFunction,ViaPad*
%ADD13C,0.800000*%
G04 #@! TD*
G04 #@! TA.AperFunction,Conductor*
%ADD14C,0.250000*%
G04 #@! TD*
G04 APERTURE END LIST*
D10*
X115620000Y-90630000D03*
X115620000Y-115270000D03*
X118160000Y-90630000D03*
X118160000Y-115270000D03*
X120700000Y-90630000D03*
X120700000Y-115270000D03*
X123240000Y-90630000D03*
X123240000Y-115270000D03*
X125780000Y-90630000D03*
X125780000Y-115270000D03*
X128320000Y-90630000D03*
X128320000Y-115270000D03*
X130860000Y-90630000D03*
X130860000Y-115270000D03*
X133400000Y-90630000D03*
X133400000Y-115270000D03*
X135940000Y-90630000D03*
X135940000Y-115270000D03*
X138480000Y-90630000D03*
X138480000Y-115270000D03*
X141020000Y-90630000D03*
X141020000Y-115270000D03*
X143560000Y-90630000D03*
X143560000Y-115270000D03*
X146100000Y-90630000D03*
X146100000Y-115270000D03*
X148640000Y-90630000D03*
X148640000Y-115270000D03*
X151180000Y-90630000D03*
X151180000Y-115270000D03*
X153720000Y-90630000D03*
X153720000Y-115270000D03*
X156260000Y-90630000D03*
X156260000Y-115270000D03*
X158800000Y-90630000D03*
X158800000Y-115270000D03*
X161340000Y-90630000D03*
X161340000Y-115270000D03*
X163880000Y-90630000D03*
X163880000Y-115270000D03*
D11*
X186750000Y-107050000D03*
D12*
X184210000Y-107050000D03*
X181670000Y-107050000D03*
X179130000Y-107050000D03*
X176590000Y-107050000D03*
X174050000Y-107050000D03*
X171510000Y-107050000D03*
X168970000Y-107050000D03*
D11*
X163750000Y-107050000D03*
D12*
X161210000Y-107050000D03*
X158670000Y-107050000D03*
X156130000Y-107050000D03*
X153590000Y-107050000D03*
X151050000Y-107050000D03*
X148510000Y-107050000D03*
X145970000Y-107050000D03*
D11*
X148500000Y-101550000D03*
D12*
X145960000Y-101550000D03*
X143420000Y-101550000D03*
X140880000Y-101550000D03*
X138340000Y-101550000D03*
X135800000Y-101550000D03*
X133260000Y-101550000D03*
X130720000Y-101550000D03*
D11*
X133350000Y-107050000D03*
D12*
X130810000Y-107050000D03*
X128270000Y-107050000D03*
X125730000Y-107050000D03*
X123190000Y-107050000D03*
X120650000Y-107050000D03*
X118110000Y-107050000D03*
X115570000Y-107050000D03*
D11*
X92750000Y-107050000D03*
D12*
X95290000Y-107050000D03*
X97830000Y-107050000D03*
X100370000Y-107050000D03*
X102910000Y-107050000D03*
X105450000Y-107050000D03*
X107990000Y-107050000D03*
X110530000Y-107050000D03*
D10*
X91720000Y-122250000D03*
X94260000Y-122250000D03*
X96800000Y-122250000D03*
X99340000Y-122250000D03*
X101880000Y-122250000D03*
X104420000Y-122250000D03*
X106960000Y-122250000D03*
X109500000Y-122250000D03*
X112040000Y-122250000D03*
X114580000Y-122250000D03*
X117120000Y-122250000D03*
X119660000Y-122250000D03*
X122200000Y-122250000D03*
X124740000Y-122250000D03*
X127280000Y-122250000D03*
X129820000Y-122250000D03*
X132360000Y-122250000D03*
X134900000Y-122250000D03*
X144600000Y-122250000D03*
X147140000Y-122250000D03*
X149680000Y-122250000D03*
X152220000Y-122250000D03*
X154760000Y-122250000D03*
X157300000Y-122250000D03*
X159840000Y-122250000D03*
X162380000Y-122250000D03*
X164920000Y-122250000D03*
X167460000Y-122250000D03*
X170000000Y-122250000D03*
X172540000Y-122250000D03*
X175080000Y-122250000D03*
X177620000Y-122250000D03*
X180160000Y-122250000D03*
X182700000Y-122250000D03*
X185240000Y-122250000D03*
X187780000Y-122250000D03*
D13*
X129600000Y-112710000D03*
X116870000Y-113090000D03*
X120910000Y-118050000D03*
X116820000Y-104720000D03*
X106700008Y-104969992D03*
X119410000Y-104700000D03*
X109250000Y-104030000D03*
X112550000Y-105730000D03*
X119450000Y-111920000D03*
X132080000Y-104160000D03*
X129550000Y-104740000D03*
X147550000Y-96800000D03*
X159930000Y-104730000D03*
X161110000Y-118080000D03*
D14*
X96020000Y-115270000D02*
X115620000Y-115270000D01*
X92750000Y-112000000D02*
X96020000Y-115270000D01*
X92750000Y-107050000D02*
X92750000Y-112000000D01*
X102910000Y-108860000D02*
X102910000Y-107050000D01*
X105980000Y-111930000D02*
X102910000Y-108860000D01*
X118020000Y-111930000D02*
X105980000Y-111930000D01*
X118800000Y-112710000D02*
X118020000Y-111930000D01*
X129600000Y-112710000D02*
X118800000Y-112710000D01*
X109620000Y-117050000D02*
X104420000Y-122250000D01*
X116230000Y-117050000D02*
X109620000Y-117050000D01*
X116870000Y-116410000D02*
X116230000Y-117050000D01*
X116870000Y-113090000D02*
X116870000Y-116410000D01*
X131910000Y-113780000D02*
X133400000Y-115270000D01*
X118730000Y-113780000D02*
X131910000Y-113780000D01*
X118040000Y-113090000D02*
X118730000Y-113780000D01*
X116870000Y-113090000D02*
X118040000Y-113090000D01*
X135940000Y-115250000D02*
X135940000Y-115270000D01*
X120910000Y-118050000D02*
X111160000Y-118050000D01*
X111160000Y-118050000D02*
X106960000Y-122250000D01*
X133160000Y-118050000D02*
X135940000Y-115270000D01*
X120910000Y-118050000D02*
X133160000Y-118050000D01*
X106700016Y-104970000D02*
X111895000Y-104970000D01*
X112145000Y-104720000D02*
X116820000Y-104720000D01*
X111895000Y-104970000D02*
X112145000Y-104720000D01*
X106700008Y-104969992D02*
X106700016Y-104970000D01*
X118520000Y-103810000D02*
X119410000Y-104700000D01*
X111230000Y-104030000D02*
X111450000Y-103810000D01*
X111450000Y-103810000D02*
X118520000Y-103810000D01*
X109250000Y-104030000D02*
X111230000Y-104030000D01*
X132030000Y-105730000D02*
X112550000Y-105730000D01*
X133350000Y-107050000D02*
X132030000Y-105730000D01*
X119450000Y-111920000D02*
X119450000Y-111920000D01*
X122960000Y-108410000D02*
X119450000Y-111920000D01*
X126910000Y-108410000D02*
X122960000Y-108410000D01*
X128270000Y-107050000D02*
X126910000Y-108410000D01*
X137170000Y-114310000D02*
X137730000Y-113750000D01*
X137730000Y-113750000D02*
X139500000Y-113750000D01*
X119660000Y-122250000D02*
X122860000Y-119050000D01*
X137170000Y-115930000D02*
X137170000Y-114310000D01*
X134050000Y-119050000D02*
X137170000Y-115930000D01*
X139500000Y-113750000D02*
X141020000Y-115270000D01*
X122860000Y-119050000D02*
X134050000Y-119050000D01*
X138480000Y-115520000D02*
X138480000Y-115270000D01*
X134050000Y-119950000D02*
X138480000Y-115520000D01*
X124490000Y-119950000D02*
X134050000Y-119950000D01*
X122200000Y-122240000D02*
X124490000Y-119950000D01*
X122200000Y-122250000D02*
X122200000Y-122240000D01*
X143560000Y-114370000D02*
X143560000Y-115270000D01*
X133350000Y-104160000D02*
X143560000Y-114370000D01*
X132080000Y-104160000D02*
X133350000Y-104160000D01*
X126190000Y-120800000D02*
X124740000Y-122250000D01*
X128000000Y-120800000D02*
X126190000Y-120800000D01*
X128500000Y-121300000D02*
X128000000Y-120800000D01*
X128500000Y-122941795D02*
X128500000Y-121300000D01*
X129188205Y-123630000D02*
X128500000Y-122941795D01*
X135670000Y-123630000D02*
X129188205Y-123630000D01*
X136000000Y-123300000D02*
X135670000Y-123630000D01*
X136000000Y-118900000D02*
X136000000Y-123300000D01*
X138250000Y-116650000D02*
X136000000Y-118900000D01*
X142180000Y-116650000D02*
X138250000Y-116650000D01*
X143560000Y-115270000D02*
X142180000Y-116650000D01*
X145530000Y-115270000D02*
X146100000Y-115270000D01*
X138340000Y-108080000D02*
X145530000Y-115270000D01*
X138340000Y-101550000D02*
X138340000Y-108080000D01*
X146100000Y-116450000D02*
X146100000Y-115270000D01*
X143310000Y-119240000D02*
X146100000Y-116450000D01*
X143310000Y-122365000D02*
X143310000Y-119240000D01*
X141425000Y-124250000D02*
X143310000Y-122365000D01*
X128700000Y-124250000D02*
X141425000Y-124250000D01*
X127280000Y-122830000D02*
X128700000Y-124250000D01*
X127280000Y-122250000D02*
X127280000Y-122830000D01*
X132740000Y-101550000D02*
X129550000Y-104740000D01*
X133260000Y-101550000D02*
X132740000Y-101550000D01*
X148500000Y-97750000D02*
X147550000Y-96800000D01*
X148500000Y-101550000D02*
X148500000Y-97750000D01*
X143420000Y-107510000D02*
X151180000Y-115270000D01*
X143420000Y-101550000D02*
X143420000Y-107510000D01*
X148640000Y-115270000D02*
X148640000Y-117190000D01*
X149680000Y-118230000D02*
X149680000Y-122250000D01*
X148640000Y-117190000D02*
X149680000Y-118230000D01*
X140880000Y-107510000D02*
X148640000Y-115270000D01*
X140880000Y-101550000D02*
X140880000Y-107510000D01*
X145970000Y-107520000D02*
X153720000Y-115270000D01*
X145970000Y-107050000D02*
X145970000Y-107520000D01*
X156260000Y-109720000D02*
X156260000Y-115270000D01*
X153590000Y-107050000D02*
X156260000Y-109720000D01*
X153370000Y-104730000D02*
X151050000Y-107050000D01*
X159930000Y-104730000D02*
X153370000Y-104730000D01*
X163880000Y-109720000D02*
X161210000Y-107050000D01*
X163880000Y-115270000D02*
X163880000Y-109720000D01*
X163290000Y-118080000D02*
X167460000Y-122250000D01*
X161110000Y-118080000D02*
X163290000Y-118080000D01*
X161330000Y-109710000D02*
X158670000Y-107050000D01*
X161330000Y-115260000D02*
X161330000Y-109710000D01*
X164600000Y-116850000D02*
X170000000Y-122250000D01*
X160380000Y-116850000D02*
X164600000Y-116850000D01*
X158800000Y-115270000D02*
X160380000Y-116850000D01*
X158800000Y-109720000D02*
X156130000Y-107050000D01*
X158800000Y-115270000D02*
X158800000Y-109720000D01*
M02*
