G04 #@! TF.GenerationSoftware,KiCad,Pcbnew,(5.1.10-1-10_14)*
G04 #@! TF.CreationDate,2021-06-04T22:41:06-05:00*
G04 #@! TF.ProjectId,169-display-replacement-v2,3136392d-6469-4737-906c-61792d726570,rev?*
G04 #@! TF.SameCoordinates,Original*
G04 #@! TF.FileFunction,Copper,L1,Top*
G04 #@! TF.FilePolarity,Positive*
%FSLAX46Y46*%
G04 Gerber Fmt 4.6, Leading zero omitted, Abs format (unit mm)*
G04 Created by KiCad (PCBNEW (5.1.10-1-10_14)) date 2021-06-04 22:41:06*
%MOMM*%
%LPD*%
G01*
G04 APERTURE LIST*
G04 #@! TA.AperFunction,ComponentPad*
%ADD10O,1.200000X2.000000*%
G04 #@! TD*
G04 #@! TA.AperFunction,ComponentPad*
%ADD11R,1.700000X1.700000*%
G04 #@! TD*
G04 #@! TA.AperFunction,ComponentPad*
%ADD12O,1.700000X1.700000*%
G04 #@! TD*
G04 #@! TA.AperFunction,ViaPad*
%ADD13C,0.800000*%
G04 #@! TD*
G04 #@! TA.AperFunction,Conductor*
%ADD14C,0.250000*%
G04 #@! TD*
G04 APERTURE END LIST*
D10*
X115620000Y-90630000D03*
X115620000Y-115270000D03*
X118160000Y-90630000D03*
X118160000Y-115270000D03*
X120700000Y-90630000D03*
X120700000Y-115270000D03*
X123240000Y-90630000D03*
X123240000Y-115270000D03*
X125780000Y-90630000D03*
X125780000Y-115270000D03*
X128320000Y-90630000D03*
X128320000Y-115270000D03*
X130860000Y-90630000D03*
X130860000Y-115270000D03*
X133400000Y-90630000D03*
X133400000Y-115270000D03*
X135940000Y-90630000D03*
X135940000Y-115270000D03*
X138480000Y-90630000D03*
X138480000Y-115270000D03*
X141020000Y-90630000D03*
X141020000Y-115270000D03*
X143560000Y-90630000D03*
X143560000Y-115270000D03*
X146100000Y-90630000D03*
X146100000Y-115270000D03*
X148640000Y-90630000D03*
X148640000Y-115270000D03*
X151180000Y-90630000D03*
X151180000Y-115270000D03*
X153720000Y-90630000D03*
X153720000Y-115270000D03*
X156260000Y-90630000D03*
X156260000Y-115270000D03*
X158800000Y-90630000D03*
X158800000Y-115270000D03*
X161340000Y-90630000D03*
X161340000Y-115270000D03*
X163880000Y-90630000D03*
X163880000Y-115270000D03*
D11*
X186750000Y-107050000D03*
D12*
X184210000Y-107050000D03*
X181670000Y-107050000D03*
X179130000Y-107050000D03*
X176590000Y-107050000D03*
X174050000Y-107050000D03*
X171510000Y-107050000D03*
X168970000Y-107050000D03*
D11*
X163750000Y-107050000D03*
D12*
X161210000Y-107050000D03*
X158670000Y-107050000D03*
X156130000Y-107050000D03*
X153590000Y-107050000D03*
X151050000Y-107050000D03*
X148510000Y-107050000D03*
X145970000Y-107050000D03*
D11*
X148500000Y-101550000D03*
D12*
X145960000Y-101550000D03*
X143420000Y-101550000D03*
X140880000Y-101550000D03*
X138340000Y-101550000D03*
X135800000Y-101550000D03*
X133260000Y-101550000D03*
X130720000Y-101550000D03*
D11*
X133350000Y-107050000D03*
D12*
X130810000Y-107050000D03*
X128270000Y-107050000D03*
X125730000Y-107050000D03*
X123190000Y-107050000D03*
X120650000Y-107050000D03*
X118110000Y-107050000D03*
X115570000Y-107050000D03*
D11*
X92750000Y-107050000D03*
D12*
X95290000Y-107050000D03*
X97830000Y-107050000D03*
X100370000Y-107050000D03*
X102910000Y-107050000D03*
X105450000Y-107050000D03*
X107990000Y-107050000D03*
X110530000Y-107050000D03*
D10*
X91720000Y-122250000D03*
X94260000Y-122250000D03*
X96800000Y-122250000D03*
X99340000Y-122250000D03*
X101880000Y-122250000D03*
X104420000Y-122250000D03*
X106960000Y-122250000D03*
X109500000Y-122250000D03*
X112040000Y-122250000D03*
X114580000Y-122250000D03*
X117120000Y-122250000D03*
X119660000Y-122250000D03*
X122200000Y-122250000D03*
X124740000Y-122250000D03*
X127280000Y-122250000D03*
X129820000Y-122250000D03*
X132360000Y-122250000D03*
X134900000Y-122250000D03*
X144600000Y-122250000D03*
X147140000Y-122250000D03*
X149680000Y-122250000D03*
X152220000Y-122250000D03*
X154760000Y-122250000D03*
X157300000Y-122250000D03*
X159840000Y-122250000D03*
X162380000Y-122250000D03*
X164920000Y-122250000D03*
X167460000Y-122250000D03*
X170000000Y-122250000D03*
X172540000Y-122250000D03*
X175080000Y-122250000D03*
X177620000Y-122250000D03*
X180160000Y-122250000D03*
X182700000Y-122250000D03*
X185240000Y-122250000D03*
X187780000Y-122250000D03*
D13*
X129600000Y-112710000D03*
X116870000Y-113090000D03*
X120910000Y-118050000D03*
X116820000Y-104720000D03*
X106700008Y-104969992D03*
X119410000Y-104700000D03*
X109250000Y-104030000D03*
X112550000Y-105730000D03*
X119450000Y-111920000D03*
X132080000Y-104160000D03*
X129550000Y-104740000D03*
X147550000Y-96800000D03*
X159930000Y-104730000D03*
X161110000Y-118080000D03*
D14*
X91720000Y-114080000D02*
X92750000Y-113050000D01*
X91720000Y-122250000D02*
X91720000Y-114080000D01*
X92750000Y-113050000D02*
X92750000Y-107050000D01*
X100770000Y-104470000D02*
X114610000Y-90630000D01*
X114610000Y-90630000D02*
X115620000Y-90630000D01*
X92750000Y-105900000D02*
X94180000Y-104470000D01*
X94180000Y-104470000D02*
X100770000Y-104470000D01*
X92750000Y-107050000D02*
X92750000Y-105900000D01*
X94260000Y-114040000D02*
X94260000Y-122250000D01*
X95290000Y-113010000D02*
X94260000Y-114040000D01*
X95290000Y-113010000D02*
X95290000Y-107050000D01*
X96800000Y-114000000D02*
X96800000Y-122250000D01*
X97830000Y-112970000D02*
X96800000Y-114000000D01*
X97830000Y-107050000D02*
X97830000Y-112970000D01*
X120930000Y-92940000D02*
X123240000Y-90630000D01*
X98620000Y-105620000D02*
X101920000Y-105620000D01*
X114600000Y-92940000D02*
X120930000Y-92940000D01*
X101920000Y-105620000D02*
X114600000Y-92940000D01*
X97830000Y-106410000D02*
X98620000Y-105620000D01*
X97830000Y-107050000D02*
X97830000Y-106410000D01*
X99340000Y-113960000D02*
X99340000Y-122250000D01*
X100370000Y-112930000D02*
X99340000Y-113960000D01*
X100370000Y-112930000D02*
X100370000Y-107050000D01*
X101880000Y-113990000D02*
X101880000Y-122250000D01*
X102910000Y-112960000D02*
X101880000Y-113990000D01*
X102910000Y-107050000D02*
X102900000Y-107040000D01*
X102910000Y-107050000D02*
X102910000Y-112960000D01*
X130860000Y-92610000D02*
X130860000Y-90630000D01*
X127100000Y-96370000D02*
X130860000Y-92610000D01*
X113340000Y-96370000D02*
X127100000Y-96370000D01*
X102910000Y-106800000D02*
X113340000Y-96370000D01*
X102910000Y-107050000D02*
X102910000Y-106800000D01*
X130860000Y-113970000D02*
X129600000Y-112710000D01*
X130860000Y-115270000D02*
X130860000Y-113970000D01*
X115570000Y-111790000D02*
X115570000Y-107050000D01*
X116870000Y-113090000D02*
X115570000Y-111790000D01*
X121960000Y-108280000D02*
X123190000Y-107050000D01*
X121960000Y-117000000D02*
X121960000Y-108280000D01*
X120910000Y-118050000D02*
X121960000Y-117000000D01*
X117510000Y-107050000D02*
X118110000Y-107050000D01*
X116820000Y-106360000D02*
X117510000Y-107050000D01*
X116820000Y-104720000D02*
X116820000Y-106360000D01*
X129190000Y-97380000D02*
X135940000Y-90630000D01*
X114050000Y-97380000D02*
X129190000Y-97380000D01*
X106700008Y-104729992D02*
X114050000Y-97380000D01*
X106700008Y-104969992D02*
X106700008Y-104729992D01*
X106700008Y-119450008D02*
X109500000Y-122250000D01*
X106700008Y-104969992D02*
X106700008Y-119450008D01*
X119410000Y-105810000D02*
X120650000Y-107050000D01*
X119410000Y-104700000D02*
X119410000Y-105810000D01*
X109250000Y-103830000D02*
X114710000Y-98370000D01*
X130180000Y-98370000D02*
X137920000Y-90630000D01*
X137920000Y-90630000D02*
X138480000Y-90630000D01*
X109250000Y-104030000D02*
X109250000Y-103830000D01*
X112040000Y-120660000D02*
X112040000Y-122250000D01*
X109250000Y-117870000D02*
X112040000Y-120660000D01*
X109250000Y-104030000D02*
X109250000Y-117870000D01*
X114710000Y-98370000D02*
X130180000Y-98370000D01*
X112550000Y-118750000D02*
X114580000Y-120780000D01*
X114580000Y-120780000D02*
X114580000Y-122250000D01*
X112550000Y-105730000D02*
X112550000Y-118750000D01*
X140370000Y-90630000D02*
X141020000Y-90630000D01*
X131720000Y-99280000D02*
X140370000Y-90630000D01*
X115550000Y-99280000D02*
X131720000Y-99280000D01*
X112550000Y-102280000D02*
X115550000Y-99280000D01*
X112550000Y-105730000D02*
X112550000Y-102280000D01*
X130810000Y-104720000D02*
X130810000Y-107050000D01*
X129280000Y-103190000D02*
X130810000Y-104720000D01*
X129280000Y-100130000D02*
X129280000Y-103190000D01*
X117120000Y-120620000D02*
X117120000Y-122250000D01*
X113450000Y-116950000D02*
X117120000Y-120620000D01*
X116630000Y-100130000D02*
X113450000Y-103310000D01*
X113450000Y-103310000D02*
X113450000Y-116950000D01*
X142970000Y-90630000D02*
X133470000Y-100130000D01*
X133470000Y-100130000D02*
X116630000Y-100130000D01*
X143560000Y-90630000D02*
X142970000Y-90630000D01*
X119450000Y-122040000D02*
X119660000Y-122250000D01*
X119450000Y-111920000D02*
X119450000Y-122040000D01*
X125720000Y-107050000D02*
X125730000Y-107050000D01*
X124500000Y-108270000D02*
X125720000Y-107050000D01*
X122200000Y-120810000D02*
X124500000Y-118510000D01*
X124500000Y-118510000D02*
X124500000Y-108270000D01*
X122200000Y-122250000D02*
X122200000Y-120810000D01*
X130720000Y-101550000D02*
X130740000Y-101550000D01*
X130720000Y-102800000D02*
X132080000Y-104160000D01*
X130720000Y-101550000D02*
X130720000Y-102800000D01*
X133260000Y-101540000D02*
X133260000Y-101550000D01*
X140970000Y-98310000D02*
X136490000Y-98310000D01*
X136490000Y-98310000D02*
X133260000Y-101540000D01*
X148640000Y-90640000D02*
X140970000Y-98310000D01*
X148640000Y-90630000D02*
X148640000Y-90640000D01*
X129820000Y-117160000D02*
X129820000Y-122250000D01*
X129600000Y-116940000D02*
X129820000Y-117160000D01*
X129600000Y-114040000D02*
X129600000Y-116940000D01*
X128670000Y-113110000D02*
X129600000Y-114040000D01*
X128670000Y-112300000D02*
X128670000Y-113110000D01*
X129550000Y-111420000D02*
X128670000Y-112300000D01*
X129550000Y-104740000D02*
X129550000Y-111420000D01*
X135800000Y-112640000D02*
X135800000Y-101550000D01*
X134680000Y-113760000D02*
X135800000Y-112640000D01*
X132360000Y-118390000D02*
X134680000Y-116070000D01*
X134680000Y-116070000D02*
X134680000Y-113760000D01*
X132360000Y-122250000D02*
X132360000Y-118390000D01*
X150750000Y-91060000D02*
X151180000Y-90630000D01*
X142780000Y-99030000D02*
X150750000Y-91060000D01*
X137010000Y-99030000D02*
X142780000Y-99030000D01*
X135800000Y-100240000D02*
X137010000Y-99030000D01*
X135800000Y-101550000D02*
X135800000Y-100240000D01*
X153720000Y-90630000D02*
X152250000Y-92100000D01*
X137170000Y-110430000D02*
X144690000Y-102910000D01*
X144690000Y-99660000D02*
X147550000Y-96800000D01*
X137170000Y-116220000D02*
X137170000Y-110430000D01*
X144690000Y-102910000D02*
X144690000Y-99660000D01*
X134900000Y-118490000D02*
X137170000Y-116220000D01*
X134900000Y-122250000D02*
X134900000Y-118490000D01*
X144690000Y-102910000D02*
X144690000Y-102910000D01*
X147550000Y-96800000D02*
X153720000Y-90630000D01*
X156260000Y-91240000D02*
X156260000Y-90630000D01*
X145960000Y-101540000D02*
X156260000Y-91240000D01*
X145960000Y-101550000D02*
X145960000Y-101540000D01*
X144600000Y-116860000D02*
X144600000Y-122250000D01*
X144500000Y-105190000D02*
X144500000Y-108420000D01*
X144500000Y-108420000D02*
X144830000Y-108750000D01*
X144830000Y-116630000D02*
X144600000Y-116860000D01*
X145960000Y-103730000D02*
X144500000Y-105190000D01*
X144830000Y-108750000D02*
X144830000Y-116630000D01*
X145960000Y-101550000D02*
X145960000Y-103730000D01*
X147140000Y-119310000D02*
X147140000Y-122250000D01*
X151180000Y-115270000D02*
X147140000Y-119310000D01*
X152220000Y-118580000D02*
X152220000Y-122250000D01*
X153720000Y-117080000D02*
X152220000Y-118580000D01*
X153720000Y-115270000D02*
X153720000Y-117080000D01*
X156260000Y-117040000D02*
X154760000Y-118540000D01*
X154760000Y-118540000D02*
X154760000Y-122250000D01*
X156260000Y-115270000D02*
X156260000Y-117040000D01*
X157494999Y-122055001D02*
X157300000Y-122250000D01*
X157494999Y-108304999D02*
X157494999Y-122055001D01*
X157390000Y-108200000D02*
X157494999Y-108304999D01*
X157390000Y-105690000D02*
X157390000Y-108200000D01*
X149870000Y-105690000D02*
X148510000Y-107050000D01*
X157390000Y-105690000D02*
X149870000Y-105690000D01*
X158800000Y-92620000D02*
X158800000Y-90630000D01*
X157390000Y-94030000D02*
X158800000Y-92620000D01*
X157390000Y-105690000D02*
X157390000Y-94030000D01*
X161340000Y-103320000D02*
X161340000Y-90630000D01*
X159930000Y-104730000D02*
X159930000Y-104730000D01*
X159930000Y-104730000D02*
X161340000Y-103320000D01*
X159930000Y-108070000D02*
X159930000Y-104730000D01*
X159840000Y-116940000D02*
X160070000Y-116710000D01*
X160070000Y-108210000D02*
X159930000Y-108070000D01*
X160070000Y-116710000D02*
X160070000Y-108210000D01*
X159840000Y-122250000D02*
X159840000Y-116940000D01*
X163880000Y-92050000D02*
X163880000Y-90630000D01*
X163750000Y-92180000D02*
X163880000Y-92050000D01*
X163750000Y-107050000D02*
X163750000Y-92180000D01*
X163750000Y-108390000D02*
X163750000Y-107050000D01*
X162630000Y-116530000D02*
X162630000Y-109510000D01*
X162380000Y-116780000D02*
X162630000Y-116530000D01*
X162630000Y-109510000D02*
X163750000Y-108390000D01*
X162380000Y-122250000D02*
X162380000Y-116780000D01*
X163880000Y-116930000D02*
X164920000Y-117970000D01*
X164920000Y-117970000D02*
X164920000Y-122250000D01*
X163880000Y-115270000D02*
X163880000Y-116930000D01*
X161330000Y-117200000D02*
X161330000Y-115300000D01*
X161110000Y-117420000D02*
X161330000Y-117200000D01*
X161110000Y-118080000D02*
X161110000Y-117420000D01*
X171510000Y-107050000D02*
X171510000Y-110510000D01*
X172540000Y-111540000D02*
X172540000Y-122250000D01*
X171510000Y-110510000D02*
X172540000Y-111540000D01*
X174050000Y-107050000D02*
X174050000Y-110050000D01*
X175080000Y-111080000D02*
X175080000Y-122250000D01*
X174050000Y-110050000D02*
X175080000Y-111080000D01*
X176590000Y-107050000D02*
X176590000Y-109590000D01*
X177620000Y-110620000D02*
X177620000Y-122250000D01*
X176590000Y-109590000D02*
X177620000Y-110620000D01*
X179130000Y-107050000D02*
X179130000Y-109130000D01*
X180160000Y-110160000D02*
X180160000Y-122250000D01*
X179130000Y-109130000D02*
X180160000Y-110160000D01*
X181670000Y-107050000D02*
X181670000Y-109670000D01*
X182700000Y-110700000D02*
X182700000Y-122250000D01*
X181670000Y-109670000D02*
X182700000Y-110700000D01*
X184210000Y-107050000D02*
X184210000Y-109790000D01*
X185240000Y-110820000D02*
X185240000Y-122250000D01*
X184210000Y-109790000D02*
X185240000Y-110820000D01*
X186750000Y-107050000D02*
X186750000Y-109750000D01*
X187780000Y-110780000D02*
X187780000Y-122250000D01*
X186750000Y-109750000D02*
X187780000Y-110780000D01*
M02*
