M48
INCH,TZ
T1C0.0157
T2C0.0315
T3C0.0394
%
G90
G05
T1
X42008Y-41327
X43012Y-40957
X44311Y-41626
X45992Y-41228
X46012Y-44524
X47012Y-41220
X47028Y-44063
X47602Y-46476
X51004Y-41236
X51024Y-44374
X52000Y-41008
X58091Y-38110
X62965Y-41232
X63429Y-46488
T2
X36110Y-48130
X37110Y-48130
X38110Y-48130
X39110Y-48130
X40110Y-48130
X41110Y-48130
X42110Y-48130
X43110Y-48130
X44110Y-48130
X45110Y-48130
X45520Y-35681
X45520Y-45382
X46110Y-48130
X46520Y-35681
X46520Y-45382
X47110Y-48130
X47520Y-35681
X47520Y-45382
X48110Y-48130
X48520Y-35681
X48520Y-45382
X49110Y-48130
X49520Y-35681
X49520Y-45382
X50110Y-48130
X50520Y-35681
X50520Y-45382
X51110Y-48130
X51520Y-35681
X51520Y-45382
X52110Y-48130
X52520Y-35681
X52520Y-45382
X53110Y-48130
X53520Y-35681
X53520Y-45382
X54520Y-35681
X54520Y-45382
X55520Y-35681
X55520Y-45382
X56520Y-35681
X56520Y-45382
X56929Y-48130
X57520Y-35681
X57520Y-45382
X57929Y-48130
X58520Y-35681
X58520Y-45382
X58929Y-48130
X59520Y-35681
X59520Y-45382
X59929Y-48130
X60520Y-35681
X60520Y-45382
X60929Y-48130
X61520Y-35681
X61520Y-45382
X61929Y-48130
X62520Y-35681
X62520Y-45382
X62929Y-48130
X63520Y-35681
X63520Y-45382
X63929Y-48130
X64520Y-35681
X64520Y-45382
X64929Y-48130
X65929Y-48130
X66929Y-48130
X67929Y-48130
X68929Y-48130
X69929Y-48130
X70929Y-48130
X71929Y-48130
X72929Y-48130
X73929Y-48130
T3
X36516Y-42146
X37516Y-42146
X38516Y-42146
X39516Y-42146
X40516Y-42146
X41516Y-42146
X42516Y-42146
X43516Y-42146
X45500Y-42146
X46500Y-42146
X47500Y-42146
X48500Y-42146
X49500Y-42146
X50500Y-42146
X51465Y-39980
X51500Y-42146
X52465Y-39980
X52500Y-42146
X53465Y-39980
X54465Y-39980
X55465Y-39980
X56465Y-39980
X57465Y-39980
X57469Y-42146
X58465Y-39980
X58469Y-42146
X59469Y-42146
X60469Y-42146
X61469Y-42146
X62469Y-42146
X63469Y-42146
X64469Y-42146
X66524Y-42146
X67524Y-42146
X68524Y-42146
X69524Y-42146
X70524Y-42146
X71524Y-42146
X72524Y-42146
X73524Y-42146
T0
M30
