G04 #@! TF.GenerationSoftware,KiCad,Pcbnew,(5.1.10-1-10_14)*
G04 #@! TF.CreationDate,2021-06-04T22:41:06-05:00*
G04 #@! TF.ProjectId,169-display-replacement-v2,3136392d-6469-4737-906c-61792d726570,rev?*
G04 #@! TF.SameCoordinates,Original*
G04 #@! TF.FileFunction,Legend,Top*
G04 #@! TF.FilePolarity,Positive*
%FSLAX46Y46*%
G04 Gerber Fmt 4.6, Leading zero omitted, Abs format (unit mm)*
G04 Created by KiCad (PCBNEW (5.1.10-1-10_14)) date 2021-06-04 22:41:06*
%MOMM*%
%LPD*%
G01*
G04 APERTURE LIST*
%ADD10C,0.100000*%
%ADD11C,0.200000*%
%ADD12C,0.120000*%
%ADD13C,0.400000*%
%ADD14C,0.300000*%
%ADD15C,0.150000*%
%ADD16C,0.240000*%
%ADD17C,0.125000*%
G04 APERTURE END LIST*
D10*
X93433631Y-96250013D02*
G75*
G02*
X95151567Y-94540462I2896388J-1192637D01*
G01*
X95529854Y-93893558D02*
G75*
G02*
X97085800Y-96394000I202777J-1608147D01*
G01*
D11*
X93770428Y-95004707D02*
G75*
G02*
X94266400Y-94412800I2560974J-1642153D01*
G01*
D12*
X97301700Y-94031800D02*
X97428700Y-94069900D01*
D13*
X95715547Y-93127039D02*
G75*
G02*
X97047700Y-93587300I152494J-1716613D01*
G01*
D12*
X96171400Y-96051100D02*
X96171400Y-96800400D01*
D10*
X92917709Y-94831433D02*
G75*
G02*
X94825200Y-93396800I1528437J-46794D01*
G01*
D13*
X95828321Y-93369388D02*
G75*
G02*
X97251176Y-93840497I166996J-1879861D01*
G01*
D10*
X95593833Y-92915027D02*
G75*
G02*
X97631900Y-94323900I286908J-1763525D01*
G01*
D11*
X93009100Y-94679499D02*
G75*
G02*
X94882476Y-93522587I1494322J-324515D01*
G01*
D13*
X95916979Y-93673711D02*
G75*
G02*
X97238200Y-93828600I395562J-2338341D01*
G01*
D12*
X97085800Y-96267000D02*
X97111200Y-96051100D01*
X97403300Y-93904800D02*
X97301700Y-94031800D01*
D10*
X95955661Y-93892803D02*
G75*
G02*
X97631900Y-94323900I420380J-1839849D01*
G01*
X95812208Y-94671822D02*
G75*
G02*
X97085800Y-96394000I-2022210J-2827488D01*
G01*
X95142699Y-94158800D02*
G75*
G02*
X93825526Y-97118440I-5986763J891460D01*
G01*
X95295099Y-94196900D02*
G75*
G02*
X93977926Y-97156540I-5986763J891460D01*
G01*
X95472899Y-94146100D02*
G75*
G02*
X94155726Y-97105740I-5986763J891460D01*
G01*
D11*
X93479001Y-95962200D02*
G75*
G02*
X94109674Y-95040742I2131640J-782404D01*
G01*
D13*
X95917587Y-94425283D02*
G75*
G02*
X97123900Y-95962200I-3318859J-3846814D01*
G01*
D10*
X95358599Y-94184200D02*
G75*
G02*
X94041426Y-97143840I-5986763J891460D01*
G01*
X95218899Y-94158800D02*
G75*
G02*
X93901726Y-97118440I-5986763J891460D01*
G01*
X95409399Y-94171500D02*
G75*
G02*
X94092226Y-97131140I-5986763J891460D01*
G01*
X95549099Y-94171500D02*
G75*
G02*
X94231926Y-97131140I-5986763J891460D01*
G01*
D13*
X95765924Y-94068422D02*
G75*
G02*
X97085800Y-95911400I-1578530J-2524600D01*
G01*
X95980885Y-94124506D02*
G75*
G02*
X96476200Y-94311200I-307723J-1566816D01*
G01*
D12*
X97555700Y-94222300D02*
X97403300Y-93904800D01*
D13*
X96565232Y-94311057D02*
G75*
G02*
X97174700Y-95746300I-1285638J-1392965D01*
G01*
D10*
X95091899Y-94171500D02*
G75*
G02*
X93774726Y-97131140I-5986763J891460D01*
G01*
X95587199Y-94196900D02*
G75*
G02*
X94270026Y-97156540I-5986763J891460D01*
G01*
X95663399Y-94184200D02*
G75*
G02*
X94346226Y-97143840I-5986763J891460D01*
G01*
X95752299Y-94158800D02*
G75*
G02*
X94435126Y-97118440I-5986763J891460D01*
G01*
X95841199Y-94184200D02*
G75*
G02*
X94524026Y-97143840I-5986763J891460D01*
G01*
X95930099Y-94184200D02*
G75*
G02*
X94612926Y-97143840I-5986763J891460D01*
G01*
X95015699Y-94158800D02*
G75*
G02*
X93698526Y-97118440I-5986763J891460D01*
G01*
D12*
X92844000Y-97156000D02*
X92844000Y-92330000D01*
D14*
X93593300Y-95682801D02*
G75*
G02*
X95367269Y-94454552I1966836J-945513D01*
G01*
D12*
X93203930Y-92868695D02*
G75*
G02*
X95368253Y-94042854I683662J-1321632D01*
G01*
D14*
X94698200Y-92799899D02*
G75*
G02*
X95510737Y-93836039I-769735J-1440288D01*
G01*
D13*
X94369090Y-94400999D02*
G75*
G02*
X95625300Y-94158800I928801J-1438518D01*
G01*
D14*
X94850600Y-93003099D02*
G75*
G02*
X95663137Y-94039239I-769735J-1440288D01*
G01*
D12*
X93203930Y-92868695D02*
G75*
G02*
X96133300Y-94095300I1138546J-1392186D01*
G01*
X93085300Y-94654100D02*
X93377400Y-94285800D01*
D14*
X93590483Y-94104693D02*
G75*
G02*
X95180800Y-93384100I2047517J-2403607D01*
G01*
D10*
X92844000Y-95289100D02*
G75*
G02*
X95042030Y-93308867I2306825J-350535D01*
G01*
D12*
X92844000Y-92330000D02*
X97670000Y-92330000D01*
D14*
X95041100Y-92723699D02*
G75*
G02*
X95853637Y-93759839I-769735J-1440288D01*
G01*
D12*
X97670000Y-97156000D02*
X92844000Y-97156000D01*
X97670000Y-92330000D02*
X97670000Y-97156000D01*
D13*
X94191290Y-94604199D02*
G75*
G02*
X95447500Y-94362000I928801J-1438518D01*
G01*
D14*
X93580600Y-92761800D02*
G75*
G02*
X95413501Y-94146082I33386J-1861390D01*
G01*
D11*
X93540565Y-95440494D02*
G75*
G02*
X94228300Y-94590600I2423669J-1258031D01*
G01*
D12*
X93694716Y-92659667D02*
G75*
G02*
X94355300Y-92584000I493346J-1385665D01*
G01*
X92852577Y-95147473D02*
G75*
G02*
X95458349Y-94136524I1831072J-855951D01*
G01*
D14*
X94049682Y-93874759D02*
G75*
G02*
X95396700Y-93930200I546918J-3103441D01*
G01*
X93428201Y-94298501D02*
G75*
G02*
X95018518Y-93577908I2047517J-2403607D01*
G01*
D11*
X92339047Y-100058571D02*
X90639047Y-100058571D01*
X91853333Y-99558571D01*
X90639047Y-99058571D01*
X92339047Y-99058571D01*
X90639047Y-98058571D02*
X90639047Y-97772857D01*
X90720000Y-97630000D01*
X90881904Y-97487142D01*
X91205714Y-97415714D01*
X91772380Y-97415714D01*
X92096190Y-97487142D01*
X92258095Y-97630000D01*
X92339047Y-97772857D01*
X92339047Y-98058571D01*
X92258095Y-98201428D01*
X92096190Y-98344285D01*
X91772380Y-98415714D01*
X91205714Y-98415714D01*
X90881904Y-98344285D01*
X90720000Y-98201428D01*
X90639047Y-98058571D01*
X92339047Y-96772857D02*
X90639047Y-96772857D01*
X90639047Y-96415714D01*
X90720000Y-96201428D01*
X90881904Y-96058571D01*
X91043809Y-95987142D01*
X91367619Y-95915714D01*
X91610476Y-95915714D01*
X91934285Y-95987142D01*
X92096190Y-96058571D01*
X92258095Y-96201428D01*
X92339047Y-96415714D01*
X92339047Y-96772857D01*
X91448571Y-95272857D02*
X91448571Y-94772857D01*
X92339047Y-94558571D02*
X92339047Y-95272857D01*
X90639047Y-95272857D01*
X90639047Y-94558571D01*
X92339047Y-93201428D02*
X92339047Y-93915714D01*
X90639047Y-93915714D01*
X92339047Y-90772857D02*
X92339047Y-91630000D01*
X92339047Y-91201428D02*
X90639047Y-91201428D01*
X90881904Y-91344285D01*
X91043809Y-91487142D01*
X91124761Y-91630000D01*
X90639047Y-89487142D02*
X90639047Y-89772857D01*
X90720000Y-89915714D01*
X90800952Y-89987142D01*
X91043809Y-90130000D01*
X91367619Y-90201428D01*
X92015238Y-90201428D01*
X92177142Y-90130000D01*
X92258095Y-90058571D01*
X92339047Y-89915714D01*
X92339047Y-89630000D01*
X92258095Y-89487142D01*
X92177142Y-89415714D01*
X92015238Y-89344285D01*
X91610476Y-89344285D01*
X91448571Y-89415714D01*
X91367619Y-89487142D01*
X91286666Y-89630000D01*
X91286666Y-89915714D01*
X91367619Y-90058571D01*
X91448571Y-90130000D01*
X91610476Y-90201428D01*
X92339047Y-88630000D02*
X92339047Y-88344285D01*
X92258095Y-88201428D01*
X92177142Y-88130000D01*
X91934285Y-87987142D01*
X91610476Y-87915714D01*
X90962857Y-87915714D01*
X90800952Y-87987142D01*
X90720000Y-88058571D01*
X90639047Y-88201428D01*
X90639047Y-88487142D01*
X90720000Y-88630000D01*
X90800952Y-88701428D01*
X90962857Y-88772857D01*
X91367619Y-88772857D01*
X91529523Y-88701428D01*
X91610476Y-88630000D01*
X91691428Y-88487142D01*
X91691428Y-88201428D01*
X91610476Y-88058571D01*
X91529523Y-87987142D01*
X91367619Y-87915714D01*
D14*
X94101240Y-92580633D02*
G75*
G02*
X95712797Y-93809293I29285J-1632808D01*
G01*
D10*
X93204066Y-92877167D02*
G75*
G02*
X94799800Y-93358700I131665J-2448465D01*
G01*
X93433631Y-96250013D02*
G75*
G02*
X94837900Y-93942900I2114276J294029D01*
G01*
D15*
X166976071Y-111724285D02*
X166976071Y-110974285D01*
X167404642Y-111724285D02*
X167083214Y-111295714D01*
X167404642Y-110974285D02*
X166976071Y-111402857D01*
X168011785Y-111688571D02*
X167940357Y-111724285D01*
X167797500Y-111724285D01*
X167726071Y-111688571D01*
X167690357Y-111617142D01*
X167690357Y-111331428D01*
X167726071Y-111260000D01*
X167797500Y-111224285D01*
X167940357Y-111224285D01*
X168011785Y-111260000D01*
X168047500Y-111331428D01*
X168047500Y-111402857D01*
X167690357Y-111474285D01*
X168368928Y-111724285D02*
X168368928Y-111224285D01*
X168368928Y-110974285D02*
X168333214Y-111010000D01*
X168368928Y-111045714D01*
X168404642Y-111010000D01*
X168368928Y-110974285D01*
X168368928Y-111045714D01*
X168618928Y-111224285D02*
X168904642Y-111224285D01*
X168726071Y-110974285D02*
X168726071Y-111617142D01*
X168761785Y-111688571D01*
X168833214Y-111724285D01*
X168904642Y-111724285D01*
X169154642Y-111724285D02*
X169154642Y-110974285D01*
X169476071Y-111724285D02*
X169476071Y-111331428D01*
X169440357Y-111260000D01*
X169368928Y-111224285D01*
X169261785Y-111224285D01*
X169190357Y-111260000D01*
X169154642Y-111295714D01*
X169940357Y-111724285D02*
X169868928Y-111688571D01*
X169833214Y-111617142D01*
X169833214Y-110974285D01*
X170511785Y-111688571D02*
X170440357Y-111724285D01*
X170297500Y-111724285D01*
X170226071Y-111688571D01*
X170190357Y-111617142D01*
X170190357Y-111331428D01*
X170226071Y-111260000D01*
X170297500Y-111224285D01*
X170440357Y-111224285D01*
X170511785Y-111260000D01*
X170547500Y-111331428D01*
X170547500Y-111402857D01*
X170190357Y-111474285D01*
X170797500Y-111224285D02*
X170976071Y-111724285D01*
X171154642Y-111224285D02*
X170976071Y-111724285D01*
X170904642Y-111902857D01*
X170868928Y-111938571D01*
X170797500Y-111974285D01*
X172404642Y-111724285D02*
X171976071Y-111724285D01*
X172190357Y-111724285D02*
X172190357Y-110974285D01*
X172118928Y-111081428D01*
X172047500Y-111152857D01*
X171976071Y-111188571D01*
X173047500Y-110974285D02*
X172904642Y-110974285D01*
X172833214Y-111010000D01*
X172797500Y-111045714D01*
X172726071Y-111152857D01*
X172690357Y-111295714D01*
X172690357Y-111581428D01*
X172726071Y-111652857D01*
X172761785Y-111688571D01*
X172833214Y-111724285D01*
X172976071Y-111724285D01*
X173047500Y-111688571D01*
X173083214Y-111652857D01*
X173118928Y-111581428D01*
X173118928Y-111402857D01*
X173083214Y-111331428D01*
X173047500Y-111295714D01*
X172976071Y-111260000D01*
X172833214Y-111260000D01*
X172761785Y-111295714D01*
X172726071Y-111331428D01*
X172690357Y-111402857D01*
X173476071Y-111724285D02*
X173618928Y-111724285D01*
X173690357Y-111688571D01*
X173726071Y-111652857D01*
X173797500Y-111545714D01*
X173833214Y-111402857D01*
X173833214Y-111117142D01*
X173797500Y-111045714D01*
X173761785Y-111010000D01*
X173690357Y-110974285D01*
X173547500Y-110974285D01*
X173476071Y-111010000D01*
X173440357Y-111045714D01*
X173404642Y-111117142D01*
X173404642Y-111295714D01*
X173440357Y-111367142D01*
X173476071Y-111402857D01*
X173547500Y-111438571D01*
X173690357Y-111438571D01*
X173761785Y-111402857D01*
X173797500Y-111367142D01*
X173833214Y-111295714D01*
X174726071Y-111724285D02*
X174726071Y-110974285D01*
X174904642Y-110974285D01*
X175011785Y-111010000D01*
X175083214Y-111081428D01*
X175118928Y-111152857D01*
X175154642Y-111295714D01*
X175154642Y-111402857D01*
X175118928Y-111545714D01*
X175083214Y-111617142D01*
X175011785Y-111688571D01*
X174904642Y-111724285D01*
X174726071Y-111724285D01*
X175476071Y-111724285D02*
X175476071Y-111224285D01*
X175476071Y-110974285D02*
X175440357Y-111010000D01*
X175476071Y-111045714D01*
X175511785Y-111010000D01*
X175476071Y-110974285D01*
X175476071Y-111045714D01*
X175797500Y-111688571D02*
X175868928Y-111724285D01*
X176011785Y-111724285D01*
X176083214Y-111688571D01*
X176118928Y-111617142D01*
X176118928Y-111581428D01*
X176083214Y-111510000D01*
X176011785Y-111474285D01*
X175904642Y-111474285D01*
X175833214Y-111438571D01*
X175797500Y-111367142D01*
X175797500Y-111331428D01*
X175833214Y-111260000D01*
X175904642Y-111224285D01*
X176011785Y-111224285D01*
X176083214Y-111260000D01*
X176440357Y-111224285D02*
X176440357Y-111974285D01*
X176440357Y-111260000D02*
X176511785Y-111224285D01*
X176654642Y-111224285D01*
X176726071Y-111260000D01*
X176761785Y-111295714D01*
X176797500Y-111367142D01*
X176797500Y-111581428D01*
X176761785Y-111652857D01*
X176726071Y-111688571D01*
X176654642Y-111724285D01*
X176511785Y-111724285D01*
X176440357Y-111688571D01*
X177226071Y-111724285D02*
X177154642Y-111688571D01*
X177118928Y-111617142D01*
X177118928Y-110974285D01*
X177833214Y-111724285D02*
X177833214Y-111331428D01*
X177797500Y-111260000D01*
X177726071Y-111224285D01*
X177583214Y-111224285D01*
X177511785Y-111260000D01*
X177833214Y-111688571D02*
X177761785Y-111724285D01*
X177583214Y-111724285D01*
X177511785Y-111688571D01*
X177476071Y-111617142D01*
X177476071Y-111545714D01*
X177511785Y-111474285D01*
X177583214Y-111438571D01*
X177761785Y-111438571D01*
X177833214Y-111402857D01*
X178118928Y-111224285D02*
X178297500Y-111724285D01*
X178476071Y-111224285D02*
X178297500Y-111724285D01*
X178226071Y-111902857D01*
X178190357Y-111938571D01*
X178118928Y-111974285D01*
X179761785Y-111724285D02*
X179511785Y-111367142D01*
X179333214Y-111724285D02*
X179333214Y-110974285D01*
X179618928Y-110974285D01*
X179690357Y-111010000D01*
X179726071Y-111045714D01*
X179761785Y-111117142D01*
X179761785Y-111224285D01*
X179726071Y-111295714D01*
X179690357Y-111331428D01*
X179618928Y-111367142D01*
X179333214Y-111367142D01*
X180368928Y-111688571D02*
X180297500Y-111724285D01*
X180154642Y-111724285D01*
X180083214Y-111688571D01*
X180047500Y-111617142D01*
X180047500Y-111331428D01*
X180083214Y-111260000D01*
X180154642Y-111224285D01*
X180297500Y-111224285D01*
X180368928Y-111260000D01*
X180404642Y-111331428D01*
X180404642Y-111402857D01*
X180047500Y-111474285D01*
X180726071Y-111224285D02*
X180726071Y-111974285D01*
X180726071Y-111260000D02*
X180797500Y-111224285D01*
X180940357Y-111224285D01*
X181011785Y-111260000D01*
X181047500Y-111295714D01*
X181083214Y-111367142D01*
X181083214Y-111581428D01*
X181047500Y-111652857D01*
X181011785Y-111688571D01*
X180940357Y-111724285D01*
X180797500Y-111724285D01*
X180726071Y-111688571D01*
X181511785Y-111724285D02*
X181440357Y-111688571D01*
X181404642Y-111617142D01*
X181404642Y-110974285D01*
X182118928Y-111724285D02*
X182118928Y-111331428D01*
X182083214Y-111260000D01*
X182011785Y-111224285D01*
X181868928Y-111224285D01*
X181797500Y-111260000D01*
X182118928Y-111688571D02*
X182047500Y-111724285D01*
X181868928Y-111724285D01*
X181797500Y-111688571D01*
X181761785Y-111617142D01*
X181761785Y-111545714D01*
X181797500Y-111474285D01*
X181868928Y-111438571D01*
X182047500Y-111438571D01*
X182118928Y-111402857D01*
X182797500Y-111688571D02*
X182726071Y-111724285D01*
X182583214Y-111724285D01*
X182511785Y-111688571D01*
X182476071Y-111652857D01*
X182440357Y-111581428D01*
X182440357Y-111367142D01*
X182476071Y-111295714D01*
X182511785Y-111260000D01*
X182583214Y-111224285D01*
X182726071Y-111224285D01*
X182797500Y-111260000D01*
X183404642Y-111688571D02*
X183333214Y-111724285D01*
X183190357Y-111724285D01*
X183118928Y-111688571D01*
X183083214Y-111617142D01*
X183083214Y-111331428D01*
X183118928Y-111260000D01*
X183190357Y-111224285D01*
X183333214Y-111224285D01*
X183404642Y-111260000D01*
X183440357Y-111331428D01*
X183440357Y-111402857D01*
X183083214Y-111474285D01*
X183761785Y-111724285D02*
X183761785Y-111224285D01*
X183761785Y-111295714D02*
X183797500Y-111260000D01*
X183868928Y-111224285D01*
X183976071Y-111224285D01*
X184047500Y-111260000D01*
X184083214Y-111331428D01*
X184083214Y-111724285D01*
X184083214Y-111331428D02*
X184118928Y-111260000D01*
X184190357Y-111224285D01*
X184297500Y-111224285D01*
X184368928Y-111260000D01*
X184404642Y-111331428D01*
X184404642Y-111724285D01*
X185047500Y-111688571D02*
X184976071Y-111724285D01*
X184833214Y-111724285D01*
X184761785Y-111688571D01*
X184726071Y-111617142D01*
X184726071Y-111331428D01*
X184761785Y-111260000D01*
X184833214Y-111224285D01*
X184976071Y-111224285D01*
X185047500Y-111260000D01*
X185083214Y-111331428D01*
X185083214Y-111402857D01*
X184726071Y-111474285D01*
X185404642Y-111224285D02*
X185404642Y-111724285D01*
X185404642Y-111295714D02*
X185440357Y-111260000D01*
X185511785Y-111224285D01*
X185618928Y-111224285D01*
X185690357Y-111260000D01*
X185726071Y-111331428D01*
X185726071Y-111724285D01*
X185976071Y-111224285D02*
X186261785Y-111224285D01*
X186083214Y-110974285D02*
X186083214Y-111617142D01*
X186118928Y-111688571D01*
X186190357Y-111724285D01*
X186261785Y-111724285D01*
X187011785Y-111224285D02*
X187190357Y-111724285D01*
X187368928Y-111224285D01*
X187618928Y-111045714D02*
X187654642Y-111010000D01*
X187726071Y-110974285D01*
X187904642Y-110974285D01*
X187976071Y-111010000D01*
X188011785Y-111045714D01*
X188047500Y-111117142D01*
X188047500Y-111188571D01*
X188011785Y-111295714D01*
X187583214Y-111724285D01*
X188047500Y-111724285D01*
X166940357Y-112320714D02*
X166976071Y-112285000D01*
X167047500Y-112249285D01*
X167226071Y-112249285D01*
X167297500Y-112285000D01*
X167333214Y-112320714D01*
X167368928Y-112392142D01*
X167368928Y-112463571D01*
X167333214Y-112570714D01*
X166904642Y-112999285D01*
X167368928Y-112999285D01*
X167833214Y-112249285D02*
X167904642Y-112249285D01*
X167976071Y-112285000D01*
X168011785Y-112320714D01*
X168047500Y-112392142D01*
X168083214Y-112535000D01*
X168083214Y-112713571D01*
X168047500Y-112856428D01*
X168011785Y-112927857D01*
X167976071Y-112963571D01*
X167904642Y-112999285D01*
X167833214Y-112999285D01*
X167761785Y-112963571D01*
X167726071Y-112927857D01*
X167690357Y-112856428D01*
X167654642Y-112713571D01*
X167654642Y-112535000D01*
X167690357Y-112392142D01*
X167726071Y-112320714D01*
X167761785Y-112285000D01*
X167833214Y-112249285D01*
X168368928Y-112320714D02*
X168404642Y-112285000D01*
X168476071Y-112249285D01*
X168654642Y-112249285D01*
X168726071Y-112285000D01*
X168761785Y-112320714D01*
X168797500Y-112392142D01*
X168797500Y-112463571D01*
X168761785Y-112570714D01*
X168333214Y-112999285D01*
X168797500Y-112999285D01*
X169511785Y-112999285D02*
X169083214Y-112999285D01*
X169297500Y-112999285D02*
X169297500Y-112249285D01*
X169226071Y-112356428D01*
X169154642Y-112427857D01*
X169083214Y-112463571D01*
X169833214Y-112713571D02*
X170404642Y-112713571D01*
X170904642Y-112249285D02*
X170976071Y-112249285D01*
X171047500Y-112285000D01*
X171083214Y-112320714D01*
X171118928Y-112392142D01*
X171154642Y-112535000D01*
X171154642Y-112713571D01*
X171118928Y-112856428D01*
X171083214Y-112927857D01*
X171047500Y-112963571D01*
X170976071Y-112999285D01*
X170904642Y-112999285D01*
X170833214Y-112963571D01*
X170797500Y-112927857D01*
X170761785Y-112856428D01*
X170726071Y-112713571D01*
X170726071Y-112535000D01*
X170761785Y-112392142D01*
X170797500Y-112320714D01*
X170833214Y-112285000D01*
X170904642Y-112249285D01*
X171833214Y-112249285D02*
X171476071Y-112249285D01*
X171440357Y-112606428D01*
X171476071Y-112570714D01*
X171547500Y-112535000D01*
X171726071Y-112535000D01*
X171797500Y-112570714D01*
X171833214Y-112606428D01*
X171868928Y-112677857D01*
X171868928Y-112856428D01*
X171833214Y-112927857D01*
X171797500Y-112963571D01*
X171726071Y-112999285D01*
X171547500Y-112999285D01*
X171476071Y-112963571D01*
X171440357Y-112927857D01*
X172190357Y-112713571D02*
X172761785Y-112713571D01*
X173261785Y-112249285D02*
X173333214Y-112249285D01*
X173404642Y-112285000D01*
X173440357Y-112320714D01*
X173476071Y-112392142D01*
X173511785Y-112535000D01*
X173511785Y-112713571D01*
X173476071Y-112856428D01*
X173440357Y-112927857D01*
X173404642Y-112963571D01*
X173333214Y-112999285D01*
X173261785Y-112999285D01*
X173190357Y-112963571D01*
X173154642Y-112927857D01*
X173118928Y-112856428D01*
X173083214Y-112713571D01*
X173083214Y-112535000D01*
X173118928Y-112392142D01*
X173154642Y-112320714D01*
X173190357Y-112285000D01*
X173261785Y-112249285D01*
X174154642Y-112249285D02*
X174011785Y-112249285D01*
X173940357Y-112285000D01*
X173904642Y-112320714D01*
X173833214Y-112427857D01*
X173797500Y-112570714D01*
X173797500Y-112856428D01*
X173833214Y-112927857D01*
X173868928Y-112963571D01*
X173940357Y-112999285D01*
X174083214Y-112999285D01*
X174154642Y-112963571D01*
X174190357Y-112927857D01*
X174226071Y-112856428D01*
X174226071Y-112677857D01*
X174190357Y-112606428D01*
X174154642Y-112570714D01*
X174083214Y-112535000D01*
X173940357Y-112535000D01*
X173868928Y-112570714D01*
X173833214Y-112606428D01*
X173797500Y-112677857D01*
X175333214Y-113249285D02*
X175154642Y-113249285D01*
X175154642Y-112177857D01*
X175333214Y-112177857D01*
X175618928Y-112999285D02*
X175618928Y-112499285D01*
X175618928Y-112642142D02*
X175654642Y-112570714D01*
X175690357Y-112535000D01*
X175761785Y-112499285D01*
X175833214Y-112499285D01*
X176368928Y-112963571D02*
X176297500Y-112999285D01*
X176154642Y-112999285D01*
X176083214Y-112963571D01*
X176047500Y-112892142D01*
X176047500Y-112606428D01*
X176083214Y-112535000D01*
X176154642Y-112499285D01*
X176297500Y-112499285D01*
X176368928Y-112535000D01*
X176404642Y-112606428D01*
X176404642Y-112677857D01*
X176047500Y-112749285D01*
X176654642Y-112499285D02*
X176833214Y-112999285D01*
X177011785Y-112499285D01*
X177833214Y-112320714D02*
X177868928Y-112285000D01*
X177940357Y-112249285D01*
X178118928Y-112249285D01*
X178190357Y-112285000D01*
X178226071Y-112320714D01*
X178261785Y-112392142D01*
X178261785Y-112463571D01*
X178226071Y-112570714D01*
X177797500Y-112999285D01*
X178261785Y-112999285D01*
X178726071Y-112249285D02*
X178797500Y-112249285D01*
X178868928Y-112285000D01*
X178904642Y-112320714D01*
X178940357Y-112392142D01*
X178976071Y-112535000D01*
X178976071Y-112713571D01*
X178940357Y-112856428D01*
X178904642Y-112927857D01*
X178868928Y-112963571D01*
X178797500Y-112999285D01*
X178726071Y-112999285D01*
X178654642Y-112963571D01*
X178618928Y-112927857D01*
X178583214Y-112856428D01*
X178547500Y-112713571D01*
X178547500Y-112535000D01*
X178583214Y-112392142D01*
X178618928Y-112320714D01*
X178654642Y-112285000D01*
X178726071Y-112249285D01*
X179261785Y-112320714D02*
X179297500Y-112285000D01*
X179368928Y-112249285D01*
X179547500Y-112249285D01*
X179618928Y-112285000D01*
X179654642Y-112320714D01*
X179690357Y-112392142D01*
X179690357Y-112463571D01*
X179654642Y-112570714D01*
X179226071Y-112999285D01*
X179690357Y-112999285D01*
X180404642Y-112999285D02*
X179976071Y-112999285D01*
X180190357Y-112999285D02*
X180190357Y-112249285D01*
X180118928Y-112356428D01*
X180047500Y-112427857D01*
X179976071Y-112463571D01*
X180726071Y-112713571D02*
X181297500Y-112713571D01*
X181797500Y-112249285D02*
X181868928Y-112249285D01*
X181940357Y-112285000D01*
X181976071Y-112320714D01*
X182011785Y-112392142D01*
X182047500Y-112535000D01*
X182047500Y-112713571D01*
X182011785Y-112856428D01*
X181976071Y-112927857D01*
X181940357Y-112963571D01*
X181868928Y-112999285D01*
X181797500Y-112999285D01*
X181726071Y-112963571D01*
X181690357Y-112927857D01*
X181654642Y-112856428D01*
X181618928Y-112713571D01*
X181618928Y-112535000D01*
X181654642Y-112392142D01*
X181690357Y-112320714D01*
X181726071Y-112285000D01*
X181797500Y-112249285D01*
X182690357Y-112249285D02*
X182547500Y-112249285D01*
X182476071Y-112285000D01*
X182440357Y-112320714D01*
X182368928Y-112427857D01*
X182333214Y-112570714D01*
X182333214Y-112856428D01*
X182368928Y-112927857D01*
X182404642Y-112963571D01*
X182476071Y-112999285D01*
X182618928Y-112999285D01*
X182690357Y-112963571D01*
X182726071Y-112927857D01*
X182761785Y-112856428D01*
X182761785Y-112677857D01*
X182726071Y-112606428D01*
X182690357Y-112570714D01*
X182618928Y-112535000D01*
X182476071Y-112535000D01*
X182404642Y-112570714D01*
X182368928Y-112606428D01*
X182333214Y-112677857D01*
X183083214Y-112713571D02*
X183654642Y-112713571D01*
X184154642Y-112249285D02*
X184226071Y-112249285D01*
X184297500Y-112285000D01*
X184333214Y-112320714D01*
X184368928Y-112392142D01*
X184404642Y-112535000D01*
X184404642Y-112713571D01*
X184368928Y-112856428D01*
X184333214Y-112927857D01*
X184297500Y-112963571D01*
X184226071Y-112999285D01*
X184154642Y-112999285D01*
X184083214Y-112963571D01*
X184047500Y-112927857D01*
X184011785Y-112856428D01*
X183976071Y-112713571D01*
X183976071Y-112535000D01*
X184011785Y-112392142D01*
X184047500Y-112320714D01*
X184083214Y-112285000D01*
X184154642Y-112249285D01*
X184654642Y-112249285D02*
X185118928Y-112249285D01*
X184868928Y-112535000D01*
X184976071Y-112535000D01*
X185047500Y-112570714D01*
X185083214Y-112606428D01*
X185118928Y-112677857D01*
X185118928Y-112856428D01*
X185083214Y-112927857D01*
X185047500Y-112963571D01*
X184976071Y-112999285D01*
X184761785Y-112999285D01*
X184690357Y-112963571D01*
X184654642Y-112927857D01*
X185368928Y-113249285D02*
X185547500Y-113249285D01*
X185547500Y-112177857D01*
X185368928Y-112177857D01*
X167261785Y-114238571D02*
X167190357Y-114274285D01*
X167047500Y-114274285D01*
X166976071Y-114238571D01*
X166940357Y-114167142D01*
X166940357Y-113881428D01*
X166976071Y-113810000D01*
X167047500Y-113774285D01*
X167190357Y-113774285D01*
X167261785Y-113810000D01*
X167297500Y-113881428D01*
X167297500Y-113952857D01*
X166940357Y-114024285D01*
X167618928Y-114274285D02*
X167618928Y-113774285D01*
X167618928Y-113917142D02*
X167654642Y-113845714D01*
X167690357Y-113810000D01*
X167761785Y-113774285D01*
X167833214Y-113774285D01*
X168083214Y-114274285D02*
X168083214Y-113774285D01*
X168083214Y-113524285D02*
X168047500Y-113560000D01*
X168083214Y-113595714D01*
X168118928Y-113560000D01*
X168083214Y-113524285D01*
X168083214Y-113595714D01*
X168440357Y-114274285D02*
X168440357Y-113524285D01*
X168511785Y-113988571D02*
X168726071Y-114274285D01*
X168726071Y-113774285D02*
X168440357Y-114060000D01*
X169511785Y-113917142D02*
X169476071Y-113881428D01*
X169404642Y-113845714D01*
X169333214Y-113845714D01*
X169261785Y-113881428D01*
X169226071Y-113917142D01*
X169190357Y-113988571D01*
X169190357Y-114060000D01*
X169226071Y-114131428D01*
X169261785Y-114167142D01*
X169333214Y-114202857D01*
X169404642Y-114202857D01*
X169476071Y-114167142D01*
X169511785Y-114131428D01*
X169511785Y-113845714D02*
X169511785Y-114131428D01*
X169547500Y-114167142D01*
X169583214Y-114167142D01*
X169654642Y-114131428D01*
X169690357Y-114060000D01*
X169690357Y-113881428D01*
X169618928Y-113774285D01*
X169511785Y-113702857D01*
X169368928Y-113667142D01*
X169226071Y-113702857D01*
X169118928Y-113774285D01*
X169047500Y-113881428D01*
X169011785Y-114024285D01*
X169047500Y-114167142D01*
X169118928Y-114274285D01*
X169226071Y-114345714D01*
X169368928Y-114381428D01*
X169511785Y-114345714D01*
X169618928Y-114274285D01*
X170011785Y-113774285D02*
X170011785Y-114274285D01*
X170011785Y-113845714D02*
X170047500Y-113810000D01*
X170118928Y-113774285D01*
X170226071Y-113774285D01*
X170297500Y-113810000D01*
X170333214Y-113881428D01*
X170333214Y-114274285D01*
X170797500Y-114274285D02*
X170726071Y-114238571D01*
X170690357Y-114202857D01*
X170654642Y-114131428D01*
X170654642Y-113917142D01*
X170690357Y-113845714D01*
X170726071Y-113810000D01*
X170797500Y-113774285D01*
X170904642Y-113774285D01*
X170976071Y-113810000D01*
X171011785Y-113845714D01*
X171047500Y-113917142D01*
X171047500Y-114131428D01*
X171011785Y-114202857D01*
X170976071Y-114238571D01*
X170904642Y-114274285D01*
X170797500Y-114274285D01*
X171368928Y-114274285D02*
X171368928Y-113774285D01*
X171368928Y-113524285D02*
X171333214Y-113560000D01*
X171368928Y-113595714D01*
X171404642Y-113560000D01*
X171368928Y-113524285D01*
X171368928Y-113595714D01*
X171690357Y-114238571D02*
X171761785Y-114274285D01*
X171904642Y-114274285D01*
X171976071Y-114238571D01*
X172011785Y-114167142D01*
X172011785Y-114131428D01*
X171976071Y-114060000D01*
X171904642Y-114024285D01*
X171797500Y-114024285D01*
X171726071Y-113988571D01*
X171690357Y-113917142D01*
X171690357Y-113881428D01*
X171726071Y-113810000D01*
X171797500Y-113774285D01*
X171904642Y-113774285D01*
X171976071Y-113810000D01*
X172618928Y-114238571D02*
X172547500Y-114274285D01*
X172404642Y-114274285D01*
X172333214Y-114238571D01*
X172297500Y-114167142D01*
X172297500Y-113881428D01*
X172333214Y-113810000D01*
X172404642Y-113774285D01*
X172547500Y-113774285D01*
X172618928Y-113810000D01*
X172654642Y-113881428D01*
X172654642Y-113952857D01*
X172297500Y-114024285D01*
X173297500Y-114274285D02*
X173297500Y-113524285D01*
X173297500Y-114238571D02*
X173226071Y-114274285D01*
X173083214Y-114274285D01*
X173011785Y-114238571D01*
X172976071Y-114202857D01*
X172940357Y-114131428D01*
X172940357Y-113917142D01*
X172976071Y-113845714D01*
X173011785Y-113810000D01*
X173083214Y-113774285D01*
X173226071Y-113774285D01*
X173297500Y-113810000D01*
X173976071Y-114274285D02*
X173976071Y-113881428D01*
X173940357Y-113810000D01*
X173868928Y-113774285D01*
X173726071Y-113774285D01*
X173654642Y-113810000D01*
X173976071Y-114238571D02*
X173904642Y-114274285D01*
X173726071Y-114274285D01*
X173654642Y-114238571D01*
X173618928Y-114167142D01*
X173618928Y-114095714D01*
X173654642Y-114024285D01*
X173726071Y-113988571D01*
X173904642Y-113988571D01*
X173976071Y-113952857D01*
X174333214Y-114274285D02*
X174333214Y-113774285D01*
X174333214Y-113845714D02*
X174368928Y-113810000D01*
X174440357Y-113774285D01*
X174547500Y-113774285D01*
X174618928Y-113810000D01*
X174654642Y-113881428D01*
X174654642Y-114274285D01*
X174654642Y-113881428D02*
X174690357Y-113810000D01*
X174761785Y-113774285D01*
X174868928Y-113774285D01*
X174940357Y-113810000D01*
X174976071Y-113881428D01*
X174976071Y-114274285D01*
X175654642Y-114274285D02*
X175654642Y-113881428D01*
X175618928Y-113810000D01*
X175547500Y-113774285D01*
X175404642Y-113774285D01*
X175333214Y-113810000D01*
X175654642Y-114238571D02*
X175583214Y-114274285D01*
X175404642Y-114274285D01*
X175333214Y-114238571D01*
X175297500Y-114167142D01*
X175297500Y-114095714D01*
X175333214Y-114024285D01*
X175404642Y-113988571D01*
X175583214Y-113988571D01*
X175654642Y-113952857D01*
X176333214Y-113774285D02*
X176333214Y-114381428D01*
X176297500Y-114452857D01*
X176261785Y-114488571D01*
X176190357Y-114524285D01*
X176083214Y-114524285D01*
X176011785Y-114488571D01*
X176333214Y-114238571D02*
X176261785Y-114274285D01*
X176118928Y-114274285D01*
X176047500Y-114238571D01*
X176011785Y-114202857D01*
X175976071Y-114131428D01*
X175976071Y-113917142D01*
X176011785Y-113845714D01*
X176047500Y-113810000D01*
X176118928Y-113774285D01*
X176261785Y-113774285D01*
X176333214Y-113810000D01*
X176976071Y-114238571D02*
X176904642Y-114274285D01*
X176761785Y-114274285D01*
X176690357Y-114238571D01*
X176654642Y-114167142D01*
X176654642Y-113881428D01*
X176690357Y-113810000D01*
X176761785Y-113774285D01*
X176904642Y-113774285D01*
X176976071Y-113810000D01*
X177011785Y-113881428D01*
X177011785Y-113952857D01*
X176654642Y-114024285D01*
X177333214Y-114202857D02*
X177368928Y-114238571D01*
X177333214Y-114274285D01*
X177297500Y-114238571D01*
X177333214Y-114202857D01*
X177333214Y-114274285D01*
X178011785Y-114238571D02*
X177940357Y-114274285D01*
X177797500Y-114274285D01*
X177726071Y-114238571D01*
X177690357Y-114202857D01*
X177654642Y-114131428D01*
X177654642Y-113917142D01*
X177690357Y-113845714D01*
X177726071Y-113810000D01*
X177797500Y-113774285D01*
X177940357Y-113774285D01*
X178011785Y-113810000D01*
X178440357Y-114274285D02*
X178368928Y-114238571D01*
X178333214Y-114202857D01*
X178297500Y-114131428D01*
X178297500Y-113917142D01*
X178333214Y-113845714D01*
X178368928Y-113810000D01*
X178440357Y-113774285D01*
X178547500Y-113774285D01*
X178618928Y-113810000D01*
X178654642Y-113845714D01*
X178690357Y-113917142D01*
X178690357Y-114131428D01*
X178654642Y-114202857D01*
X178618928Y-114238571D01*
X178547500Y-114274285D01*
X178440357Y-114274285D01*
X179011785Y-114274285D02*
X179011785Y-113774285D01*
X179011785Y-113845714D02*
X179047500Y-113810000D01*
X179118928Y-113774285D01*
X179226071Y-113774285D01*
X179297500Y-113810000D01*
X179333214Y-113881428D01*
X179333214Y-114274285D01*
X179333214Y-113881428D02*
X179368928Y-113810000D01*
X179440357Y-113774285D01*
X179547500Y-113774285D01*
X179618928Y-113810000D01*
X179654642Y-113881428D01*
X179654642Y-114274285D01*
D12*
X98931214Y-96430000D02*
G75*
G03*
X98931214Y-96430000I-371214J0D01*
G01*
D16*
X188775714Y-97500666D02*
X187215714Y-97500666D01*
X188775714Y-96700666D01*
X187215714Y-96700666D01*
X188775714Y-96034000D02*
X187215714Y-96034000D01*
X187215714Y-95700666D01*
X187290000Y-95500666D01*
X187438571Y-95367333D01*
X187587142Y-95300666D01*
X187884285Y-95234000D01*
X188107142Y-95234000D01*
X188404285Y-95300666D01*
X188552857Y-95367333D01*
X188701428Y-95500666D01*
X188775714Y-95700666D01*
X188775714Y-96034000D01*
X187215714Y-94367333D02*
X187215714Y-94234000D01*
X187290000Y-94100666D01*
X187364285Y-94034000D01*
X187512857Y-93967333D01*
X187810000Y-93900666D01*
X188181428Y-93900666D01*
X188478571Y-93967333D01*
X188627142Y-94034000D01*
X188701428Y-94100666D01*
X188775714Y-94234000D01*
X188775714Y-94367333D01*
X188701428Y-94500666D01*
X188627142Y-94567333D01*
X188478571Y-94634000D01*
X188181428Y-94700666D01*
X187810000Y-94700666D01*
X187512857Y-94634000D01*
X187364285Y-94567333D01*
X187290000Y-94500666D01*
X187215714Y-94367333D01*
X187215714Y-93034000D02*
X187215714Y-92900666D01*
X187290000Y-92767333D01*
X187364285Y-92700666D01*
X187512857Y-92634000D01*
X187810000Y-92567333D01*
X188181428Y-92567333D01*
X188478571Y-92634000D01*
X188627142Y-92700666D01*
X188701428Y-92767333D01*
X188775714Y-92900666D01*
X188775714Y-93034000D01*
X188701428Y-93167333D01*
X188627142Y-93234000D01*
X188478571Y-93300666D01*
X188181428Y-93367333D01*
X187810000Y-93367333D01*
X187512857Y-93300666D01*
X187364285Y-93234000D01*
X187290000Y-93167333D01*
X187215714Y-93034000D01*
X187215714Y-91700666D02*
X187215714Y-91567333D01*
X187290000Y-91434000D01*
X187364285Y-91367333D01*
X187512857Y-91300666D01*
X187810000Y-91234000D01*
X188181428Y-91234000D01*
X188478571Y-91300666D01*
X188627142Y-91367333D01*
X188701428Y-91434000D01*
X188775714Y-91567333D01*
X188775714Y-91700666D01*
X188701428Y-91834000D01*
X188627142Y-91900666D01*
X188478571Y-91967333D01*
X188181428Y-92034000D01*
X187810000Y-92034000D01*
X187512857Y-91967333D01*
X187364285Y-91900666D01*
X187290000Y-91834000D01*
X187215714Y-91700666D01*
X188775714Y-89900666D02*
X188775714Y-90700666D01*
X188775714Y-90300666D02*
X187215714Y-90300666D01*
X187438571Y-90434000D01*
X187587142Y-90567333D01*
X187661428Y-90700666D01*
X188627142Y-89300666D02*
X188701428Y-89234000D01*
X188775714Y-89300666D01*
X188701428Y-89367333D01*
X188627142Y-89300666D01*
X188775714Y-89300666D01*
X187364285Y-88700666D02*
X187290000Y-88634000D01*
X187215714Y-88500666D01*
X187215714Y-88167333D01*
X187290000Y-88034000D01*
X187364285Y-87967333D01*
X187512857Y-87900666D01*
X187661428Y-87900666D01*
X187884285Y-87967333D01*
X188775714Y-88767333D01*
X188775714Y-87900666D01*
D12*
X114520000Y-108949999D02*
X114520000Y-116770000D01*
X114880000Y-108949999D02*
X114520000Y-108949999D01*
X114880000Y-96950000D02*
X114880000Y-108949999D01*
X114520000Y-96950000D02*
X114880000Y-96950000D01*
X114520000Y-89130000D02*
X114520000Y-96950000D01*
X164980000Y-89130000D02*
X114520000Y-89130000D01*
X164980000Y-116770000D02*
X164980000Y-89130000D01*
X114520000Y-116770000D02*
X164980000Y-116770000D01*
D10*
G36*
X186520291Y-90006026D02*
G01*
X186520285Y-89998151D01*
X186520266Y-89990290D01*
X186520234Y-89982445D01*
X186520190Y-89974615D01*
X186520133Y-89966800D01*
X186520063Y-89959000D01*
X186519981Y-89951215D01*
X186519886Y-89943446D01*
X186519778Y-89935692D01*
X186519658Y-89927953D01*
X186519525Y-89920229D01*
X186519379Y-89912521D01*
X186519221Y-89904827D01*
X186519050Y-89897149D01*
X186518867Y-89889486D01*
X186518671Y-89881838D01*
X186518462Y-89874205D01*
X186518241Y-89866587D01*
X186518007Y-89858985D01*
X186517761Y-89851397D01*
X186517502Y-89843825D01*
X186517230Y-89836267D01*
X186516946Y-89828725D01*
X186516649Y-89821198D01*
X186516340Y-89813686D01*
X186516018Y-89806189D01*
X186515683Y-89798707D01*
X186515336Y-89791240D01*
X186514977Y-89783788D01*
X186514605Y-89776351D01*
X186514220Y-89768929D01*
X186513823Y-89761522D01*
X186513413Y-89754130D01*
X186512991Y-89746753D01*
X186512556Y-89739391D01*
X186512109Y-89732044D01*
X186511649Y-89724712D01*
X186511177Y-89717395D01*
X186510692Y-89710093D01*
X186510195Y-89702805D01*
X186509685Y-89695533D01*
X186509163Y-89688276D01*
X186508628Y-89681033D01*
X186508081Y-89673806D01*
X186507521Y-89666593D01*
X186506949Y-89659395D01*
X186506364Y-89652213D01*
X186505767Y-89645045D01*
X186505157Y-89637892D01*
X186504535Y-89630753D01*
X186503901Y-89623630D01*
X186503254Y-89616521D01*
X186502595Y-89609428D01*
X186501923Y-89602349D01*
X186501239Y-89595285D01*
X186500542Y-89588236D01*
X186499833Y-89581201D01*
X186499112Y-89574182D01*
X186498378Y-89567177D01*
X186497632Y-89560187D01*
X186496873Y-89553211D01*
X186496102Y-89546251D01*
X186495319Y-89539305D01*
X186494523Y-89532374D01*
X186493715Y-89525458D01*
X186492895Y-89518556D01*
X186492062Y-89511669D01*
X186491216Y-89504797D01*
X186490359Y-89497940D01*
X186489489Y-89491097D01*
X186488607Y-89484269D01*
X186487712Y-89477456D01*
X186486805Y-89470657D01*
X186485886Y-89463873D01*
X186484954Y-89457104D01*
X186484010Y-89450349D01*
X186483054Y-89443609D01*
X186482085Y-89436884D01*
X186481104Y-89430173D01*
X186480111Y-89423477D01*
X186479106Y-89416795D01*
X186478088Y-89410129D01*
X186477058Y-89403476D01*
X186476015Y-89396838D01*
X186474961Y-89390215D01*
X186473894Y-89383607D01*
X186472815Y-89377013D01*
X186471723Y-89370433D01*
X186470620Y-89363868D01*
X186469504Y-89357318D01*
X186468375Y-89350782D01*
X186467235Y-89344261D01*
X186466082Y-89337754D01*
X186464917Y-89331262D01*
X186463740Y-89324784D01*
X186462551Y-89318320D01*
X186461349Y-89311872D01*
X186460135Y-89305437D01*
X186458909Y-89299017D01*
X186457671Y-89292612D01*
X186456421Y-89286221D01*
X186455158Y-89279844D01*
X186453883Y-89273482D01*
X186452596Y-89267135D01*
X186451297Y-89260801D01*
X186449986Y-89254483D01*
X186448662Y-89248178D01*
X186447326Y-89241888D01*
X186445978Y-89235612D01*
X186444618Y-89229351D01*
X186443246Y-89223104D01*
X186441862Y-89216872D01*
X186440465Y-89210654D01*
X186439057Y-89204450D01*
X186437636Y-89198260D01*
X186436203Y-89192085D01*
X186434758Y-89185924D01*
X186433301Y-89179778D01*
X186431832Y-89173645D01*
X186430350Y-89167527D01*
X186428857Y-89161424D01*
X186427351Y-89155334D01*
X186425834Y-89149259D01*
X186424304Y-89143199D01*
X186422762Y-89137152D01*
X186421208Y-89131120D01*
X186419642Y-89125102D01*
X186418064Y-89119098D01*
X186416474Y-89113108D01*
X186414872Y-89107133D01*
X186413258Y-89101172D01*
X186411632Y-89095225D01*
X186409993Y-89089292D01*
X186408343Y-89083373D01*
X186406680Y-89077469D01*
X186405006Y-89071579D01*
X186403320Y-89065703D01*
X186401621Y-89059841D01*
X186399911Y-89053993D01*
X186398188Y-89048159D01*
X186396453Y-89042340D01*
X186394707Y-89036534D01*
X186392948Y-89030743D01*
X186391178Y-89024966D01*
X186389395Y-89019203D01*
X186387601Y-89013454D01*
X186385794Y-89007719D01*
X186383976Y-89001998D01*
X186382146Y-88996291D01*
X186380303Y-88990599D01*
X186378449Y-88984920D01*
X186376583Y-88979255D01*
X186374704Y-88973605D01*
X186372814Y-88967968D01*
X186370912Y-88962346D01*
X186368998Y-88956737D01*
X186367072Y-88951143D01*
X186365134Y-88945562D01*
X186363184Y-88939995D01*
X186361222Y-88934443D01*
X186359249Y-88928904D01*
X186357263Y-88923380D01*
X186355266Y-88917869D01*
X186353256Y-88912372D01*
X186351235Y-88906889D01*
X186349202Y-88901421D01*
X186347157Y-88895966D01*
X186345100Y-88890525D01*
X186343031Y-88885097D01*
X186340950Y-88879684D01*
X186338858Y-88874285D01*
X186336754Y-88868899D01*
X186334637Y-88863528D01*
X186332509Y-88858170D01*
X186330369Y-88852826D01*
X186328218Y-88847496D01*
X186326054Y-88842180D01*
X186323879Y-88836878D01*
X186321691Y-88831589D01*
X186319492Y-88826314D01*
X186317281Y-88821054D01*
X186315059Y-88815806D01*
X186312824Y-88810573D01*
X186310578Y-88805354D01*
X186308320Y-88800148D01*
X186306050Y-88794956D01*
X186303768Y-88789778D01*
X186301475Y-88784613D01*
X186299170Y-88779463D01*
X186296853Y-88774326D01*
X186294524Y-88769202D01*
X186292183Y-88764093D01*
X186289831Y-88758997D01*
X186287467Y-88753915D01*
X186285091Y-88748846D01*
X186282704Y-88743792D01*
X186280305Y-88738751D01*
X186277894Y-88733723D01*
X186275471Y-88728710D01*
X186273036Y-88723709D01*
X186270590Y-88718723D01*
X186268132Y-88713750D01*
X186265663Y-88708791D01*
X186263182Y-88703846D01*
X186260689Y-88698914D01*
X186258184Y-88693995D01*
X186255668Y-88689091D01*
X186253140Y-88684200D01*
X186250600Y-88679322D01*
X186248049Y-88674458D01*
X186245486Y-88669608D01*
X186242911Y-88664771D01*
X186240324Y-88659948D01*
X186237726Y-88655138D01*
X186235117Y-88650342D01*
X186232495Y-88645559D01*
X186229862Y-88640790D01*
X186227218Y-88636035D01*
X186224562Y-88631292D01*
X186221894Y-88626564D01*
X186219214Y-88621849D01*
X186216523Y-88617147D01*
X186213820Y-88612459D01*
X186211106Y-88607784D01*
X186208380Y-88603123D01*
X186205643Y-88598475D01*
X186202894Y-88593841D01*
X186200133Y-88589220D01*
X186197361Y-88584612D01*
X186194577Y-88580018D01*
X186191781Y-88575437D01*
X186188974Y-88570870D01*
X186186156Y-88566316D01*
X186183326Y-88561776D01*
X186180484Y-88557249D01*
X186177631Y-88552735D01*
X186174766Y-88548234D01*
X186171890Y-88543747D01*
X186169002Y-88539274D01*
X186166103Y-88534813D01*
X186163192Y-88530366D01*
X186160269Y-88525932D01*
X186157335Y-88521512D01*
X186154390Y-88517105D01*
X186151433Y-88512711D01*
X186148465Y-88508331D01*
X186145485Y-88503963D01*
X186142493Y-88499609D01*
X186139490Y-88495269D01*
X186136476Y-88490941D01*
X186133450Y-88486627D01*
X186130413Y-88482326D01*
X186127364Y-88478038D01*
X186124304Y-88473764D01*
X186121232Y-88469502D01*
X186118149Y-88465254D01*
X186115054Y-88461019D01*
X186111948Y-88456797D01*
X186108831Y-88452589D01*
X186105702Y-88448394D01*
X186102562Y-88444211D01*
X186099410Y-88440042D01*
X186096247Y-88435886D01*
X186093072Y-88431744D01*
X186089886Y-88427614D01*
X186086689Y-88423498D01*
X186083480Y-88419394D01*
X186080260Y-88415304D01*
X186077028Y-88411227D01*
X186073785Y-88407163D01*
X186070531Y-88403112D01*
X186067265Y-88399074D01*
X186063988Y-88395049D01*
X186060699Y-88391037D01*
X186057400Y-88387038D01*
X186054089Y-88383053D01*
X186050766Y-88379080D01*
X186047432Y-88375121D01*
X186044087Y-88371174D01*
X186040730Y-88367240D01*
X186037363Y-88363320D01*
X186033983Y-88359412D01*
X186030593Y-88355518D01*
X186027191Y-88351636D01*
X186023778Y-88347768D01*
X186020353Y-88343912D01*
X186016918Y-88340069D01*
X186013471Y-88336239D01*
X186010012Y-88332423D01*
X186006543Y-88328619D01*
X186003062Y-88324828D01*
X185999570Y-88321050D01*
X185996066Y-88317285D01*
X185992551Y-88313532D01*
X185989025Y-88309793D01*
X185985488Y-88306067D01*
X185981940Y-88302353D01*
X185978380Y-88298652D01*
X185974809Y-88294965D01*
X185971227Y-88291290D01*
X185967633Y-88287628D01*
X185964029Y-88283978D01*
X185960413Y-88280342D01*
X185956785Y-88276718D01*
X185953147Y-88273107D01*
X185949498Y-88269509D01*
X185945837Y-88265924D01*
X185942165Y-88262352D01*
X185938482Y-88258792D01*
X185934787Y-88255245D01*
X185931082Y-88251711D01*
X185927365Y-88248190D01*
X185923637Y-88244681D01*
X185919898Y-88241185D01*
X185916148Y-88237702D01*
X185912387Y-88234232D01*
X185908614Y-88230774D01*
X185904830Y-88227329D01*
X185901036Y-88223897D01*
X185897230Y-88220477D01*
X185893412Y-88217070D01*
X185889584Y-88213676D01*
X185885745Y-88210294D01*
X185881894Y-88206925D01*
X185878033Y-88203569D01*
X185874160Y-88200226D01*
X185870276Y-88196895D01*
X185866381Y-88193576D01*
X185862475Y-88190271D01*
X185858558Y-88186977D01*
X185854630Y-88183697D01*
X185850691Y-88180429D01*
X185846740Y-88177174D01*
X185842779Y-88173931D01*
X185838806Y-88170701D01*
X185834823Y-88167483D01*
X185830828Y-88164278D01*
X185826822Y-88161086D01*
X185822805Y-88157906D01*
X185818778Y-88154738D01*
X185814739Y-88151583D01*
X185810689Y-88148441D01*
X185806628Y-88145311D01*
X185802556Y-88142194D01*
X185798473Y-88139089D01*
X185794379Y-88135997D01*
X185790274Y-88132917D01*
X185786158Y-88129849D01*
X185782031Y-88126794D01*
X185777893Y-88123752D01*
X185773744Y-88120722D01*
X185769584Y-88117704D01*
X185765413Y-88114699D01*
X185761232Y-88111706D01*
X185757039Y-88108725D01*
X185752835Y-88105757D01*
X185748620Y-88102802D01*
X185744394Y-88099859D01*
X185740157Y-88096928D01*
X185735910Y-88094009D01*
X185731651Y-88091103D01*
X185727382Y-88088209D01*
X185723101Y-88085328D01*
X185718810Y-88082459D01*
X185714507Y-88079602D01*
X185710194Y-88076758D01*
X185705870Y-88073926D01*
X185701535Y-88071106D01*
X185697189Y-88068299D01*
X185692832Y-88065503D01*
X185688464Y-88062720D01*
X185684085Y-88059950D01*
X185679696Y-88057191D01*
X185675295Y-88054445D01*
X185670884Y-88051711D01*
X185666462Y-88048990D01*
X185662029Y-88046280D01*
X185657585Y-88043583D01*
X185653130Y-88040898D01*
X185648665Y-88038226D01*
X185644188Y-88035565D01*
X185639701Y-88032917D01*
X185635203Y-88030281D01*
X185630694Y-88027657D01*
X185626174Y-88025045D01*
X185621643Y-88022445D01*
X185617102Y-88019858D01*
X185612550Y-88017283D01*
X185607987Y-88014719D01*
X185603413Y-88012168D01*
X185598828Y-88009629D01*
X185594233Y-88007103D01*
X185589626Y-88004588D01*
X185585009Y-88002085D01*
X185580381Y-87999595D01*
X185575743Y-87997116D01*
X185571093Y-87994650D01*
X185566433Y-87992196D01*
X185561762Y-87989753D01*
X185557081Y-87987323D01*
X185552388Y-87984905D01*
X185547685Y-87982499D01*
X185542971Y-87980105D01*
X185538247Y-87977723D01*
X185533512Y-87975353D01*
X185528765Y-87972995D01*
X185524009Y-87970649D01*
X185519241Y-87968315D01*
X185514463Y-87965993D01*
X185509674Y-87963682D01*
X185504874Y-87961384D01*
X185500064Y-87959098D01*
X185495243Y-87956824D01*
X185490411Y-87954562D01*
X185485569Y-87952311D01*
X185480716Y-87950073D01*
X185475852Y-87947846D01*
X185470978Y-87945631D01*
X185466093Y-87943429D01*
X185461197Y-87941238D01*
X185456291Y-87939059D01*
X185451374Y-87936892D01*
X185446446Y-87934737D01*
X185441508Y-87932593D01*
X185436559Y-87930462D01*
X185431599Y-87928342D01*
X185426629Y-87926234D01*
X185421648Y-87924138D01*
X185416657Y-87922054D01*
X185411655Y-87919981D01*
X185406642Y-87917921D01*
X185401619Y-87915872D01*
X185396585Y-87913835D01*
X185391541Y-87911810D01*
X185386486Y-87909796D01*
X185381420Y-87907795D01*
X185376344Y-87905805D01*
X185371258Y-87903826D01*
X185366160Y-87901860D01*
X185361052Y-87899905D01*
X185355934Y-87897962D01*
X185350805Y-87896031D01*
X185345666Y-87894111D01*
X185340516Y-87892203D01*
X185335355Y-87890307D01*
X185330184Y-87888423D01*
X185325002Y-87886550D01*
X185319810Y-87884688D01*
X185314607Y-87882839D01*
X185309394Y-87881001D01*
X185304170Y-87879175D01*
X185298936Y-87877360D01*
X185293692Y-87875557D01*
X185288436Y-87873766D01*
X185283171Y-87871986D01*
X185277895Y-87870218D01*
X185272608Y-87868461D01*
X185267311Y-87866716D01*
X185262003Y-87864983D01*
X185256685Y-87863261D01*
X185251357Y-87861551D01*
X185246018Y-87859852D01*
X185240668Y-87858165D01*
X185235308Y-87856489D01*
X185229938Y-87854825D01*
X185224557Y-87853172D01*
X185219166Y-87851531D01*
X185213765Y-87849902D01*
X185208353Y-87848284D01*
X185202930Y-87846677D01*
X185197497Y-87845082D01*
X185192054Y-87843498D01*
X185186601Y-87841926D01*
X185181136Y-87840365D01*
X185175662Y-87838816D01*
X185170177Y-87837278D01*
X185164682Y-87835752D01*
X185159176Y-87834237D01*
X185153660Y-87832733D01*
X185148134Y-87831241D01*
X185142598Y-87829760D01*
X185137050Y-87828291D01*
X185131493Y-87826833D01*
X185125925Y-87825386D01*
X185120347Y-87823951D01*
X185114759Y-87822527D01*
X185109160Y-87821115D01*
X185103551Y-87819713D01*
X185097932Y-87818324D01*
X185092302Y-87816945D01*
X185086662Y-87815578D01*
X185081012Y-87814222D01*
X185075351Y-87812877D01*
X185069680Y-87811544D01*
X185063999Y-87810222D01*
X185058307Y-87808911D01*
X185052605Y-87807612D01*
X185046893Y-87806324D01*
X185041171Y-87805047D01*
X185035438Y-87803781D01*
X185029695Y-87802527D01*
X185023942Y-87801283D01*
X185018179Y-87800051D01*
X185012405Y-87798831D01*
X185006621Y-87797621D01*
X185000827Y-87796423D01*
X184995022Y-87795236D01*
X184989208Y-87794060D01*
X184983383Y-87792895D01*
X184977548Y-87791741D01*
X184971703Y-87790599D01*
X184965847Y-87789467D01*
X184959981Y-87788347D01*
X184954105Y-87787238D01*
X184948219Y-87786140D01*
X184942323Y-87785053D01*
X184936416Y-87783978D01*
X184930500Y-87782913D01*
X184924573Y-87781859D01*
X184918636Y-87780817D01*
X184912689Y-87779786D01*
X184906731Y-87778765D01*
X184900764Y-87777756D01*
X184894786Y-87776758D01*
X184888798Y-87775771D01*
X184882800Y-87774795D01*
X184876792Y-87773830D01*
X184870774Y-87772876D01*
X184864745Y-87771933D01*
X184858707Y-87771001D01*
X184852658Y-87770080D01*
X184846600Y-87769170D01*
X184840531Y-87768271D01*
X184834452Y-87767383D01*
X184828363Y-87766506D01*
X184822263Y-87765640D01*
X184816154Y-87764784D01*
X184810035Y-87763940D01*
X184803905Y-87763107D01*
X184797766Y-87762284D01*
X184791616Y-87761473D01*
X184785457Y-87760672D01*
X184779287Y-87759883D01*
X184773107Y-87759104D01*
X184766917Y-87758336D01*
X184760718Y-87757579D01*
X184754508Y-87756833D01*
X184748288Y-87756098D01*
X184742058Y-87755374D01*
X184735818Y-87754660D01*
X184729568Y-87753957D01*
X184723308Y-87753265D01*
X184717038Y-87752584D01*
X184710758Y-87751914D01*
X184704467Y-87751255D01*
X184698167Y-87750606D01*
X184691857Y-87749968D01*
X184685537Y-87749341D01*
X184679207Y-87748725D01*
X184672867Y-87748119D01*
X184666517Y-87747525D01*
X184660157Y-87746940D01*
X184653787Y-87746367D01*
X184647407Y-87745805D01*
X184641018Y-87745253D01*
X184634618Y-87744712D01*
X184628208Y-87744181D01*
X184621788Y-87743662D01*
X184615359Y-87743153D01*
X184608919Y-87742654D01*
X184602470Y-87742167D01*
X184596010Y-87741690D01*
X184589541Y-87741223D01*
X184583062Y-87740768D01*
X184576572Y-87740323D01*
X184570073Y-87739888D01*
X184563564Y-87739465D01*
X184557046Y-87739052D01*
X184550517Y-87738649D01*
X184543978Y-87738257D01*
X184537430Y-87737876D01*
X184530871Y-87737505D01*
X184524303Y-87737145D01*
X184517725Y-87736795D01*
X184511137Y-87736456D01*
X184504539Y-87736128D01*
X184497932Y-87735810D01*
X184491314Y-87735503D01*
X184484687Y-87735206D01*
X184478050Y-87734920D01*
X184471403Y-87734644D01*
X184464746Y-87734379D01*
X184458079Y-87734124D01*
X184451403Y-87733880D01*
X184444716Y-87733646D01*
X184438020Y-87733423D01*
X184431314Y-87733210D01*
X184424599Y-87733007D01*
X184417873Y-87732815D01*
X184411138Y-87732634D01*
X184404393Y-87732463D01*
X184397638Y-87732302D01*
X184390873Y-87732152D01*
X184384099Y-87732012D01*
X184377315Y-87731883D01*
X184370521Y-87731764D01*
X184363717Y-87731655D01*
X184356904Y-87731557D01*
X184350081Y-87731469D01*
X184343248Y-87731392D01*
X184336405Y-87731325D01*
X184329553Y-87731268D01*
X184322691Y-87731221D01*
X184315819Y-87731185D01*
X184308938Y-87731160D01*
X184302046Y-87731144D01*
X184295146Y-87731139D01*
X184288295Y-87731144D01*
X184281454Y-87731160D01*
X184274622Y-87731186D01*
X184267801Y-87731223D01*
X184260989Y-87731271D01*
X184254188Y-87731328D01*
X184247396Y-87731397D01*
X184240613Y-87731476D01*
X184233841Y-87731565D01*
X184227078Y-87731665D01*
X184220325Y-87731775D01*
X184213582Y-87731896D01*
X184206849Y-87732027D01*
X184200125Y-87732169D01*
X184193412Y-87732322D01*
X184186708Y-87732484D01*
X184180013Y-87732658D01*
X184173329Y-87732841D01*
X184166654Y-87733036D01*
X184159989Y-87733240D01*
X184153333Y-87733455D01*
X184146687Y-87733681D01*
X184140051Y-87733917D01*
X184133425Y-87734163D01*
X184126808Y-87734420D01*
X184120201Y-87734688D01*
X184113604Y-87734966D01*
X184107016Y-87735254D01*
X184100438Y-87735552D01*
X184093869Y-87735862D01*
X184087311Y-87736181D01*
X184080762Y-87736511D01*
X184074222Y-87736852D01*
X184067692Y-87737202D01*
X184061172Y-87737564D01*
X184054661Y-87737935D01*
X184048160Y-87738317D01*
X184041669Y-87738710D01*
X184035187Y-87739113D01*
X184028714Y-87739526D01*
X184022252Y-87739949D01*
X184015798Y-87740383D01*
X184009355Y-87740828D01*
X184002921Y-87741283D01*
X183996496Y-87741748D01*
X183990081Y-87742223D01*
X183983676Y-87742709D01*
X183977280Y-87743206D01*
X183970893Y-87743712D01*
X183964516Y-87744229D01*
X183958149Y-87744757D01*
X183951791Y-87745295D01*
X183945443Y-87745843D01*
X183939104Y-87746401D01*
X183932774Y-87746970D01*
X183926454Y-87747549D01*
X183920144Y-87748138D01*
X183913843Y-87748738D01*
X183907551Y-87749348D01*
X183901269Y-87749969D01*
X183894996Y-87750600D01*
X183888733Y-87751241D01*
X183882479Y-87751892D01*
X183876235Y-87752554D01*
X183870000Y-87753226D01*
X183863774Y-87753909D01*
X183857558Y-87754601D01*
X183851351Y-87755304D01*
X183851351Y-92042436D01*
X186520291Y-92042436D01*
X186520291Y-90006026D01*
G37*
G36*
X182070000Y-91308270D02*
G01*
X182070000Y-93606088D01*
X183851351Y-93606088D01*
X183851351Y-89057372D01*
X183844923Y-89058116D01*
X183838506Y-89058872D01*
X183832099Y-89059639D01*
X183825703Y-89060418D01*
X183819317Y-89061209D01*
X183812943Y-89062011D01*
X183806579Y-89062825D01*
X183800225Y-89063650D01*
X183793883Y-89064486D01*
X183787551Y-89065335D01*
X183781230Y-89066195D01*
X183774919Y-89067066D01*
X183768620Y-89067949D01*
X183762331Y-89068844D01*
X183756052Y-89069750D01*
X183749785Y-89070668D01*
X183743528Y-89071598D01*
X183737282Y-89072539D01*
X183731046Y-89073492D01*
X183724822Y-89074457D01*
X183718608Y-89075433D01*
X183712405Y-89076421D01*
X183706213Y-89077420D01*
X183700031Y-89078432D01*
X183693861Y-89079455D01*
X183687701Y-89080490D01*
X183681552Y-89081536D01*
X183675413Y-89082594D01*
X183669286Y-89083664D01*
X183663169Y-89084746D01*
X183657063Y-89085840D01*
X183650968Y-89086945D01*
X183644884Y-89088062D01*
X183638811Y-89089191D01*
X183632748Y-89090332D01*
X183626697Y-89091484D01*
X183620656Y-89092648D01*
X183614626Y-89093825D01*
X183608607Y-89095013D01*
X183602598Y-89096212D01*
X183596601Y-89097424D01*
X183590615Y-89098648D01*
X183584639Y-89099883D01*
X183578674Y-89101130D01*
X183572720Y-89102389D01*
X183566777Y-89103661D01*
X183560845Y-89104944D01*
X183554924Y-89106238D01*
X183549014Y-89107545D01*
X183543115Y-89108864D01*
X183537226Y-89110195D01*
X183531349Y-89111537D01*
X183525482Y-89112892D01*
X183519627Y-89114259D01*
X183513782Y-89115637D01*
X183507948Y-89117028D01*
X183502125Y-89118430D01*
X183496314Y-89119845D01*
X183490513Y-89121271D01*
X183484723Y-89122710D01*
X183478944Y-89124161D01*
X183473176Y-89125623D01*
X183467419Y-89127098D01*
X183461673Y-89128585D01*
X183455938Y-89130084D01*
X183450215Y-89131595D01*
X183444502Y-89133118D01*
X183438800Y-89134653D01*
X183433109Y-89136200D01*
X183427429Y-89137759D01*
X183421760Y-89139331D01*
X183416102Y-89140914D01*
X183410456Y-89142510D01*
X183404820Y-89144118D01*
X183399195Y-89145738D01*
X183393582Y-89147370D01*
X183387979Y-89149014D01*
X183382388Y-89150671D01*
X183376807Y-89152340D01*
X183371238Y-89154021D01*
X183365680Y-89155714D01*
X183360133Y-89157419D01*
X183354597Y-89159137D01*
X183349072Y-89160866D01*
X183343558Y-89162608D01*
X183338055Y-89164363D01*
X183332563Y-89166129D01*
X183327083Y-89167908D01*
X183321613Y-89169699D01*
X183316155Y-89171503D01*
X183310708Y-89173318D01*
X183305272Y-89175146D01*
X183299847Y-89176987D01*
X183294433Y-89178839D01*
X183289031Y-89180704D01*
X183283640Y-89182582D01*
X183278259Y-89184471D01*
X183272890Y-89186373D01*
X183267532Y-89188288D01*
X183262186Y-89190215D01*
X183256850Y-89192154D01*
X183251526Y-89194105D01*
X183246213Y-89196069D01*
X183240911Y-89198046D01*
X183235620Y-89200035D01*
X183230341Y-89202036D01*
X183225073Y-89204049D01*
X183219816Y-89206076D01*
X183214570Y-89208114D01*
X183209335Y-89210165D01*
X183204112Y-89212229D01*
X183198900Y-89214305D01*
X183193699Y-89216393D01*
X183188510Y-89218494D01*
X183183331Y-89220608D01*
X183178164Y-89222734D01*
X183173008Y-89224872D01*
X183167864Y-89227024D01*
X183162731Y-89229187D01*
X183157609Y-89231363D01*
X183152498Y-89233552D01*
X183147399Y-89235753D01*
X183142311Y-89237967D01*
X183137234Y-89240194D01*
X183132169Y-89242433D01*
X183127115Y-89244685D01*
X183122072Y-89246949D01*
X183117041Y-89249226D01*
X183112021Y-89251516D01*
X183107012Y-89253818D01*
X183102014Y-89256133D01*
X183097028Y-89258460D01*
X183092054Y-89260800D01*
X183087090Y-89263153D01*
X183082139Y-89265519D01*
X183077198Y-89267897D01*
X183072269Y-89270288D01*
X183067351Y-89272692D01*
X183062445Y-89275108D01*
X183057550Y-89277538D01*
X183052666Y-89279979D01*
X183047794Y-89282434D01*
X183042933Y-89284901D01*
X183038084Y-89287382D01*
X183033246Y-89289875D01*
X183028419Y-89292380D01*
X183023604Y-89294899D01*
X183018800Y-89297430D01*
X183014008Y-89299974D01*
X183009227Y-89302531D01*
X183004458Y-89305101D01*
X182999700Y-89307684D01*
X182994954Y-89310279D01*
X182990219Y-89312888D01*
X182985495Y-89315509D01*
X182980783Y-89318143D01*
X182976083Y-89320790D01*
X182971394Y-89323450D01*
X182966716Y-89326122D01*
X182962050Y-89328808D01*
X182957396Y-89331507D01*
X182952753Y-89334218D01*
X182948121Y-89336943D01*
X182943501Y-89339680D01*
X182938893Y-89342430D01*
X182934296Y-89345194D01*
X182929711Y-89347970D01*
X182925137Y-89350759D01*
X182920574Y-89353561D01*
X182916024Y-89356377D01*
X182911485Y-89359205D01*
X182906957Y-89362046D01*
X182902441Y-89364900D01*
X182897937Y-89367768D01*
X182893444Y-89370648D01*
X182888962Y-89373542D01*
X182884493Y-89376448D01*
X182880035Y-89379368D01*
X182875588Y-89382300D01*
X182871153Y-89385246D01*
X182866730Y-89388205D01*
X182862318Y-89391177D01*
X182857918Y-89394162D01*
X182853530Y-89397160D01*
X182849153Y-89400171D01*
X182844788Y-89403196D01*
X182840434Y-89406233D01*
X182836093Y-89409284D01*
X182831762Y-89412348D01*
X182827444Y-89415425D01*
X182823137Y-89418515D01*
X182818842Y-89421618D01*
X182814558Y-89424735D01*
X182810286Y-89427865D01*
X182806026Y-89431008D01*
X182801778Y-89434164D01*
X182797541Y-89437334D01*
X182793316Y-89440517D01*
X182789103Y-89443713D01*
X182784901Y-89446922D01*
X182780711Y-89450145D01*
X182776533Y-89453380D01*
X182772366Y-89456630D01*
X182768212Y-89459892D01*
X182764069Y-89463168D01*
X182759937Y-89466457D01*
X182755818Y-89469759D01*
X182751710Y-89473075D01*
X182747614Y-89476404D01*
X182743530Y-89479746D01*
X182739457Y-89483102D01*
X182735397Y-89486471D01*
X182731348Y-89489854D01*
X182727311Y-89493250D01*
X182723285Y-89496659D01*
X182719272Y-89500082D01*
X182715270Y-89503518D01*
X182711280Y-89506968D01*
X182707302Y-89510431D01*
X182703336Y-89513907D01*
X182699381Y-89517397D01*
X182695439Y-89520900D01*
X182691508Y-89524417D01*
X182687589Y-89527947D01*
X182683682Y-89531491D01*
X182679787Y-89535048D01*
X182675903Y-89538619D01*
X182672032Y-89542204D01*
X182668172Y-89545801D01*
X182664324Y-89549413D01*
X182660488Y-89553038D01*
X182656664Y-89556676D01*
X182652852Y-89560328D01*
X182649052Y-89563993D01*
X182645263Y-89567673D01*
X182641487Y-89571365D01*
X182637722Y-89575072D01*
X182633970Y-89578791D01*
X182630229Y-89582525D01*
X182626500Y-89586272D01*
X182622783Y-89590033D01*
X182619079Y-89593807D01*
X182615386Y-89597595D01*
X182611704Y-89601397D01*
X182608035Y-89605212D01*
X182604378Y-89609041D01*
X182600733Y-89612884D01*
X182597100Y-89616740D01*
X182593479Y-89620611D01*
X182589869Y-89624494D01*
X182586272Y-89628392D01*
X182582687Y-89632303D01*
X182579113Y-89636228D01*
X182575552Y-89640167D01*
X182572003Y-89644119D01*
X182568466Y-89648085D01*
X182564940Y-89652065D01*
X182561427Y-89656059D01*
X182557926Y-89660067D01*
X182554437Y-89664088D01*
X182550959Y-89668123D01*
X182547494Y-89672172D01*
X182544041Y-89676235D01*
X182540600Y-89680312D01*
X182537171Y-89684402D01*
X182533754Y-89688506D01*
X182530350Y-89692625D01*
X182526957Y-89696757D01*
X182523576Y-89700902D01*
X182520208Y-89705062D01*
X182516851Y-89709236D01*
X182513507Y-89713424D01*
X182510174Y-89717625D01*
X182506854Y-89721840D01*
X182503546Y-89726070D01*
X182500250Y-89730313D01*
X182496966Y-89734570D01*
X182493694Y-89738842D01*
X182490435Y-89743127D01*
X182487187Y-89747426D01*
X182483952Y-89751739D01*
X182480729Y-89756066D01*
X182477518Y-89760407D01*
X182474319Y-89764762D01*
X182471132Y-89769131D01*
X182467958Y-89773514D01*
X182464795Y-89777912D01*
X182461645Y-89782323D01*
X182458507Y-89786748D01*
X182455381Y-89791187D01*
X182452268Y-89795641D01*
X182449166Y-89800108D01*
X182446077Y-89804590D01*
X182443000Y-89809086D01*
X182439935Y-89813595D01*
X182436883Y-89818119D01*
X182433842Y-89822657D01*
X182430814Y-89827209D01*
X182427798Y-89831776D01*
X182424795Y-89836356D01*
X182421803Y-89840951D01*
X182418824Y-89845560D01*
X182415857Y-89850183D01*
X182412903Y-89854820D01*
X182409960Y-89859471D01*
X182407030Y-89864137D01*
X182404112Y-89868816D01*
X182401207Y-89873510D01*
X182398314Y-89878218D01*
X182395433Y-89882941D01*
X182392564Y-89887678D01*
X182389708Y-89892428D01*
X182386864Y-89897194D01*
X182384032Y-89901973D01*
X182381213Y-89906767D01*
X182378406Y-89911575D01*
X182375611Y-89916397D01*
X182372829Y-89921234D01*
X182370059Y-89926085D01*
X182367301Y-89930950D01*
X182364556Y-89935830D01*
X182361823Y-89940724D01*
X182359102Y-89945632D01*
X182356394Y-89950555D01*
X182353698Y-89955492D01*
X182351014Y-89960443D01*
X182348343Y-89965409D01*
X182345685Y-89970390D01*
X182343038Y-89975384D01*
X182340404Y-89980393D01*
X182337783Y-89985417D01*
X182335174Y-89990455D01*
X182332577Y-89995507D01*
X182329993Y-90000574D01*
X182327421Y-90005655D01*
X182324862Y-90010751D01*
X182322315Y-90015861D01*
X182319780Y-90020986D01*
X182317258Y-90026125D01*
X182314749Y-90031279D01*
X182312252Y-90036447D01*
X182309767Y-90041630D01*
X182307295Y-90046827D01*
X182304835Y-90052039D01*
X182302388Y-90057265D01*
X182299953Y-90062506D01*
X182297531Y-90067762D01*
X182295121Y-90073032D01*
X182292724Y-90078316D01*
X182290339Y-90083616D01*
X182287967Y-90088929D01*
X182285607Y-90094258D01*
X182283260Y-90099601D01*
X182280925Y-90104959D01*
X182278603Y-90110331D01*
X182276293Y-90115718D01*
X182273996Y-90121120D01*
X182271712Y-90126536D01*
X182269440Y-90131967D01*
X182267180Y-90137413D01*
X182264934Y-90142873D01*
X182262699Y-90148348D01*
X182260478Y-90153838D01*
X182258268Y-90159342D01*
X182256072Y-90164861D01*
X182253888Y-90170395D01*
X182251717Y-90175944D01*
X182249558Y-90181507D01*
X182247412Y-90187086D01*
X182245278Y-90192679D01*
X182243157Y-90198286D01*
X182241049Y-90203909D01*
X182238954Y-90209546D01*
X182236871Y-90215198D01*
X182234800Y-90220865D01*
X182232742Y-90226547D01*
X182230697Y-90232244D01*
X182228665Y-90237955D01*
X182226645Y-90243682D01*
X182224638Y-90249423D01*
X182222644Y-90255179D01*
X182220662Y-90260950D01*
X182218693Y-90266735D01*
X182216737Y-90272536D01*
X182214793Y-90278352D01*
X182212862Y-90284182D01*
X182210944Y-90290028D01*
X182209038Y-90295888D01*
X182207145Y-90301763D01*
X182205265Y-90307654D01*
X182203398Y-90313559D01*
X182201543Y-90319479D01*
X182199701Y-90325414D01*
X182197872Y-90331364D01*
X182196055Y-90337329D01*
X182194252Y-90343309D01*
X182192461Y-90349305D01*
X182190683Y-90355315D01*
X182188917Y-90361340D01*
X182187165Y-90367380D01*
X182185425Y-90373435D01*
X182183698Y-90379506D01*
X182181983Y-90385591D01*
X182180282Y-90391691D01*
X182178593Y-90397807D01*
X182176917Y-90403938D01*
X182175254Y-90410083D01*
X182173604Y-90416244D01*
X182171966Y-90422420D01*
X182170342Y-90428611D01*
X182168730Y-90434817D01*
X182167131Y-90441039D01*
X182165545Y-90447275D01*
X182163972Y-90453527D01*
X182162411Y-90459794D01*
X182160864Y-90466076D01*
X182159329Y-90472373D01*
X182157807Y-90478685D01*
X182156298Y-90485013D01*
X182154802Y-90491355D01*
X182153319Y-90497713D01*
X182151848Y-90504087D01*
X182150391Y-90510475D01*
X182148947Y-90516879D01*
X182147515Y-90523298D01*
X182146096Y-90529732D01*
X182144690Y-90536182D01*
X182143298Y-90542647D01*
X182141918Y-90549127D01*
X182140551Y-90555622D01*
X182139196Y-90562133D01*
X182137855Y-90568659D01*
X182136527Y-90575200D01*
X182135212Y-90581757D01*
X182133910Y-90588329D01*
X182132620Y-90594916D01*
X182131344Y-90601519D01*
X182130081Y-90608137D01*
X182128830Y-90614771D01*
X182127593Y-90621420D01*
X182126368Y-90628084D01*
X182125157Y-90634764D01*
X182123958Y-90641459D01*
X182122773Y-90648170D01*
X182121601Y-90654896D01*
X182120441Y-90661637D01*
X182119295Y-90668394D01*
X182118162Y-90675166D01*
X182117041Y-90681954D01*
X182115934Y-90688758D01*
X182114840Y-90695576D01*
X182113758Y-90702411D01*
X182112690Y-90709261D01*
X182111635Y-90716126D01*
X182110593Y-90723007D01*
X182109564Y-90729903D01*
X182108548Y-90736815D01*
X182107546Y-90743743D01*
X182106556Y-90750686D01*
X182105579Y-90757644D01*
X182104616Y-90764618D01*
X182103665Y-90771608D01*
X182102728Y-90778613D01*
X182101804Y-90785634D01*
X182100893Y-90792671D01*
X182099995Y-90799723D01*
X182099110Y-90806791D01*
X182098238Y-90813875D01*
X182097380Y-90820974D01*
X182096534Y-90828088D01*
X182095702Y-90835219D01*
X182094883Y-90842365D01*
X182094077Y-90849527D01*
X182093284Y-90856704D01*
X182092504Y-90863897D01*
X182091738Y-90871106D01*
X182090985Y-90878331D01*
X182090245Y-90885571D01*
X182089518Y-90892827D01*
X182088804Y-90900099D01*
X182088103Y-90907387D01*
X182087416Y-90914690D01*
X182086742Y-90922009D01*
X182086081Y-90929344D01*
X182085433Y-90936695D01*
X182084799Y-90944061D01*
X182084178Y-90951444D01*
X182083570Y-90958842D01*
X182082975Y-90966256D01*
X182082394Y-90973685D01*
X182081826Y-90981131D01*
X182081271Y-90988593D01*
X182080729Y-90996070D01*
X182080201Y-91003563D01*
X182079685Y-91011072D01*
X182079184Y-91018597D01*
X182078695Y-91026138D01*
X182078220Y-91033695D01*
X182077758Y-91041267D01*
X182077309Y-91048856D01*
X182076874Y-91056461D01*
X182076452Y-91064081D01*
X182076043Y-91071717D01*
X182075647Y-91079370D01*
X182075265Y-91087038D01*
X182074897Y-91094722D01*
X182074541Y-91102423D01*
X182074199Y-91110139D01*
X182073870Y-91117871D01*
X182073555Y-91125620D01*
X182073253Y-91133384D01*
X182072964Y-91141164D01*
X182072689Y-91148961D01*
X182072427Y-91156773D01*
X182072179Y-91164602D01*
X182071944Y-91172446D01*
X182071722Y-91180307D01*
X182071514Y-91188184D01*
X182071319Y-91196076D01*
X182071137Y-91203985D01*
X182070969Y-91211910D01*
X182070814Y-91219851D01*
X182070673Y-91227809D01*
X182070545Y-91235782D01*
X182070431Y-91243772D01*
X182070330Y-91251777D01*
X182070242Y-91259799D01*
X182070168Y-91267837D01*
X182070108Y-91275891D01*
X182070060Y-91283962D01*
X182070027Y-91292048D01*
X182070007Y-91300151D01*
X182070000Y-91308270D01*
G37*
G36*
X186499566Y-93618171D02*
G01*
X186499566Y-92360518D01*
X184150595Y-92360518D01*
X184150595Y-93618171D01*
X186499566Y-93618171D01*
G37*
G36*
X186499566Y-97670000D02*
G01*
X186499566Y-96412347D01*
X182079084Y-96412347D01*
X182079084Y-97670000D01*
X186499566Y-97670000D01*
G37*
G36*
X186499530Y-94756479D02*
G01*
X186499530Y-93498826D01*
X182079049Y-95274357D01*
X182079049Y-96531833D01*
X186499530Y-94756479D01*
G37*
D12*
X188080000Y-105720000D02*
X188080000Y-107050000D01*
X186750000Y-105720000D02*
X188080000Y-105720000D01*
X185480000Y-105720000D02*
X185480000Y-108380000D01*
X185480000Y-108380000D02*
X167640000Y-108380000D01*
X185480000Y-105720000D02*
X167640000Y-105720000D01*
X167640000Y-105720000D02*
X167640000Y-108380000D01*
X165080000Y-105720000D02*
X165080000Y-107050000D01*
X163750000Y-105720000D02*
X165080000Y-105720000D01*
X162480000Y-105720000D02*
X162480000Y-108380000D01*
X162480000Y-108380000D02*
X144640000Y-108380000D01*
X162480000Y-105720000D02*
X144640000Y-105720000D01*
X144640000Y-105720000D02*
X144640000Y-108380000D01*
X149830000Y-100220000D02*
X149830000Y-101550000D01*
X148500000Y-100220000D02*
X149830000Y-100220000D01*
X147230000Y-100220000D02*
X147230000Y-102880000D01*
X147230000Y-102880000D02*
X129390000Y-102880000D01*
X147230000Y-100220000D02*
X129390000Y-100220000D01*
X129390000Y-100220000D02*
X129390000Y-102880000D01*
X134680000Y-105720000D02*
X134680000Y-107050000D01*
X133350000Y-105720000D02*
X134680000Y-105720000D01*
X132080000Y-105720000D02*
X132080000Y-108380000D01*
X132080000Y-108380000D02*
X114240000Y-108380000D01*
X132080000Y-105720000D02*
X114240000Y-105720000D01*
X114240000Y-105720000D02*
X114240000Y-108380000D01*
X91420000Y-108380000D02*
X91420000Y-107050000D01*
X92750000Y-108380000D02*
X91420000Y-108380000D01*
X94020000Y-108380000D02*
X94020000Y-105720000D01*
X94020000Y-105720000D02*
X111860000Y-105720000D01*
X94020000Y-108380000D02*
X111860000Y-108380000D01*
X111860000Y-108380000D02*
X111860000Y-105720000D01*
X136000000Y-123750000D02*
X90620000Y-123750000D01*
X143500000Y-120750000D02*
X188880000Y-120750000D01*
X143500000Y-120750000D02*
X143500000Y-123750000D01*
X136000000Y-120750000D02*
X136000000Y-123750000D01*
X92990000Y-120750000D02*
X92990000Y-123750000D01*
X90620000Y-123750000D02*
X90620000Y-120750000D01*
X188880000Y-123750000D02*
X143500000Y-123750000D01*
X188880000Y-120750000D02*
X188880000Y-123750000D01*
X90620000Y-120750000D02*
X136000000Y-120750000D01*
D15*
X115298571Y-109737642D02*
X115255714Y-109694785D01*
X115212857Y-109566214D01*
X115212857Y-109480500D01*
X115255714Y-109351928D01*
X115341428Y-109266214D01*
X115427142Y-109223357D01*
X115598571Y-109180500D01*
X115727142Y-109180500D01*
X115898571Y-109223357D01*
X115984285Y-109266214D01*
X116070000Y-109351928D01*
X116112857Y-109480500D01*
X116112857Y-109566214D01*
X116070000Y-109694785D01*
X116027142Y-109737642D01*
X116112857Y-110294785D02*
X116112857Y-110466214D01*
X116070000Y-110551928D01*
X115984285Y-110637642D01*
X115812857Y-110680500D01*
X115512857Y-110680500D01*
X115341428Y-110637642D01*
X115255714Y-110551928D01*
X115212857Y-110466214D01*
X115212857Y-110294785D01*
X115255714Y-110209071D01*
X115341428Y-110123357D01*
X115512857Y-110080500D01*
X115812857Y-110080500D01*
X115984285Y-110123357D01*
X116070000Y-110209071D01*
X116112857Y-110294785D01*
X115212857Y-111066214D02*
X116112857Y-111066214D01*
X115470000Y-111366214D01*
X116112857Y-111666214D01*
X115212857Y-111666214D01*
X161532857Y-110723357D02*
X160932857Y-110723357D01*
X161875714Y-110509071D02*
X161232857Y-110294785D01*
X161232857Y-110851928D01*
X161018571Y-111709071D02*
X160975714Y-111666214D01*
X160932857Y-111537642D01*
X160932857Y-111451928D01*
X160975714Y-111323357D01*
X161061428Y-111237642D01*
X161147142Y-111194785D01*
X161318571Y-111151928D01*
X161447142Y-111151928D01*
X161618571Y-111194785D01*
X161704285Y-111237642D01*
X161790000Y-111323357D01*
X161832857Y-111451928D01*
X161832857Y-111537642D01*
X161790000Y-111666214D01*
X161747142Y-111709071D01*
X138887142Y-110294785D02*
X138930000Y-110337642D01*
X138972857Y-110423357D01*
X138972857Y-110637642D01*
X138930000Y-110723357D01*
X138887142Y-110766214D01*
X138801428Y-110809071D01*
X138715714Y-110809071D01*
X138587142Y-110766214D01*
X138072857Y-110251928D01*
X138072857Y-110809071D01*
X138072857Y-111194785D02*
X138972857Y-111194785D01*
X138972857Y-111409071D01*
X138930000Y-111537642D01*
X138844285Y-111623357D01*
X138758571Y-111666214D01*
X138587142Y-111709071D01*
X138458571Y-111709071D01*
X138287142Y-111666214D01*
X138201428Y-111623357D01*
X138115714Y-111537642D01*
X138072857Y-111409071D01*
X138072857Y-111194785D01*
X117752857Y-110251928D02*
X118652857Y-110251928D01*
X117752857Y-110766214D01*
X118652857Y-110766214D01*
X117838571Y-111709071D02*
X117795714Y-111666214D01*
X117752857Y-111537642D01*
X117752857Y-111451928D01*
X117795714Y-111323357D01*
X117881428Y-111237642D01*
X117967142Y-111194785D01*
X118138571Y-111151928D01*
X118267142Y-111151928D01*
X118438571Y-111194785D01*
X118524285Y-111237642D01*
X118610000Y-111323357D01*
X118652857Y-111451928D01*
X118652857Y-111537642D01*
X118610000Y-111666214D01*
X118567142Y-111709071D01*
X156452857Y-110809071D02*
X155852857Y-110809071D01*
X156795714Y-110594785D02*
X156152857Y-110380500D01*
X156152857Y-110937642D01*
X156324285Y-111280500D02*
X156324285Y-111580500D01*
X155852857Y-111709071D02*
X155852857Y-111280500D01*
X156752857Y-111280500D01*
X156752857Y-111709071D01*
X141427142Y-110294785D02*
X141470000Y-110337642D01*
X141512857Y-110423357D01*
X141512857Y-110637642D01*
X141470000Y-110723357D01*
X141427142Y-110766214D01*
X141341428Y-110809071D01*
X141255714Y-110809071D01*
X141127142Y-110766214D01*
X140612857Y-110251928D01*
X140612857Y-110809071D01*
X140698571Y-111709071D02*
X140655714Y-111666214D01*
X140612857Y-111537642D01*
X140612857Y-111451928D01*
X140655714Y-111323357D01*
X140741428Y-111237642D01*
X140827142Y-111194785D01*
X140998571Y-111151928D01*
X141127142Y-111151928D01*
X141298571Y-111194785D01*
X141384285Y-111237642D01*
X141470000Y-111323357D01*
X141512857Y-111451928D01*
X141512857Y-111537642D01*
X141470000Y-111666214D01*
X141427142Y-111709071D01*
X164072857Y-110723357D02*
X163472857Y-110723357D01*
X164415714Y-110509071D02*
X163772857Y-110294785D01*
X163772857Y-110851928D01*
X163944285Y-111494785D02*
X163901428Y-111623357D01*
X163858571Y-111666214D01*
X163772857Y-111709071D01*
X163644285Y-111709071D01*
X163558571Y-111666214D01*
X163515714Y-111623357D01*
X163472857Y-111537642D01*
X163472857Y-111194785D01*
X164372857Y-111194785D01*
X164372857Y-111494785D01*
X164330000Y-111580500D01*
X164287142Y-111623357D01*
X164201428Y-111666214D01*
X164115714Y-111666214D01*
X164030000Y-111623357D01*
X163987142Y-111580500D01*
X163944285Y-111494785D01*
X163944285Y-111194785D01*
X136347142Y-110380500D02*
X136390000Y-110423357D01*
X136432857Y-110509071D01*
X136432857Y-110723357D01*
X136390000Y-110809071D01*
X136347142Y-110851928D01*
X136261428Y-110894785D01*
X136175714Y-110894785D01*
X136047142Y-110851928D01*
X135532857Y-110337642D01*
X135532857Y-110894785D01*
X136004285Y-111280500D02*
X136004285Y-111580500D01*
X135532857Y-111709071D02*
X135532857Y-111280500D01*
X136432857Y-111280500D01*
X136432857Y-111709071D01*
X130452857Y-110809071D02*
X130452857Y-110294785D01*
X130452857Y-110551928D02*
X131352857Y-110551928D01*
X131224285Y-110466214D01*
X131138571Y-110380500D01*
X131095714Y-110294785D01*
X130538571Y-111709071D02*
X130495714Y-111666214D01*
X130452857Y-111537642D01*
X130452857Y-111451928D01*
X130495714Y-111323357D01*
X130581428Y-111237642D01*
X130667142Y-111194785D01*
X130838571Y-111151928D01*
X130967142Y-111151928D01*
X131138571Y-111194785D01*
X131224285Y-111237642D01*
X131310000Y-111323357D01*
X131352857Y-111451928D01*
X131352857Y-111537642D01*
X131310000Y-111666214D01*
X131267142Y-111709071D01*
X146592857Y-110337642D02*
X146592857Y-110894785D01*
X146250000Y-110594785D01*
X146250000Y-110723357D01*
X146207142Y-110809071D01*
X146164285Y-110851928D01*
X146078571Y-110894785D01*
X145864285Y-110894785D01*
X145778571Y-110851928D01*
X145735714Y-110809071D01*
X145692857Y-110723357D01*
X145692857Y-110466214D01*
X145735714Y-110380500D01*
X145778571Y-110337642D01*
X146164285Y-111280500D02*
X146164285Y-111580500D01*
X145692857Y-111709071D02*
X145692857Y-111280500D01*
X146592857Y-111280500D01*
X146592857Y-111709071D01*
X158992857Y-110723357D02*
X158392857Y-110723357D01*
X159335714Y-110509071D02*
X158692857Y-110294785D01*
X158692857Y-110851928D01*
X158392857Y-111194785D02*
X159292857Y-111194785D01*
X159292857Y-111409071D01*
X159250000Y-111537642D01*
X159164285Y-111623357D01*
X159078571Y-111666214D01*
X158907142Y-111709071D01*
X158778571Y-111709071D01*
X158607142Y-111666214D01*
X158521428Y-111623357D01*
X158435714Y-111537642D01*
X158392857Y-111409071D01*
X158392857Y-111194785D01*
X151672857Y-110251928D02*
X151672857Y-110809071D01*
X151330000Y-110509071D01*
X151330000Y-110637642D01*
X151287142Y-110723357D01*
X151244285Y-110766214D01*
X151158571Y-110809071D01*
X150944285Y-110809071D01*
X150858571Y-110766214D01*
X150815714Y-110723357D01*
X150772857Y-110637642D01*
X150772857Y-110380500D01*
X150815714Y-110294785D01*
X150858571Y-110251928D01*
X150858571Y-111709071D02*
X150815714Y-111666214D01*
X150772857Y-111537642D01*
X150772857Y-111451928D01*
X150815714Y-111323357D01*
X150901428Y-111237642D01*
X150987142Y-111194785D01*
X151158571Y-111151928D01*
X151287142Y-111151928D01*
X151458571Y-111194785D01*
X151544285Y-111237642D01*
X151630000Y-111323357D01*
X151672857Y-111451928D01*
X151672857Y-111537642D01*
X151630000Y-111666214D01*
X151587142Y-111709071D01*
X120292857Y-110251928D02*
X121192857Y-110251928D01*
X120292857Y-110766214D01*
X121192857Y-110766214D01*
X120378571Y-111709071D02*
X120335714Y-111666214D01*
X120292857Y-111537642D01*
X120292857Y-111451928D01*
X120335714Y-111323357D01*
X120421428Y-111237642D01*
X120507142Y-111194785D01*
X120678571Y-111151928D01*
X120807142Y-111151928D01*
X120978571Y-111194785D01*
X121064285Y-111237642D01*
X121150000Y-111323357D01*
X121192857Y-111451928D01*
X121192857Y-111537642D01*
X121150000Y-111666214D01*
X121107142Y-111709071D01*
X132992857Y-109437642D02*
X133892857Y-109437642D01*
X133892857Y-109651928D01*
X133850000Y-109780500D01*
X133764285Y-109866214D01*
X133678571Y-109909071D01*
X133507142Y-109951928D01*
X133378571Y-109951928D01*
X133207142Y-109909071D01*
X133121428Y-109866214D01*
X133035714Y-109780500D01*
X132992857Y-109651928D01*
X132992857Y-109437642D01*
X132992857Y-110337642D02*
X133892857Y-110337642D01*
X133892857Y-110680500D01*
X133850000Y-110766214D01*
X133807142Y-110809071D01*
X133721428Y-110851928D01*
X133592857Y-110851928D01*
X133507142Y-110809071D01*
X133464285Y-110766214D01*
X133421428Y-110680500D01*
X133421428Y-110337642D01*
X132992857Y-111709071D02*
X132992857Y-111194785D01*
X132992857Y-111451928D02*
X133892857Y-111451928D01*
X133764285Y-111366214D01*
X133678571Y-111280500D01*
X133635714Y-111194785D01*
X149132857Y-110251928D02*
X149132857Y-110809071D01*
X148790000Y-110509071D01*
X148790000Y-110637642D01*
X148747142Y-110723357D01*
X148704285Y-110766214D01*
X148618571Y-110809071D01*
X148404285Y-110809071D01*
X148318571Y-110766214D01*
X148275714Y-110723357D01*
X148232857Y-110637642D01*
X148232857Y-110380500D01*
X148275714Y-110294785D01*
X148318571Y-110251928D01*
X148232857Y-111194785D02*
X149132857Y-111194785D01*
X149132857Y-111409071D01*
X149090000Y-111537642D01*
X149004285Y-111623357D01*
X148918571Y-111666214D01*
X148747142Y-111709071D01*
X148618571Y-111709071D01*
X148447142Y-111666214D01*
X148361428Y-111623357D01*
X148275714Y-111537642D01*
X148232857Y-111409071D01*
X148232857Y-111194785D01*
X153312857Y-109437642D02*
X154212857Y-109437642D01*
X154212857Y-109651928D01*
X154170000Y-109780500D01*
X154084285Y-109866214D01*
X153998571Y-109909071D01*
X153827142Y-109951928D01*
X153698571Y-109951928D01*
X153527142Y-109909071D01*
X153441428Y-109866214D01*
X153355714Y-109780500D01*
X153312857Y-109651928D01*
X153312857Y-109437642D01*
X153312857Y-110337642D02*
X154212857Y-110337642D01*
X154212857Y-110680500D01*
X154170000Y-110766214D01*
X154127142Y-110809071D01*
X154041428Y-110851928D01*
X153912857Y-110851928D01*
X153827142Y-110809071D01*
X153784285Y-110766214D01*
X153741428Y-110680500D01*
X153741428Y-110337642D01*
X154212857Y-111151928D02*
X154212857Y-111709071D01*
X153870000Y-111409071D01*
X153870000Y-111537642D01*
X153827142Y-111623357D01*
X153784285Y-111666214D01*
X153698571Y-111709071D01*
X153484285Y-111709071D01*
X153398571Y-111666214D01*
X153355714Y-111623357D01*
X153312857Y-111537642D01*
X153312857Y-111280500D01*
X153355714Y-111194785D01*
X153398571Y-111151928D01*
X127912857Y-110809071D02*
X127912857Y-110294785D01*
X127912857Y-110551928D02*
X128812857Y-110551928D01*
X128684285Y-110466214D01*
X128598571Y-110380500D01*
X128555714Y-110294785D01*
X127912857Y-111194785D02*
X128812857Y-111194785D01*
X128812857Y-111409071D01*
X128770000Y-111537642D01*
X128684285Y-111623357D01*
X128598571Y-111666214D01*
X128427142Y-111709071D01*
X128298571Y-111709071D01*
X128127142Y-111666214D01*
X128041428Y-111623357D01*
X127955714Y-111537642D01*
X127912857Y-111409071D01*
X127912857Y-111194785D01*
X125372857Y-110894785D02*
X125372857Y-110380500D01*
X125372857Y-110637642D02*
X126272857Y-110637642D01*
X126144285Y-110551928D01*
X126058571Y-110466214D01*
X126015714Y-110380500D01*
X125844285Y-111280500D02*
X125844285Y-111580500D01*
X125372857Y-111709071D02*
X125372857Y-111280500D01*
X126272857Y-111280500D01*
X126272857Y-111709071D01*
X122832857Y-110251928D02*
X123732857Y-110251928D01*
X122832857Y-110766214D01*
X123732857Y-110766214D01*
X122918571Y-111709071D02*
X122875714Y-111666214D01*
X122832857Y-111537642D01*
X122832857Y-111451928D01*
X122875714Y-111323357D01*
X122961428Y-111237642D01*
X123047142Y-111194785D01*
X123218571Y-111151928D01*
X123347142Y-111151928D01*
X123518571Y-111194785D01*
X123604285Y-111237642D01*
X123690000Y-111323357D01*
X123732857Y-111451928D01*
X123732857Y-111537642D01*
X123690000Y-111666214D01*
X123647142Y-111709071D01*
X143152857Y-109437642D02*
X144052857Y-109437642D01*
X144052857Y-109651928D01*
X144010000Y-109780500D01*
X143924285Y-109866214D01*
X143838571Y-109909071D01*
X143667142Y-109951928D01*
X143538571Y-109951928D01*
X143367142Y-109909071D01*
X143281428Y-109866214D01*
X143195714Y-109780500D01*
X143152857Y-109651928D01*
X143152857Y-109437642D01*
X143152857Y-110337642D02*
X144052857Y-110337642D01*
X144052857Y-110680500D01*
X144010000Y-110766214D01*
X143967142Y-110809071D01*
X143881428Y-110851928D01*
X143752857Y-110851928D01*
X143667142Y-110809071D01*
X143624285Y-110766214D01*
X143581428Y-110680500D01*
X143581428Y-110337642D01*
X143967142Y-111194785D02*
X144010000Y-111237642D01*
X144052857Y-111323357D01*
X144052857Y-111537642D01*
X144010000Y-111623357D01*
X143967142Y-111666214D01*
X143881428Y-111709071D01*
X143795714Y-111709071D01*
X143667142Y-111666214D01*
X143152857Y-111151928D01*
X143152857Y-111709071D01*
X148449523Y-113446380D02*
X147878095Y-113446380D01*
X148163809Y-113446380D02*
X148163809Y-112446380D01*
X148068571Y-112589238D01*
X147973333Y-112684476D01*
X147878095Y-112732095D01*
X149306666Y-112779714D02*
X149306666Y-113446380D01*
X149068571Y-112398761D02*
X148830476Y-113113047D01*
X149449523Y-113113047D01*
X161149523Y-113446380D02*
X160578095Y-113446380D01*
X160863809Y-113446380D02*
X160863809Y-112446380D01*
X160768571Y-112589238D01*
X160673333Y-112684476D01*
X160578095Y-112732095D01*
X161625714Y-113446380D02*
X161816190Y-113446380D01*
X161911428Y-113398761D01*
X161959047Y-113351142D01*
X162054285Y-113208285D01*
X162101904Y-113017809D01*
X162101904Y-112636857D01*
X162054285Y-112541619D01*
X162006666Y-112494000D01*
X161911428Y-112446380D01*
X161720952Y-112446380D01*
X161625714Y-112494000D01*
X161578095Y-112541619D01*
X161530476Y-112636857D01*
X161530476Y-112874952D01*
X161578095Y-112970190D01*
X161625714Y-113017809D01*
X161720952Y-113065428D01*
X161911428Y-113065428D01*
X162006666Y-113017809D01*
X162054285Y-112970190D01*
X162101904Y-112874952D01*
X138289523Y-113446380D02*
X137718095Y-113446380D01*
X138003809Y-113446380D02*
X138003809Y-112446380D01*
X137908571Y-112589238D01*
X137813333Y-112684476D01*
X137718095Y-112732095D01*
X138908571Y-112446380D02*
X139003809Y-112446380D01*
X139099047Y-112494000D01*
X139146666Y-112541619D01*
X139194285Y-112636857D01*
X139241904Y-112827333D01*
X139241904Y-113065428D01*
X139194285Y-113255904D01*
X139146666Y-113351142D01*
X139099047Y-113398761D01*
X139003809Y-113446380D01*
X138908571Y-113446380D01*
X138813333Y-113398761D01*
X138765714Y-113351142D01*
X138718095Y-113255904D01*
X138670476Y-113065428D01*
X138670476Y-112827333D01*
X138718095Y-112636857D01*
X138765714Y-112541619D01*
X138813333Y-112494000D01*
X138908571Y-112446380D01*
X126018095Y-112446380D02*
X125541904Y-112446380D01*
X125494285Y-112922571D01*
X125541904Y-112874952D01*
X125637142Y-112827333D01*
X125875238Y-112827333D01*
X125970476Y-112874952D01*
X126018095Y-112922571D01*
X126065714Y-113017809D01*
X126065714Y-113255904D01*
X126018095Y-113351142D01*
X125970476Y-113398761D01*
X125875238Y-113446380D01*
X125637142Y-113446380D01*
X125541904Y-113398761D01*
X125494285Y-113351142D01*
X123430476Y-112779714D02*
X123430476Y-113446380D01*
X123192380Y-112398761D02*
X122954285Y-113113047D01*
X123573333Y-113113047D01*
X120366666Y-112446380D02*
X120985714Y-112446380D01*
X120652380Y-112827333D01*
X120795238Y-112827333D01*
X120890476Y-112874952D01*
X120938095Y-112922571D01*
X120985714Y-113017809D01*
X120985714Y-113255904D01*
X120938095Y-113351142D01*
X120890476Y-113398761D01*
X120795238Y-113446380D01*
X120509523Y-113446380D01*
X120414285Y-113398761D01*
X120366666Y-113351142D01*
X117874285Y-112541619D02*
X117921904Y-112494000D01*
X118017142Y-112446380D01*
X118255238Y-112446380D01*
X118350476Y-112494000D01*
X118398095Y-112541619D01*
X118445714Y-112636857D01*
X118445714Y-112732095D01*
X118398095Y-112874952D01*
X117826666Y-113446380D01*
X118445714Y-113446380D01*
X115905714Y-113446380D02*
X115334285Y-113446380D01*
X115620000Y-113446380D02*
X115620000Y-112446380D01*
X115524761Y-112589238D01*
X115429523Y-112684476D01*
X115334285Y-112732095D01*
X135749523Y-113446380D02*
X135940000Y-113446380D01*
X136035238Y-113398761D01*
X136082857Y-113351142D01*
X136178095Y-113208285D01*
X136225714Y-113017809D01*
X136225714Y-112636857D01*
X136178095Y-112541619D01*
X136130476Y-112494000D01*
X136035238Y-112446380D01*
X135844761Y-112446380D01*
X135749523Y-112494000D01*
X135701904Y-112541619D01*
X135654285Y-112636857D01*
X135654285Y-112874952D01*
X135701904Y-112970190D01*
X135749523Y-113017809D01*
X135844761Y-113065428D01*
X136035238Y-113065428D01*
X136130476Y-113017809D01*
X136178095Y-112970190D01*
X136225714Y-112874952D01*
X163118095Y-112541619D02*
X163165714Y-112494000D01*
X163260952Y-112446380D01*
X163499047Y-112446380D01*
X163594285Y-112494000D01*
X163641904Y-112541619D01*
X163689523Y-112636857D01*
X163689523Y-112732095D01*
X163641904Y-112874952D01*
X163070476Y-113446380D01*
X163689523Y-113446380D01*
X164308571Y-112446380D02*
X164403809Y-112446380D01*
X164499047Y-112494000D01*
X164546666Y-112541619D01*
X164594285Y-112636857D01*
X164641904Y-112827333D01*
X164641904Y-113065428D01*
X164594285Y-113255904D01*
X164546666Y-113351142D01*
X164499047Y-113398761D01*
X164403809Y-113446380D01*
X164308571Y-113446380D01*
X164213333Y-113398761D01*
X164165714Y-113351142D01*
X164118095Y-113255904D01*
X164070476Y-113065428D01*
X164070476Y-112827333D01*
X164118095Y-112636857D01*
X164165714Y-112541619D01*
X164213333Y-112494000D01*
X164308571Y-112446380D01*
X156069523Y-113446380D02*
X155498095Y-113446380D01*
X155783809Y-113446380D02*
X155783809Y-112446380D01*
X155688571Y-112589238D01*
X155593333Y-112684476D01*
X155498095Y-112732095D01*
X156402857Y-112446380D02*
X157069523Y-112446380D01*
X156640952Y-113446380D01*
X153529523Y-113446380D02*
X152958095Y-113446380D01*
X153243809Y-113446380D02*
X153243809Y-112446380D01*
X153148571Y-112589238D01*
X153053333Y-112684476D01*
X152958095Y-112732095D01*
X154386666Y-112446380D02*
X154196190Y-112446380D01*
X154100952Y-112494000D01*
X154053333Y-112541619D01*
X153958095Y-112684476D01*
X153910476Y-112874952D01*
X153910476Y-113255904D01*
X153958095Y-113351142D01*
X154005714Y-113398761D01*
X154100952Y-113446380D01*
X154291428Y-113446380D01*
X154386666Y-113398761D01*
X154434285Y-113351142D01*
X154481904Y-113255904D01*
X154481904Y-113017809D01*
X154434285Y-112922571D01*
X154386666Y-112874952D01*
X154291428Y-112827333D01*
X154100952Y-112827333D01*
X154005714Y-112874952D01*
X153958095Y-112922571D01*
X153910476Y-113017809D01*
X158609523Y-113446380D02*
X158038095Y-113446380D01*
X158323809Y-113446380D02*
X158323809Y-112446380D01*
X158228571Y-112589238D01*
X158133333Y-112684476D01*
X158038095Y-112732095D01*
X159180952Y-112874952D02*
X159085714Y-112827333D01*
X159038095Y-112779714D01*
X158990476Y-112684476D01*
X158990476Y-112636857D01*
X159038095Y-112541619D01*
X159085714Y-112494000D01*
X159180952Y-112446380D01*
X159371428Y-112446380D01*
X159466666Y-112494000D01*
X159514285Y-112541619D01*
X159561904Y-112636857D01*
X159561904Y-112684476D01*
X159514285Y-112779714D01*
X159466666Y-112827333D01*
X159371428Y-112874952D01*
X159180952Y-112874952D01*
X159085714Y-112922571D01*
X159038095Y-112970190D01*
X158990476Y-113065428D01*
X158990476Y-113255904D01*
X159038095Y-113351142D01*
X159085714Y-113398761D01*
X159180952Y-113446380D01*
X159371428Y-113446380D01*
X159466666Y-113398761D01*
X159514285Y-113351142D01*
X159561904Y-113255904D01*
X159561904Y-113065428D01*
X159514285Y-112970190D01*
X159466666Y-112922571D01*
X159371428Y-112874952D01*
X150989523Y-113446380D02*
X150418095Y-113446380D01*
X150703809Y-113446380D02*
X150703809Y-112446380D01*
X150608571Y-112589238D01*
X150513333Y-112684476D01*
X150418095Y-112732095D01*
X151894285Y-112446380D02*
X151418095Y-112446380D01*
X151370476Y-112922571D01*
X151418095Y-112874952D01*
X151513333Y-112827333D01*
X151751428Y-112827333D01*
X151846666Y-112874952D01*
X151894285Y-112922571D01*
X151941904Y-113017809D01*
X151941904Y-113255904D01*
X151894285Y-113351142D01*
X151846666Y-113398761D01*
X151751428Y-113446380D01*
X151513333Y-113446380D01*
X151418095Y-113398761D01*
X151370476Y-113351142D01*
X143369523Y-113446380D02*
X142798095Y-113446380D01*
X143083809Y-113446380D02*
X143083809Y-112446380D01*
X142988571Y-112589238D01*
X142893333Y-112684476D01*
X142798095Y-112732095D01*
X143750476Y-112541619D02*
X143798095Y-112494000D01*
X143893333Y-112446380D01*
X144131428Y-112446380D01*
X144226666Y-112494000D01*
X144274285Y-112541619D01*
X144321904Y-112636857D01*
X144321904Y-112732095D01*
X144274285Y-112874952D01*
X143702857Y-113446380D01*
X144321904Y-113446380D01*
X140829523Y-113446380D02*
X140258095Y-113446380D01*
X140543809Y-113446380D02*
X140543809Y-112446380D01*
X140448571Y-112589238D01*
X140353333Y-112684476D01*
X140258095Y-112732095D01*
X141781904Y-113446380D02*
X141210476Y-113446380D01*
X141496190Y-113446380D02*
X141496190Y-112446380D01*
X141400952Y-112589238D01*
X141305714Y-112684476D01*
X141210476Y-112732095D01*
X145909523Y-113446380D02*
X145338095Y-113446380D01*
X145623809Y-113446380D02*
X145623809Y-112446380D01*
X145528571Y-112589238D01*
X145433333Y-112684476D01*
X145338095Y-112732095D01*
X146242857Y-112446380D02*
X146861904Y-112446380D01*
X146528571Y-112827333D01*
X146671428Y-112827333D01*
X146766666Y-112874952D01*
X146814285Y-112922571D01*
X146861904Y-113017809D01*
X146861904Y-113255904D01*
X146814285Y-113351142D01*
X146766666Y-113398761D01*
X146671428Y-113446380D01*
X146385714Y-113446380D01*
X146290476Y-113398761D01*
X146242857Y-113351142D01*
X133304761Y-112874952D02*
X133209523Y-112827333D01*
X133161904Y-112779714D01*
X133114285Y-112684476D01*
X133114285Y-112636857D01*
X133161904Y-112541619D01*
X133209523Y-112494000D01*
X133304761Y-112446380D01*
X133495238Y-112446380D01*
X133590476Y-112494000D01*
X133638095Y-112541619D01*
X133685714Y-112636857D01*
X133685714Y-112684476D01*
X133638095Y-112779714D01*
X133590476Y-112827333D01*
X133495238Y-112874952D01*
X133304761Y-112874952D01*
X133209523Y-112922571D01*
X133161904Y-112970190D01*
X133114285Y-113065428D01*
X133114285Y-113255904D01*
X133161904Y-113351142D01*
X133209523Y-113398761D01*
X133304761Y-113446380D01*
X133495238Y-113446380D01*
X133590476Y-113398761D01*
X133638095Y-113351142D01*
X133685714Y-113255904D01*
X133685714Y-113065428D01*
X133638095Y-112970190D01*
X133590476Y-112922571D01*
X133495238Y-112874952D01*
X130526666Y-112446380D02*
X131193333Y-112446380D01*
X130764761Y-113446380D01*
X128510476Y-112446380D02*
X128320000Y-112446380D01*
X128224761Y-112494000D01*
X128177142Y-112541619D01*
X128081904Y-112684476D01*
X128034285Y-112874952D01*
X128034285Y-113255904D01*
X128081904Y-113351142D01*
X128129523Y-113398761D01*
X128224761Y-113446380D01*
X128415238Y-113446380D01*
X128510476Y-113398761D01*
X128558095Y-113351142D01*
X128605714Y-113255904D01*
X128605714Y-113017809D01*
X128558095Y-112922571D01*
X128510476Y-112874952D01*
X128415238Y-112827333D01*
X128224761Y-112827333D01*
X128129523Y-112874952D01*
X128081904Y-112922571D01*
X128034285Y-113017809D01*
X145778571Y-94748071D02*
X145735714Y-94705214D01*
X145692857Y-94576642D01*
X145692857Y-94490928D01*
X145735714Y-94362357D01*
X145821428Y-94276642D01*
X145907142Y-94233785D01*
X146078571Y-94190928D01*
X146207142Y-94190928D01*
X146378571Y-94233785D01*
X146464285Y-94276642D01*
X146550000Y-94362357D01*
X146592857Y-94490928D01*
X146592857Y-94576642D01*
X146550000Y-94705214D01*
X146507142Y-94748071D01*
X146592857Y-95305214D02*
X146592857Y-95476642D01*
X146550000Y-95562357D01*
X146464285Y-95648071D01*
X146292857Y-95690928D01*
X145992857Y-95690928D01*
X145821428Y-95648071D01*
X145735714Y-95562357D01*
X145692857Y-95476642D01*
X145692857Y-95305214D01*
X145735714Y-95219500D01*
X145821428Y-95133785D01*
X145992857Y-95090928D01*
X146292857Y-95090928D01*
X146464285Y-95133785D01*
X146550000Y-95219500D01*
X146592857Y-95305214D01*
X145692857Y-96505214D02*
X145692857Y-96076642D01*
X146592857Y-96076642D01*
X161532857Y-94619500D02*
X160932857Y-94619500D01*
X161875714Y-94405214D02*
X161232857Y-94190928D01*
X161232857Y-94748071D01*
X161404285Y-95390928D02*
X161404285Y-95090928D01*
X160932857Y-95090928D02*
X161832857Y-95090928D01*
X161832857Y-95519500D01*
X156752857Y-94148071D02*
X156752857Y-94705214D01*
X156410000Y-94405214D01*
X156410000Y-94533785D01*
X156367142Y-94619500D01*
X156324285Y-94662357D01*
X156238571Y-94705214D01*
X156024285Y-94705214D01*
X155938571Y-94662357D01*
X155895714Y-94619500D01*
X155852857Y-94533785D01*
X155852857Y-94276642D01*
X155895714Y-94190928D01*
X155938571Y-94148071D01*
X156324285Y-95390928D02*
X156281428Y-95519500D01*
X156238571Y-95562357D01*
X156152857Y-95605214D01*
X156024285Y-95605214D01*
X155938571Y-95562357D01*
X155895714Y-95519500D01*
X155852857Y-95433785D01*
X155852857Y-95090928D01*
X156752857Y-95090928D01*
X156752857Y-95390928D01*
X156710000Y-95476642D01*
X156667142Y-95519500D01*
X156581428Y-95562357D01*
X156495714Y-95562357D01*
X156410000Y-95519500D01*
X156367142Y-95476642D01*
X156324285Y-95390928D01*
X156324285Y-95090928D01*
X138887142Y-94190928D02*
X138930000Y-94233785D01*
X138972857Y-94319500D01*
X138972857Y-94533785D01*
X138930000Y-94619500D01*
X138887142Y-94662357D01*
X138801428Y-94705214D01*
X138715714Y-94705214D01*
X138587142Y-94662357D01*
X138072857Y-94148071D01*
X138072857Y-94705214D01*
X138544285Y-95390928D02*
X138544285Y-95090928D01*
X138072857Y-95090928D02*
X138972857Y-95090928D01*
X138972857Y-95519500D01*
X130452857Y-94705214D02*
X130452857Y-94190928D01*
X130452857Y-94448071D02*
X131352857Y-94448071D01*
X131224285Y-94362357D01*
X131138571Y-94276642D01*
X131095714Y-94190928D01*
X130924285Y-95390928D02*
X130881428Y-95519500D01*
X130838571Y-95562357D01*
X130752857Y-95605214D01*
X130624285Y-95605214D01*
X130538571Y-95562357D01*
X130495714Y-95519500D01*
X130452857Y-95433785D01*
X130452857Y-95090928D01*
X131352857Y-95090928D01*
X131352857Y-95390928D01*
X131310000Y-95476642D01*
X131267142Y-95519500D01*
X131181428Y-95562357D01*
X131095714Y-95562357D01*
X131010000Y-95519500D01*
X130967142Y-95476642D01*
X130924285Y-95390928D01*
X130924285Y-95090928D01*
X115298571Y-94748071D02*
X115255714Y-94705214D01*
X115212857Y-94576642D01*
X115212857Y-94490928D01*
X115255714Y-94362357D01*
X115341428Y-94276642D01*
X115427142Y-94233785D01*
X115598571Y-94190928D01*
X115727142Y-94190928D01*
X115898571Y-94233785D01*
X115984285Y-94276642D01*
X116070000Y-94362357D01*
X116112857Y-94490928D01*
X116112857Y-94576642D01*
X116070000Y-94705214D01*
X116027142Y-94748071D01*
X116112857Y-95305214D02*
X116112857Y-95476642D01*
X116070000Y-95562357D01*
X115984285Y-95648071D01*
X115812857Y-95690928D01*
X115512857Y-95690928D01*
X115341428Y-95648071D01*
X115255714Y-95562357D01*
X115212857Y-95476642D01*
X115212857Y-95305214D01*
X115255714Y-95219500D01*
X115341428Y-95133785D01*
X115512857Y-95090928D01*
X115812857Y-95090928D01*
X115984285Y-95133785D01*
X116070000Y-95219500D01*
X116112857Y-95305214D01*
X115212857Y-96076642D02*
X116112857Y-96076642D01*
X115470000Y-96376642D01*
X116112857Y-96676642D01*
X115212857Y-96676642D01*
X164072857Y-94619500D02*
X163472857Y-94619500D01*
X164415714Y-94405214D02*
X163772857Y-94190928D01*
X163772857Y-94748071D01*
X163730000Y-95048071D02*
X163730000Y-95476642D01*
X163472857Y-94962357D02*
X164372857Y-95262357D01*
X163472857Y-95562357D01*
X132992857Y-94233785D02*
X133892857Y-94233785D01*
X132992857Y-94748071D01*
X133892857Y-94748071D01*
X133078571Y-95690928D02*
X133035714Y-95648071D01*
X132992857Y-95519500D01*
X132992857Y-95433785D01*
X133035714Y-95305214D01*
X133121428Y-95219500D01*
X133207142Y-95176642D01*
X133378571Y-95133785D01*
X133507142Y-95133785D01*
X133678571Y-95176642D01*
X133764285Y-95219500D01*
X133850000Y-95305214D01*
X133892857Y-95433785D01*
X133892857Y-95519500D01*
X133850000Y-95648071D01*
X133807142Y-95690928D01*
X136347142Y-94190928D02*
X136390000Y-94233785D01*
X136432857Y-94319500D01*
X136432857Y-94533785D01*
X136390000Y-94619500D01*
X136347142Y-94662357D01*
X136261428Y-94705214D01*
X136175714Y-94705214D01*
X136047142Y-94662357D01*
X135532857Y-94148071D01*
X135532857Y-94705214D01*
X136390000Y-95562357D02*
X136432857Y-95476642D01*
X136432857Y-95348071D01*
X136390000Y-95219500D01*
X136304285Y-95133785D01*
X136218571Y-95090928D01*
X136047142Y-95048071D01*
X135918571Y-95048071D01*
X135747142Y-95090928D01*
X135661428Y-95133785D01*
X135575714Y-95219500D01*
X135532857Y-95348071D01*
X135532857Y-95433785D01*
X135575714Y-95562357D01*
X135618571Y-95605214D01*
X135918571Y-95605214D01*
X135918571Y-95433785D01*
X122832857Y-94705214D02*
X122832857Y-94190928D01*
X122832857Y-94448071D02*
X123732857Y-94448071D01*
X123604285Y-94362357D01*
X123518571Y-94276642D01*
X123475714Y-94190928D01*
X123690000Y-95562357D02*
X123732857Y-95476642D01*
X123732857Y-95348071D01*
X123690000Y-95219500D01*
X123604285Y-95133785D01*
X123518571Y-95090928D01*
X123347142Y-95048071D01*
X123218571Y-95048071D01*
X123047142Y-95090928D01*
X122961428Y-95133785D01*
X122875714Y-95219500D01*
X122832857Y-95348071D01*
X122832857Y-95433785D01*
X122875714Y-95562357D01*
X122918571Y-95605214D01*
X123218571Y-95605214D01*
X123218571Y-95433785D01*
X141427142Y-94190928D02*
X141470000Y-94233785D01*
X141512857Y-94319500D01*
X141512857Y-94533785D01*
X141470000Y-94619500D01*
X141427142Y-94662357D01*
X141341428Y-94705214D01*
X141255714Y-94705214D01*
X141127142Y-94662357D01*
X140612857Y-94148071D01*
X140612857Y-94705214D01*
X140870000Y-95048071D02*
X140870000Y-95476642D01*
X140612857Y-94962357D02*
X141512857Y-95262357D01*
X140612857Y-95562357D01*
X115334285Y-92691714D02*
X115334285Y-93358380D01*
X115096190Y-92310761D02*
X114858095Y-93025047D01*
X115477142Y-93025047D01*
X116048571Y-92358380D02*
X116143809Y-92358380D01*
X116239047Y-92406000D01*
X116286666Y-92453619D01*
X116334285Y-92548857D01*
X116381904Y-92739333D01*
X116381904Y-92977428D01*
X116334285Y-93167904D01*
X116286666Y-93263142D01*
X116239047Y-93310761D01*
X116143809Y-93358380D01*
X116048571Y-93358380D01*
X115953333Y-93310761D01*
X115905714Y-93263142D01*
X115858095Y-93167904D01*
X115810476Y-92977428D01*
X115810476Y-92739333D01*
X115858095Y-92548857D01*
X115905714Y-92453619D01*
X115953333Y-92406000D01*
X116048571Y-92358380D01*
X117350476Y-92358380D02*
X117969523Y-92358380D01*
X117636190Y-92739333D01*
X117779047Y-92739333D01*
X117874285Y-92786952D01*
X117921904Y-92834571D01*
X117969523Y-92929809D01*
X117969523Y-93167904D01*
X117921904Y-93263142D01*
X117874285Y-93310761D01*
X117779047Y-93358380D01*
X117493333Y-93358380D01*
X117398095Y-93310761D01*
X117350476Y-93263142D01*
X118445714Y-93358380D02*
X118636190Y-93358380D01*
X118731428Y-93310761D01*
X118779047Y-93263142D01*
X118874285Y-93120285D01*
X118921904Y-92929809D01*
X118921904Y-92548857D01*
X118874285Y-92453619D01*
X118826666Y-92406000D01*
X118731428Y-92358380D01*
X118540952Y-92358380D01*
X118445714Y-92406000D01*
X118398095Y-92453619D01*
X118350476Y-92548857D01*
X118350476Y-92786952D01*
X118398095Y-92882190D01*
X118445714Y-92929809D01*
X118540952Y-92977428D01*
X118731428Y-92977428D01*
X118826666Y-92929809D01*
X118874285Y-92882190D01*
X118921904Y-92786952D01*
X151672857Y-94148071D02*
X151672857Y-94705214D01*
X151330000Y-94405214D01*
X151330000Y-94533785D01*
X151287142Y-94619500D01*
X151244285Y-94662357D01*
X151158571Y-94705214D01*
X150944285Y-94705214D01*
X150858571Y-94662357D01*
X150815714Y-94619500D01*
X150772857Y-94533785D01*
X150772857Y-94276642D01*
X150815714Y-94190928D01*
X150858571Y-94148071D01*
X151244285Y-95390928D02*
X151244285Y-95090928D01*
X150772857Y-95090928D02*
X151672857Y-95090928D01*
X151672857Y-95519500D01*
X122430476Y-92358380D02*
X123049523Y-92358380D01*
X122716190Y-92739333D01*
X122859047Y-92739333D01*
X122954285Y-92786952D01*
X123001904Y-92834571D01*
X123049523Y-92929809D01*
X123049523Y-93167904D01*
X123001904Y-93263142D01*
X122954285Y-93310761D01*
X122859047Y-93358380D01*
X122573333Y-93358380D01*
X122478095Y-93310761D01*
X122430476Y-93263142D01*
X123382857Y-92358380D02*
X124049523Y-92358380D01*
X123620952Y-93358380D01*
X119890476Y-92358380D02*
X120509523Y-92358380D01*
X120176190Y-92739333D01*
X120319047Y-92739333D01*
X120414285Y-92786952D01*
X120461904Y-92834571D01*
X120509523Y-92929809D01*
X120509523Y-93167904D01*
X120461904Y-93263142D01*
X120414285Y-93310761D01*
X120319047Y-93358380D01*
X120033333Y-93358380D01*
X119938095Y-93310761D01*
X119890476Y-93263142D01*
X121080952Y-92786952D02*
X120985714Y-92739333D01*
X120938095Y-92691714D01*
X120890476Y-92596476D01*
X120890476Y-92548857D01*
X120938095Y-92453619D01*
X120985714Y-92406000D01*
X121080952Y-92358380D01*
X121271428Y-92358380D01*
X121366666Y-92406000D01*
X121414285Y-92453619D01*
X121461904Y-92548857D01*
X121461904Y-92596476D01*
X121414285Y-92691714D01*
X121366666Y-92739333D01*
X121271428Y-92786952D01*
X121080952Y-92786952D01*
X120985714Y-92834571D01*
X120938095Y-92882190D01*
X120890476Y-92977428D01*
X120890476Y-93167904D01*
X120938095Y-93263142D01*
X120985714Y-93310761D01*
X121080952Y-93358380D01*
X121271428Y-93358380D01*
X121366666Y-93310761D01*
X121414285Y-93263142D01*
X121461904Y-93167904D01*
X121461904Y-92977428D01*
X121414285Y-92882190D01*
X121366666Y-92834571D01*
X121271428Y-92786952D01*
X124970476Y-92358380D02*
X125589523Y-92358380D01*
X125256190Y-92739333D01*
X125399047Y-92739333D01*
X125494285Y-92786952D01*
X125541904Y-92834571D01*
X125589523Y-92929809D01*
X125589523Y-93167904D01*
X125541904Y-93263142D01*
X125494285Y-93310761D01*
X125399047Y-93358380D01*
X125113333Y-93358380D01*
X125018095Y-93310761D01*
X124970476Y-93263142D01*
X126446666Y-92358380D02*
X126256190Y-92358380D01*
X126160952Y-92406000D01*
X126113333Y-92453619D01*
X126018095Y-92596476D01*
X125970476Y-92786952D01*
X125970476Y-93167904D01*
X126018095Y-93263142D01*
X126065714Y-93310761D01*
X126160952Y-93358380D01*
X126351428Y-93358380D01*
X126446666Y-93310761D01*
X126494285Y-93263142D01*
X126541904Y-93167904D01*
X126541904Y-92929809D01*
X126494285Y-92834571D01*
X126446666Y-92786952D01*
X126351428Y-92739333D01*
X126160952Y-92739333D01*
X126065714Y-92786952D01*
X126018095Y-92834571D01*
X125970476Y-92929809D01*
X127510476Y-92358380D02*
X128129523Y-92358380D01*
X127796190Y-92739333D01*
X127939047Y-92739333D01*
X128034285Y-92786952D01*
X128081904Y-92834571D01*
X128129523Y-92929809D01*
X128129523Y-93167904D01*
X128081904Y-93263142D01*
X128034285Y-93310761D01*
X127939047Y-93358380D01*
X127653333Y-93358380D01*
X127558095Y-93310761D01*
X127510476Y-93263142D01*
X129034285Y-92358380D02*
X128558095Y-92358380D01*
X128510476Y-92834571D01*
X128558095Y-92786952D01*
X128653333Y-92739333D01*
X128891428Y-92739333D01*
X128986666Y-92786952D01*
X129034285Y-92834571D01*
X129081904Y-92929809D01*
X129081904Y-93167904D01*
X129034285Y-93263142D01*
X128986666Y-93310761D01*
X128891428Y-93358380D01*
X128653333Y-93358380D01*
X128558095Y-93310761D01*
X128510476Y-93263142D01*
X143967142Y-94190928D02*
X144010000Y-94233785D01*
X144052857Y-94319500D01*
X144052857Y-94533785D01*
X144010000Y-94619500D01*
X143967142Y-94662357D01*
X143881428Y-94705214D01*
X143795714Y-94705214D01*
X143667142Y-94662357D01*
X143152857Y-94148071D01*
X143152857Y-94705214D01*
X143624285Y-95390928D02*
X143581428Y-95519500D01*
X143538571Y-95562357D01*
X143452857Y-95605214D01*
X143324285Y-95605214D01*
X143238571Y-95562357D01*
X143195714Y-95519500D01*
X143152857Y-95433785D01*
X143152857Y-95090928D01*
X144052857Y-95090928D01*
X144052857Y-95390928D01*
X144010000Y-95476642D01*
X143967142Y-95519500D01*
X143881428Y-95562357D01*
X143795714Y-95562357D01*
X143710000Y-95519500D01*
X143667142Y-95476642D01*
X143624285Y-95390928D01*
X143624285Y-95090928D01*
X117752857Y-94233785D02*
X118652857Y-94233785D01*
X117752857Y-94748071D01*
X118652857Y-94748071D01*
X117838571Y-95690928D02*
X117795714Y-95648071D01*
X117752857Y-95519500D01*
X117752857Y-95433785D01*
X117795714Y-95305214D01*
X117881428Y-95219500D01*
X117967142Y-95176642D01*
X118138571Y-95133785D01*
X118267142Y-95133785D01*
X118438571Y-95176642D01*
X118524285Y-95219500D01*
X118610000Y-95305214D01*
X118652857Y-95433785D01*
X118652857Y-95519500D01*
X118610000Y-95648071D01*
X118567142Y-95690928D01*
X158992857Y-94619500D02*
X158392857Y-94619500D01*
X159335714Y-94405214D02*
X158692857Y-94190928D01*
X158692857Y-94748071D01*
X159250000Y-95562357D02*
X159292857Y-95476642D01*
X159292857Y-95348071D01*
X159250000Y-95219500D01*
X159164285Y-95133785D01*
X159078571Y-95090928D01*
X158907142Y-95048071D01*
X158778571Y-95048071D01*
X158607142Y-95090928D01*
X158521428Y-95133785D01*
X158435714Y-95219500D01*
X158392857Y-95348071D01*
X158392857Y-95433785D01*
X158435714Y-95562357D01*
X158478571Y-95605214D01*
X158778571Y-95605214D01*
X158778571Y-95433785D01*
X154212857Y-94148071D02*
X154212857Y-94705214D01*
X153870000Y-94405214D01*
X153870000Y-94533785D01*
X153827142Y-94619500D01*
X153784285Y-94662357D01*
X153698571Y-94705214D01*
X153484285Y-94705214D01*
X153398571Y-94662357D01*
X153355714Y-94619500D01*
X153312857Y-94533785D01*
X153312857Y-94276642D01*
X153355714Y-94190928D01*
X153398571Y-94148071D01*
X153570000Y-95048071D02*
X153570000Y-95476642D01*
X153312857Y-94962357D02*
X154212857Y-95262357D01*
X153312857Y-95562357D01*
X149132857Y-94148071D02*
X149132857Y-94705214D01*
X148790000Y-94405214D01*
X148790000Y-94533785D01*
X148747142Y-94619500D01*
X148704285Y-94662357D01*
X148618571Y-94705214D01*
X148404285Y-94705214D01*
X148318571Y-94662357D01*
X148275714Y-94619500D01*
X148232857Y-94533785D01*
X148232857Y-94276642D01*
X148275714Y-94190928D01*
X148318571Y-94148071D01*
X149090000Y-95562357D02*
X149132857Y-95476642D01*
X149132857Y-95348071D01*
X149090000Y-95219500D01*
X149004285Y-95133785D01*
X148918571Y-95090928D01*
X148747142Y-95048071D01*
X148618571Y-95048071D01*
X148447142Y-95090928D01*
X148361428Y-95133785D01*
X148275714Y-95219500D01*
X148232857Y-95348071D01*
X148232857Y-95433785D01*
X148275714Y-95562357D01*
X148318571Y-95605214D01*
X148618571Y-95605214D01*
X148618571Y-95433785D01*
X127912857Y-94705214D02*
X127912857Y-94190928D01*
X127912857Y-94448071D02*
X128812857Y-94448071D01*
X128684285Y-94362357D01*
X128598571Y-94276642D01*
X128555714Y-94190928D01*
X128170000Y-95048071D02*
X128170000Y-95476642D01*
X127912857Y-94962357D02*
X128812857Y-95262357D01*
X127912857Y-95562357D01*
X125372857Y-94705214D02*
X125372857Y-94190928D01*
X125372857Y-94448071D02*
X126272857Y-94448071D01*
X126144285Y-94362357D01*
X126058571Y-94276642D01*
X126015714Y-94190928D01*
X125844285Y-95390928D02*
X125844285Y-95090928D01*
X125372857Y-95090928D02*
X126272857Y-95090928D01*
X126272857Y-95519500D01*
X120292857Y-94233785D02*
X121192857Y-94233785D01*
X120292857Y-94748071D01*
X121192857Y-94748071D01*
X120378571Y-95690928D02*
X120335714Y-95648071D01*
X120292857Y-95519500D01*
X120292857Y-95433785D01*
X120335714Y-95305214D01*
X120421428Y-95219500D01*
X120507142Y-95176642D01*
X120678571Y-95133785D01*
X120807142Y-95133785D01*
X120978571Y-95176642D01*
X121064285Y-95219500D01*
X121150000Y-95305214D01*
X121192857Y-95433785D01*
X121192857Y-95519500D01*
X121150000Y-95648071D01*
X121107142Y-95690928D01*
X147878095Y-92453619D02*
X147925714Y-92406000D01*
X148020952Y-92358380D01*
X148259047Y-92358380D01*
X148354285Y-92406000D01*
X148401904Y-92453619D01*
X148449523Y-92548857D01*
X148449523Y-92644095D01*
X148401904Y-92786952D01*
X147830476Y-93358380D01*
X148449523Y-93358380D01*
X148782857Y-92358380D02*
X149449523Y-92358380D01*
X149020952Y-93358380D01*
X155498095Y-92453619D02*
X155545714Y-92406000D01*
X155640952Y-92358380D01*
X155879047Y-92358380D01*
X155974285Y-92406000D01*
X156021904Y-92453619D01*
X156069523Y-92548857D01*
X156069523Y-92644095D01*
X156021904Y-92786952D01*
X155450476Y-93358380D01*
X156069523Y-93358380D01*
X156926666Y-92691714D02*
X156926666Y-93358380D01*
X156688571Y-92310761D02*
X156450476Y-93025047D01*
X157069523Y-93025047D01*
X130050476Y-92358380D02*
X130669523Y-92358380D01*
X130336190Y-92739333D01*
X130479047Y-92739333D01*
X130574285Y-92786952D01*
X130621904Y-92834571D01*
X130669523Y-92929809D01*
X130669523Y-93167904D01*
X130621904Y-93263142D01*
X130574285Y-93310761D01*
X130479047Y-93358380D01*
X130193333Y-93358380D01*
X130098095Y-93310761D01*
X130050476Y-93263142D01*
X131526666Y-92691714D02*
X131526666Y-93358380D01*
X131288571Y-92310761D02*
X131050476Y-93025047D01*
X131669523Y-93025047D01*
X150418095Y-92453619D02*
X150465714Y-92406000D01*
X150560952Y-92358380D01*
X150799047Y-92358380D01*
X150894285Y-92406000D01*
X150941904Y-92453619D01*
X150989523Y-92548857D01*
X150989523Y-92644095D01*
X150941904Y-92786952D01*
X150370476Y-93358380D01*
X150989523Y-93358380D01*
X151846666Y-92358380D02*
X151656190Y-92358380D01*
X151560952Y-92406000D01*
X151513333Y-92453619D01*
X151418095Y-92596476D01*
X151370476Y-92786952D01*
X151370476Y-93167904D01*
X151418095Y-93263142D01*
X151465714Y-93310761D01*
X151560952Y-93358380D01*
X151751428Y-93358380D01*
X151846666Y-93310761D01*
X151894285Y-93263142D01*
X151941904Y-93167904D01*
X151941904Y-92929809D01*
X151894285Y-92834571D01*
X151846666Y-92786952D01*
X151751428Y-92739333D01*
X151560952Y-92739333D01*
X151465714Y-92786952D01*
X151418095Y-92834571D01*
X151370476Y-92929809D01*
X145338095Y-92453619D02*
X145385714Y-92406000D01*
X145480952Y-92358380D01*
X145719047Y-92358380D01*
X145814285Y-92406000D01*
X145861904Y-92453619D01*
X145909523Y-92548857D01*
X145909523Y-92644095D01*
X145861904Y-92786952D01*
X145290476Y-93358380D01*
X145909523Y-93358380D01*
X146480952Y-92786952D02*
X146385714Y-92739333D01*
X146338095Y-92691714D01*
X146290476Y-92596476D01*
X146290476Y-92548857D01*
X146338095Y-92453619D01*
X146385714Y-92406000D01*
X146480952Y-92358380D01*
X146671428Y-92358380D01*
X146766666Y-92406000D01*
X146814285Y-92453619D01*
X146861904Y-92548857D01*
X146861904Y-92596476D01*
X146814285Y-92691714D01*
X146766666Y-92739333D01*
X146671428Y-92786952D01*
X146480952Y-92786952D01*
X146385714Y-92834571D01*
X146338095Y-92882190D01*
X146290476Y-92977428D01*
X146290476Y-93167904D01*
X146338095Y-93263142D01*
X146385714Y-93310761D01*
X146480952Y-93358380D01*
X146671428Y-93358380D01*
X146766666Y-93310761D01*
X146814285Y-93263142D01*
X146861904Y-93167904D01*
X146861904Y-92977428D01*
X146814285Y-92882190D01*
X146766666Y-92834571D01*
X146671428Y-92786952D01*
X132590476Y-92358380D02*
X133209523Y-92358380D01*
X132876190Y-92739333D01*
X133019047Y-92739333D01*
X133114285Y-92786952D01*
X133161904Y-92834571D01*
X133209523Y-92929809D01*
X133209523Y-93167904D01*
X133161904Y-93263142D01*
X133114285Y-93310761D01*
X133019047Y-93358380D01*
X132733333Y-93358380D01*
X132638095Y-93310761D01*
X132590476Y-93263142D01*
X133542857Y-92358380D02*
X134161904Y-92358380D01*
X133828571Y-92739333D01*
X133971428Y-92739333D01*
X134066666Y-92786952D01*
X134114285Y-92834571D01*
X134161904Y-92929809D01*
X134161904Y-93167904D01*
X134114285Y-93263142D01*
X134066666Y-93310761D01*
X133971428Y-93358380D01*
X133685714Y-93358380D01*
X133590476Y-93310761D01*
X133542857Y-93263142D01*
X135130476Y-92358380D02*
X135749523Y-92358380D01*
X135416190Y-92739333D01*
X135559047Y-92739333D01*
X135654285Y-92786952D01*
X135701904Y-92834571D01*
X135749523Y-92929809D01*
X135749523Y-93167904D01*
X135701904Y-93263142D01*
X135654285Y-93310761D01*
X135559047Y-93358380D01*
X135273333Y-93358380D01*
X135178095Y-93310761D01*
X135130476Y-93263142D01*
X136130476Y-92453619D02*
X136178095Y-92406000D01*
X136273333Y-92358380D01*
X136511428Y-92358380D01*
X136606666Y-92406000D01*
X136654285Y-92453619D01*
X136701904Y-92548857D01*
X136701904Y-92644095D01*
X136654285Y-92786952D01*
X136082857Y-93358380D01*
X136701904Y-93358380D01*
X160578095Y-92453619D02*
X160625714Y-92406000D01*
X160720952Y-92358380D01*
X160959047Y-92358380D01*
X161054285Y-92406000D01*
X161101904Y-92453619D01*
X161149523Y-92548857D01*
X161149523Y-92644095D01*
X161101904Y-92786952D01*
X160530476Y-93358380D01*
X161149523Y-93358380D01*
X161530476Y-92453619D02*
X161578095Y-92406000D01*
X161673333Y-92358380D01*
X161911428Y-92358380D01*
X162006666Y-92406000D01*
X162054285Y-92453619D01*
X162101904Y-92548857D01*
X162101904Y-92644095D01*
X162054285Y-92786952D01*
X161482857Y-93358380D01*
X162101904Y-93358380D01*
X163118095Y-92453619D02*
X163165714Y-92406000D01*
X163260952Y-92358380D01*
X163499047Y-92358380D01*
X163594285Y-92406000D01*
X163641904Y-92453619D01*
X163689523Y-92548857D01*
X163689523Y-92644095D01*
X163641904Y-92786952D01*
X163070476Y-93358380D01*
X163689523Y-93358380D01*
X164641904Y-93358380D02*
X164070476Y-93358380D01*
X164356190Y-93358380D02*
X164356190Y-92358380D01*
X164260952Y-92501238D01*
X164165714Y-92596476D01*
X164070476Y-92644095D01*
X152958095Y-92453619D02*
X153005714Y-92406000D01*
X153100952Y-92358380D01*
X153339047Y-92358380D01*
X153434285Y-92406000D01*
X153481904Y-92453619D01*
X153529523Y-92548857D01*
X153529523Y-92644095D01*
X153481904Y-92786952D01*
X152910476Y-93358380D01*
X153529523Y-93358380D01*
X154434285Y-92358380D02*
X153958095Y-92358380D01*
X153910476Y-92834571D01*
X153958095Y-92786952D01*
X154053333Y-92739333D01*
X154291428Y-92739333D01*
X154386666Y-92786952D01*
X154434285Y-92834571D01*
X154481904Y-92929809D01*
X154481904Y-93167904D01*
X154434285Y-93263142D01*
X154386666Y-93310761D01*
X154291428Y-93358380D01*
X154053333Y-93358380D01*
X153958095Y-93310761D01*
X153910476Y-93263142D01*
X142798095Y-92453619D02*
X142845714Y-92406000D01*
X142940952Y-92358380D01*
X143179047Y-92358380D01*
X143274285Y-92406000D01*
X143321904Y-92453619D01*
X143369523Y-92548857D01*
X143369523Y-92644095D01*
X143321904Y-92786952D01*
X142750476Y-93358380D01*
X143369523Y-93358380D01*
X143845714Y-93358380D02*
X144036190Y-93358380D01*
X144131428Y-93310761D01*
X144179047Y-93263142D01*
X144274285Y-93120285D01*
X144321904Y-92929809D01*
X144321904Y-92548857D01*
X144274285Y-92453619D01*
X144226666Y-92406000D01*
X144131428Y-92358380D01*
X143940952Y-92358380D01*
X143845714Y-92406000D01*
X143798095Y-92453619D01*
X143750476Y-92548857D01*
X143750476Y-92786952D01*
X143798095Y-92882190D01*
X143845714Y-92929809D01*
X143940952Y-92977428D01*
X144131428Y-92977428D01*
X144226666Y-92929809D01*
X144274285Y-92882190D01*
X144321904Y-92786952D01*
X137670476Y-92358380D02*
X138289523Y-92358380D01*
X137956190Y-92739333D01*
X138099047Y-92739333D01*
X138194285Y-92786952D01*
X138241904Y-92834571D01*
X138289523Y-92929809D01*
X138289523Y-93167904D01*
X138241904Y-93263142D01*
X138194285Y-93310761D01*
X138099047Y-93358380D01*
X137813333Y-93358380D01*
X137718095Y-93310761D01*
X137670476Y-93263142D01*
X139241904Y-93358380D02*
X138670476Y-93358380D01*
X138956190Y-93358380D02*
X138956190Y-92358380D01*
X138860952Y-92501238D01*
X138765714Y-92596476D01*
X138670476Y-92644095D01*
X158038095Y-92453619D02*
X158085714Y-92406000D01*
X158180952Y-92358380D01*
X158419047Y-92358380D01*
X158514285Y-92406000D01*
X158561904Y-92453619D01*
X158609523Y-92548857D01*
X158609523Y-92644095D01*
X158561904Y-92786952D01*
X157990476Y-93358380D01*
X158609523Y-93358380D01*
X158942857Y-92358380D02*
X159561904Y-92358380D01*
X159228571Y-92739333D01*
X159371428Y-92739333D01*
X159466666Y-92786952D01*
X159514285Y-92834571D01*
X159561904Y-92929809D01*
X159561904Y-93167904D01*
X159514285Y-93263142D01*
X159466666Y-93310761D01*
X159371428Y-93358380D01*
X159085714Y-93358380D01*
X158990476Y-93310761D01*
X158942857Y-93263142D01*
X140210476Y-92358380D02*
X140829523Y-92358380D01*
X140496190Y-92739333D01*
X140639047Y-92739333D01*
X140734285Y-92786952D01*
X140781904Y-92834571D01*
X140829523Y-92929809D01*
X140829523Y-93167904D01*
X140781904Y-93263142D01*
X140734285Y-93310761D01*
X140639047Y-93358380D01*
X140353333Y-93358380D01*
X140258095Y-93310761D01*
X140210476Y-93263142D01*
X141448571Y-92358380D02*
X141543809Y-92358380D01*
X141639047Y-92406000D01*
X141686666Y-92453619D01*
X141734285Y-92548857D01*
X141781904Y-92739333D01*
X141781904Y-92977428D01*
X141734285Y-93167904D01*
X141686666Y-93263142D01*
X141639047Y-93310761D01*
X141543809Y-93358380D01*
X141448571Y-93358380D01*
X141353333Y-93310761D01*
X141305714Y-93263142D01*
X141258095Y-93167904D01*
X141210476Y-92977428D01*
X141210476Y-92739333D01*
X141258095Y-92548857D01*
X141305714Y-92453619D01*
X141353333Y-92406000D01*
X141448571Y-92358380D01*
X92005714Y-120416380D02*
X91434285Y-120416380D01*
X91720000Y-120416380D02*
X91720000Y-119416380D01*
X91624761Y-119559238D01*
X91529523Y-119654476D01*
X91434285Y-119702095D01*
X93974285Y-119511619D02*
X94021904Y-119464000D01*
X94117142Y-119416380D01*
X94355238Y-119416380D01*
X94450476Y-119464000D01*
X94498095Y-119511619D01*
X94545714Y-119606857D01*
X94545714Y-119702095D01*
X94498095Y-119844952D01*
X93926666Y-120416380D01*
X94545714Y-120416380D01*
X96466666Y-119416380D02*
X97085714Y-119416380D01*
X96752380Y-119797333D01*
X96895238Y-119797333D01*
X96990476Y-119844952D01*
X97038095Y-119892571D01*
X97085714Y-119987809D01*
X97085714Y-120225904D01*
X97038095Y-120321142D01*
X96990476Y-120368761D01*
X96895238Y-120416380D01*
X96609523Y-120416380D01*
X96514285Y-120368761D01*
X96466666Y-120321142D01*
X99530476Y-119749714D02*
X99530476Y-120416380D01*
X99292380Y-119368761D02*
X99054285Y-120083047D01*
X99673333Y-120083047D01*
X102118095Y-119416380D02*
X101641904Y-119416380D01*
X101594285Y-119892571D01*
X101641904Y-119844952D01*
X101737142Y-119797333D01*
X101975238Y-119797333D01*
X102070476Y-119844952D01*
X102118095Y-119892571D01*
X102165714Y-119987809D01*
X102165714Y-120225904D01*
X102118095Y-120321142D01*
X102070476Y-120368761D01*
X101975238Y-120416380D01*
X101737142Y-120416380D01*
X101641904Y-120368761D01*
X101594285Y-120321142D01*
X104610476Y-119416380D02*
X104420000Y-119416380D01*
X104324761Y-119464000D01*
X104277142Y-119511619D01*
X104181904Y-119654476D01*
X104134285Y-119844952D01*
X104134285Y-120225904D01*
X104181904Y-120321142D01*
X104229523Y-120368761D01*
X104324761Y-120416380D01*
X104515238Y-120416380D01*
X104610476Y-120368761D01*
X104658095Y-120321142D01*
X104705714Y-120225904D01*
X104705714Y-119987809D01*
X104658095Y-119892571D01*
X104610476Y-119844952D01*
X104515238Y-119797333D01*
X104324761Y-119797333D01*
X104229523Y-119844952D01*
X104181904Y-119892571D01*
X104134285Y-119987809D01*
X106626666Y-119416380D02*
X107293333Y-119416380D01*
X106864761Y-120416380D01*
X109404761Y-119844952D02*
X109309523Y-119797333D01*
X109261904Y-119749714D01*
X109214285Y-119654476D01*
X109214285Y-119606857D01*
X109261904Y-119511619D01*
X109309523Y-119464000D01*
X109404761Y-119416380D01*
X109595238Y-119416380D01*
X109690476Y-119464000D01*
X109738095Y-119511619D01*
X109785714Y-119606857D01*
X109785714Y-119654476D01*
X109738095Y-119749714D01*
X109690476Y-119797333D01*
X109595238Y-119844952D01*
X109404761Y-119844952D01*
X109309523Y-119892571D01*
X109261904Y-119940190D01*
X109214285Y-120035428D01*
X109214285Y-120225904D01*
X109261904Y-120321142D01*
X109309523Y-120368761D01*
X109404761Y-120416380D01*
X109595238Y-120416380D01*
X109690476Y-120368761D01*
X109738095Y-120321142D01*
X109785714Y-120225904D01*
X109785714Y-120035428D01*
X109738095Y-119940190D01*
X109690476Y-119892571D01*
X109595238Y-119844952D01*
X111849523Y-120416380D02*
X112040000Y-120416380D01*
X112135238Y-120368761D01*
X112182857Y-120321142D01*
X112278095Y-120178285D01*
X112325714Y-119987809D01*
X112325714Y-119606857D01*
X112278095Y-119511619D01*
X112230476Y-119464000D01*
X112135238Y-119416380D01*
X111944761Y-119416380D01*
X111849523Y-119464000D01*
X111801904Y-119511619D01*
X111754285Y-119606857D01*
X111754285Y-119844952D01*
X111801904Y-119940190D01*
X111849523Y-119987809D01*
X111944761Y-120035428D01*
X112135238Y-120035428D01*
X112230476Y-119987809D01*
X112278095Y-119940190D01*
X112325714Y-119844952D01*
X114389523Y-120416380D02*
X113818095Y-120416380D01*
X114103809Y-120416380D02*
X114103809Y-119416380D01*
X114008571Y-119559238D01*
X113913333Y-119654476D01*
X113818095Y-119702095D01*
X115008571Y-119416380D02*
X115103809Y-119416380D01*
X115199047Y-119464000D01*
X115246666Y-119511619D01*
X115294285Y-119606857D01*
X115341904Y-119797333D01*
X115341904Y-120035428D01*
X115294285Y-120225904D01*
X115246666Y-120321142D01*
X115199047Y-120368761D01*
X115103809Y-120416380D01*
X115008571Y-120416380D01*
X114913333Y-120368761D01*
X114865714Y-120321142D01*
X114818095Y-120225904D01*
X114770476Y-120035428D01*
X114770476Y-119797333D01*
X114818095Y-119606857D01*
X114865714Y-119511619D01*
X114913333Y-119464000D01*
X115008571Y-119416380D01*
X116929523Y-120416380D02*
X116358095Y-120416380D01*
X116643809Y-120416380D02*
X116643809Y-119416380D01*
X116548571Y-119559238D01*
X116453333Y-119654476D01*
X116358095Y-119702095D01*
X117881904Y-120416380D02*
X117310476Y-120416380D01*
X117596190Y-120416380D02*
X117596190Y-119416380D01*
X117500952Y-119559238D01*
X117405714Y-119654476D01*
X117310476Y-119702095D01*
X119469523Y-120416380D02*
X118898095Y-120416380D01*
X119183809Y-120416380D02*
X119183809Y-119416380D01*
X119088571Y-119559238D01*
X118993333Y-119654476D01*
X118898095Y-119702095D01*
X119850476Y-119511619D02*
X119898095Y-119464000D01*
X119993333Y-119416380D01*
X120231428Y-119416380D01*
X120326666Y-119464000D01*
X120374285Y-119511619D01*
X120421904Y-119606857D01*
X120421904Y-119702095D01*
X120374285Y-119844952D01*
X119802857Y-120416380D01*
X120421904Y-120416380D01*
X122009523Y-120416380D02*
X121438095Y-120416380D01*
X121723809Y-120416380D02*
X121723809Y-119416380D01*
X121628571Y-119559238D01*
X121533333Y-119654476D01*
X121438095Y-119702095D01*
X122342857Y-119416380D02*
X122961904Y-119416380D01*
X122628571Y-119797333D01*
X122771428Y-119797333D01*
X122866666Y-119844952D01*
X122914285Y-119892571D01*
X122961904Y-119987809D01*
X122961904Y-120225904D01*
X122914285Y-120321142D01*
X122866666Y-120368761D01*
X122771428Y-120416380D01*
X122485714Y-120416380D01*
X122390476Y-120368761D01*
X122342857Y-120321142D01*
X124549523Y-120416380D02*
X123978095Y-120416380D01*
X124263809Y-120416380D02*
X124263809Y-119416380D01*
X124168571Y-119559238D01*
X124073333Y-119654476D01*
X123978095Y-119702095D01*
X125406666Y-119749714D02*
X125406666Y-120416380D01*
X125168571Y-119368761D02*
X124930476Y-120083047D01*
X125549523Y-120083047D01*
X127089523Y-120416380D02*
X126518095Y-120416380D01*
X126803809Y-120416380D02*
X126803809Y-119416380D01*
X126708571Y-119559238D01*
X126613333Y-119654476D01*
X126518095Y-119702095D01*
X127994285Y-119416380D02*
X127518095Y-119416380D01*
X127470476Y-119892571D01*
X127518095Y-119844952D01*
X127613333Y-119797333D01*
X127851428Y-119797333D01*
X127946666Y-119844952D01*
X127994285Y-119892571D01*
X128041904Y-119987809D01*
X128041904Y-120225904D01*
X127994285Y-120321142D01*
X127946666Y-120368761D01*
X127851428Y-120416380D01*
X127613333Y-120416380D01*
X127518095Y-120368761D01*
X127470476Y-120321142D01*
X129629523Y-120416380D02*
X129058095Y-120416380D01*
X129343809Y-120416380D02*
X129343809Y-119416380D01*
X129248571Y-119559238D01*
X129153333Y-119654476D01*
X129058095Y-119702095D01*
X130486666Y-119416380D02*
X130296190Y-119416380D01*
X130200952Y-119464000D01*
X130153333Y-119511619D01*
X130058095Y-119654476D01*
X130010476Y-119844952D01*
X130010476Y-120225904D01*
X130058095Y-120321142D01*
X130105714Y-120368761D01*
X130200952Y-120416380D01*
X130391428Y-120416380D01*
X130486666Y-120368761D01*
X130534285Y-120321142D01*
X130581904Y-120225904D01*
X130581904Y-119987809D01*
X130534285Y-119892571D01*
X130486666Y-119844952D01*
X130391428Y-119797333D01*
X130200952Y-119797333D01*
X130105714Y-119844952D01*
X130058095Y-119892571D01*
X130010476Y-119987809D01*
X132169523Y-120416380D02*
X131598095Y-120416380D01*
X131883809Y-120416380D02*
X131883809Y-119416380D01*
X131788571Y-119559238D01*
X131693333Y-119654476D01*
X131598095Y-119702095D01*
X132502857Y-119416380D02*
X133169523Y-119416380D01*
X132740952Y-120416380D01*
X134709523Y-120416380D02*
X134138095Y-120416380D01*
X134423809Y-120416380D02*
X134423809Y-119416380D01*
X134328571Y-119559238D01*
X134233333Y-119654476D01*
X134138095Y-119702095D01*
X135280952Y-119844952D02*
X135185714Y-119797333D01*
X135138095Y-119749714D01*
X135090476Y-119654476D01*
X135090476Y-119606857D01*
X135138095Y-119511619D01*
X135185714Y-119464000D01*
X135280952Y-119416380D01*
X135471428Y-119416380D01*
X135566666Y-119464000D01*
X135614285Y-119511619D01*
X135661904Y-119606857D01*
X135661904Y-119654476D01*
X135614285Y-119749714D01*
X135566666Y-119797333D01*
X135471428Y-119844952D01*
X135280952Y-119844952D01*
X135185714Y-119892571D01*
X135138095Y-119940190D01*
X135090476Y-120035428D01*
X135090476Y-120225904D01*
X135138095Y-120321142D01*
X135185714Y-120368761D01*
X135280952Y-120416380D01*
X135471428Y-120416380D01*
X135566666Y-120368761D01*
X135614285Y-120321142D01*
X135661904Y-120225904D01*
X135661904Y-120035428D01*
X135614285Y-119940190D01*
X135566666Y-119892571D01*
X135471428Y-119844952D01*
X144409523Y-120416380D02*
X143838095Y-120416380D01*
X144123809Y-120416380D02*
X144123809Y-119416380D01*
X144028571Y-119559238D01*
X143933333Y-119654476D01*
X143838095Y-119702095D01*
X144885714Y-120416380D02*
X145076190Y-120416380D01*
X145171428Y-120368761D01*
X145219047Y-120321142D01*
X145314285Y-120178285D01*
X145361904Y-119987809D01*
X145361904Y-119606857D01*
X145314285Y-119511619D01*
X145266666Y-119464000D01*
X145171428Y-119416380D01*
X144980952Y-119416380D01*
X144885714Y-119464000D01*
X144838095Y-119511619D01*
X144790476Y-119606857D01*
X144790476Y-119844952D01*
X144838095Y-119940190D01*
X144885714Y-119987809D01*
X144980952Y-120035428D01*
X145171428Y-120035428D01*
X145266666Y-119987809D01*
X145314285Y-119940190D01*
X145361904Y-119844952D01*
X146378095Y-119511619D02*
X146425714Y-119464000D01*
X146520952Y-119416380D01*
X146759047Y-119416380D01*
X146854285Y-119464000D01*
X146901904Y-119511619D01*
X146949523Y-119606857D01*
X146949523Y-119702095D01*
X146901904Y-119844952D01*
X146330476Y-120416380D01*
X146949523Y-120416380D01*
X147568571Y-119416380D02*
X147663809Y-119416380D01*
X147759047Y-119464000D01*
X147806666Y-119511619D01*
X147854285Y-119606857D01*
X147901904Y-119797333D01*
X147901904Y-120035428D01*
X147854285Y-120225904D01*
X147806666Y-120321142D01*
X147759047Y-120368761D01*
X147663809Y-120416380D01*
X147568571Y-120416380D01*
X147473333Y-120368761D01*
X147425714Y-120321142D01*
X147378095Y-120225904D01*
X147330476Y-120035428D01*
X147330476Y-119797333D01*
X147378095Y-119606857D01*
X147425714Y-119511619D01*
X147473333Y-119464000D01*
X147568571Y-119416380D01*
X148918095Y-119511619D02*
X148965714Y-119464000D01*
X149060952Y-119416380D01*
X149299047Y-119416380D01*
X149394285Y-119464000D01*
X149441904Y-119511619D01*
X149489523Y-119606857D01*
X149489523Y-119702095D01*
X149441904Y-119844952D01*
X148870476Y-120416380D01*
X149489523Y-120416380D01*
X150441904Y-120416380D02*
X149870476Y-120416380D01*
X150156190Y-120416380D02*
X150156190Y-119416380D01*
X150060952Y-119559238D01*
X149965714Y-119654476D01*
X149870476Y-119702095D01*
X151458095Y-119511619D02*
X151505714Y-119464000D01*
X151600952Y-119416380D01*
X151839047Y-119416380D01*
X151934285Y-119464000D01*
X151981904Y-119511619D01*
X152029523Y-119606857D01*
X152029523Y-119702095D01*
X151981904Y-119844952D01*
X151410476Y-120416380D01*
X152029523Y-120416380D01*
X152410476Y-119511619D02*
X152458095Y-119464000D01*
X152553333Y-119416380D01*
X152791428Y-119416380D01*
X152886666Y-119464000D01*
X152934285Y-119511619D01*
X152981904Y-119606857D01*
X152981904Y-119702095D01*
X152934285Y-119844952D01*
X152362857Y-120416380D01*
X152981904Y-120416380D01*
X153998095Y-119511619D02*
X154045714Y-119464000D01*
X154140952Y-119416380D01*
X154379047Y-119416380D01*
X154474285Y-119464000D01*
X154521904Y-119511619D01*
X154569523Y-119606857D01*
X154569523Y-119702095D01*
X154521904Y-119844952D01*
X153950476Y-120416380D01*
X154569523Y-120416380D01*
X154902857Y-119416380D02*
X155521904Y-119416380D01*
X155188571Y-119797333D01*
X155331428Y-119797333D01*
X155426666Y-119844952D01*
X155474285Y-119892571D01*
X155521904Y-119987809D01*
X155521904Y-120225904D01*
X155474285Y-120321142D01*
X155426666Y-120368761D01*
X155331428Y-120416380D01*
X155045714Y-120416380D01*
X154950476Y-120368761D01*
X154902857Y-120321142D01*
X156538095Y-119511619D02*
X156585714Y-119464000D01*
X156680952Y-119416380D01*
X156919047Y-119416380D01*
X157014285Y-119464000D01*
X157061904Y-119511619D01*
X157109523Y-119606857D01*
X157109523Y-119702095D01*
X157061904Y-119844952D01*
X156490476Y-120416380D01*
X157109523Y-120416380D01*
X157966666Y-119749714D02*
X157966666Y-120416380D01*
X157728571Y-119368761D02*
X157490476Y-120083047D01*
X158109523Y-120083047D01*
X159078095Y-119511619D02*
X159125714Y-119464000D01*
X159220952Y-119416380D01*
X159459047Y-119416380D01*
X159554285Y-119464000D01*
X159601904Y-119511619D01*
X159649523Y-119606857D01*
X159649523Y-119702095D01*
X159601904Y-119844952D01*
X159030476Y-120416380D01*
X159649523Y-120416380D01*
X160554285Y-119416380D02*
X160078095Y-119416380D01*
X160030476Y-119892571D01*
X160078095Y-119844952D01*
X160173333Y-119797333D01*
X160411428Y-119797333D01*
X160506666Y-119844952D01*
X160554285Y-119892571D01*
X160601904Y-119987809D01*
X160601904Y-120225904D01*
X160554285Y-120321142D01*
X160506666Y-120368761D01*
X160411428Y-120416380D01*
X160173333Y-120416380D01*
X160078095Y-120368761D01*
X160030476Y-120321142D01*
X161618095Y-119511619D02*
X161665714Y-119464000D01*
X161760952Y-119416380D01*
X161999047Y-119416380D01*
X162094285Y-119464000D01*
X162141904Y-119511619D01*
X162189523Y-119606857D01*
X162189523Y-119702095D01*
X162141904Y-119844952D01*
X161570476Y-120416380D01*
X162189523Y-120416380D01*
X163046666Y-119416380D02*
X162856190Y-119416380D01*
X162760952Y-119464000D01*
X162713333Y-119511619D01*
X162618095Y-119654476D01*
X162570476Y-119844952D01*
X162570476Y-120225904D01*
X162618095Y-120321142D01*
X162665714Y-120368761D01*
X162760952Y-120416380D01*
X162951428Y-120416380D01*
X163046666Y-120368761D01*
X163094285Y-120321142D01*
X163141904Y-120225904D01*
X163141904Y-119987809D01*
X163094285Y-119892571D01*
X163046666Y-119844952D01*
X162951428Y-119797333D01*
X162760952Y-119797333D01*
X162665714Y-119844952D01*
X162618095Y-119892571D01*
X162570476Y-119987809D01*
X164158095Y-119511619D02*
X164205714Y-119464000D01*
X164300952Y-119416380D01*
X164539047Y-119416380D01*
X164634285Y-119464000D01*
X164681904Y-119511619D01*
X164729523Y-119606857D01*
X164729523Y-119702095D01*
X164681904Y-119844952D01*
X164110476Y-120416380D01*
X164729523Y-120416380D01*
X165062857Y-119416380D02*
X165729523Y-119416380D01*
X165300952Y-120416380D01*
X166698095Y-119511619D02*
X166745714Y-119464000D01*
X166840952Y-119416380D01*
X167079047Y-119416380D01*
X167174285Y-119464000D01*
X167221904Y-119511619D01*
X167269523Y-119606857D01*
X167269523Y-119702095D01*
X167221904Y-119844952D01*
X166650476Y-120416380D01*
X167269523Y-120416380D01*
X167840952Y-119844952D02*
X167745714Y-119797333D01*
X167698095Y-119749714D01*
X167650476Y-119654476D01*
X167650476Y-119606857D01*
X167698095Y-119511619D01*
X167745714Y-119464000D01*
X167840952Y-119416380D01*
X168031428Y-119416380D01*
X168126666Y-119464000D01*
X168174285Y-119511619D01*
X168221904Y-119606857D01*
X168221904Y-119654476D01*
X168174285Y-119749714D01*
X168126666Y-119797333D01*
X168031428Y-119844952D01*
X167840952Y-119844952D01*
X167745714Y-119892571D01*
X167698095Y-119940190D01*
X167650476Y-120035428D01*
X167650476Y-120225904D01*
X167698095Y-120321142D01*
X167745714Y-120368761D01*
X167840952Y-120416380D01*
X168031428Y-120416380D01*
X168126666Y-120368761D01*
X168174285Y-120321142D01*
X168221904Y-120225904D01*
X168221904Y-120035428D01*
X168174285Y-119940190D01*
X168126666Y-119892571D01*
X168031428Y-119844952D01*
X169238095Y-119511619D02*
X169285714Y-119464000D01*
X169380952Y-119416380D01*
X169619047Y-119416380D01*
X169714285Y-119464000D01*
X169761904Y-119511619D01*
X169809523Y-119606857D01*
X169809523Y-119702095D01*
X169761904Y-119844952D01*
X169190476Y-120416380D01*
X169809523Y-120416380D01*
X170285714Y-120416380D02*
X170476190Y-120416380D01*
X170571428Y-120368761D01*
X170619047Y-120321142D01*
X170714285Y-120178285D01*
X170761904Y-119987809D01*
X170761904Y-119606857D01*
X170714285Y-119511619D01*
X170666666Y-119464000D01*
X170571428Y-119416380D01*
X170380952Y-119416380D01*
X170285714Y-119464000D01*
X170238095Y-119511619D01*
X170190476Y-119606857D01*
X170190476Y-119844952D01*
X170238095Y-119940190D01*
X170285714Y-119987809D01*
X170380952Y-120035428D01*
X170571428Y-120035428D01*
X170666666Y-119987809D01*
X170714285Y-119940190D01*
X170761904Y-119844952D01*
X171730476Y-119416380D02*
X172349523Y-119416380D01*
X172016190Y-119797333D01*
X172159047Y-119797333D01*
X172254285Y-119844952D01*
X172301904Y-119892571D01*
X172349523Y-119987809D01*
X172349523Y-120225904D01*
X172301904Y-120321142D01*
X172254285Y-120368761D01*
X172159047Y-120416380D01*
X171873333Y-120416380D01*
X171778095Y-120368761D01*
X171730476Y-120321142D01*
X172968571Y-119416380D02*
X173063809Y-119416380D01*
X173159047Y-119464000D01*
X173206666Y-119511619D01*
X173254285Y-119606857D01*
X173301904Y-119797333D01*
X173301904Y-120035428D01*
X173254285Y-120225904D01*
X173206666Y-120321142D01*
X173159047Y-120368761D01*
X173063809Y-120416380D01*
X172968571Y-120416380D01*
X172873333Y-120368761D01*
X172825714Y-120321142D01*
X172778095Y-120225904D01*
X172730476Y-120035428D01*
X172730476Y-119797333D01*
X172778095Y-119606857D01*
X172825714Y-119511619D01*
X172873333Y-119464000D01*
X172968571Y-119416380D01*
X174270476Y-119416380D02*
X174889523Y-119416380D01*
X174556190Y-119797333D01*
X174699047Y-119797333D01*
X174794285Y-119844952D01*
X174841904Y-119892571D01*
X174889523Y-119987809D01*
X174889523Y-120225904D01*
X174841904Y-120321142D01*
X174794285Y-120368761D01*
X174699047Y-120416380D01*
X174413333Y-120416380D01*
X174318095Y-120368761D01*
X174270476Y-120321142D01*
X175841904Y-120416380D02*
X175270476Y-120416380D01*
X175556190Y-120416380D02*
X175556190Y-119416380D01*
X175460952Y-119559238D01*
X175365714Y-119654476D01*
X175270476Y-119702095D01*
X176810476Y-119416380D02*
X177429523Y-119416380D01*
X177096190Y-119797333D01*
X177239047Y-119797333D01*
X177334285Y-119844952D01*
X177381904Y-119892571D01*
X177429523Y-119987809D01*
X177429523Y-120225904D01*
X177381904Y-120321142D01*
X177334285Y-120368761D01*
X177239047Y-120416380D01*
X176953333Y-120416380D01*
X176858095Y-120368761D01*
X176810476Y-120321142D01*
X177810476Y-119511619D02*
X177858095Y-119464000D01*
X177953333Y-119416380D01*
X178191428Y-119416380D01*
X178286666Y-119464000D01*
X178334285Y-119511619D01*
X178381904Y-119606857D01*
X178381904Y-119702095D01*
X178334285Y-119844952D01*
X177762857Y-120416380D01*
X178381904Y-120416380D01*
X179350476Y-119416380D02*
X179969523Y-119416380D01*
X179636190Y-119797333D01*
X179779047Y-119797333D01*
X179874285Y-119844952D01*
X179921904Y-119892571D01*
X179969523Y-119987809D01*
X179969523Y-120225904D01*
X179921904Y-120321142D01*
X179874285Y-120368761D01*
X179779047Y-120416380D01*
X179493333Y-120416380D01*
X179398095Y-120368761D01*
X179350476Y-120321142D01*
X180302857Y-119416380D02*
X180921904Y-119416380D01*
X180588571Y-119797333D01*
X180731428Y-119797333D01*
X180826666Y-119844952D01*
X180874285Y-119892571D01*
X180921904Y-119987809D01*
X180921904Y-120225904D01*
X180874285Y-120321142D01*
X180826666Y-120368761D01*
X180731428Y-120416380D01*
X180445714Y-120416380D01*
X180350476Y-120368761D01*
X180302857Y-120321142D01*
X181890476Y-119416380D02*
X182509523Y-119416380D01*
X182176190Y-119797333D01*
X182319047Y-119797333D01*
X182414285Y-119844952D01*
X182461904Y-119892571D01*
X182509523Y-119987809D01*
X182509523Y-120225904D01*
X182461904Y-120321142D01*
X182414285Y-120368761D01*
X182319047Y-120416380D01*
X182033333Y-120416380D01*
X181938095Y-120368761D01*
X181890476Y-120321142D01*
X183366666Y-119749714D02*
X183366666Y-120416380D01*
X183128571Y-119368761D02*
X182890476Y-120083047D01*
X183509523Y-120083047D01*
X184430476Y-119416380D02*
X185049523Y-119416380D01*
X184716190Y-119797333D01*
X184859047Y-119797333D01*
X184954285Y-119844952D01*
X185001904Y-119892571D01*
X185049523Y-119987809D01*
X185049523Y-120225904D01*
X185001904Y-120321142D01*
X184954285Y-120368761D01*
X184859047Y-120416380D01*
X184573333Y-120416380D01*
X184478095Y-120368761D01*
X184430476Y-120321142D01*
X185954285Y-119416380D02*
X185478095Y-119416380D01*
X185430476Y-119892571D01*
X185478095Y-119844952D01*
X185573333Y-119797333D01*
X185811428Y-119797333D01*
X185906666Y-119844952D01*
X185954285Y-119892571D01*
X186001904Y-119987809D01*
X186001904Y-120225904D01*
X185954285Y-120321142D01*
X185906666Y-120368761D01*
X185811428Y-120416380D01*
X185573333Y-120416380D01*
X185478095Y-120368761D01*
X185430476Y-120321142D01*
X186970476Y-119416380D02*
X187589523Y-119416380D01*
X187256190Y-119797333D01*
X187399047Y-119797333D01*
X187494285Y-119844952D01*
X187541904Y-119892571D01*
X187589523Y-119987809D01*
X187589523Y-120225904D01*
X187541904Y-120321142D01*
X187494285Y-120368761D01*
X187399047Y-120416380D01*
X187113333Y-120416380D01*
X187018095Y-120368761D01*
X186970476Y-120321142D01*
X188446666Y-119416380D02*
X188256190Y-119416380D01*
X188160952Y-119464000D01*
X188113333Y-119511619D01*
X188018095Y-119654476D01*
X187970476Y-119844952D01*
X187970476Y-120225904D01*
X188018095Y-120321142D01*
X188065714Y-120368761D01*
X188160952Y-120416380D01*
X188351428Y-120416380D01*
X188446666Y-120368761D01*
X188494285Y-120321142D01*
X188541904Y-120225904D01*
X188541904Y-119987809D01*
X188494285Y-119892571D01*
X188446666Y-119844952D01*
X188351428Y-119797333D01*
X188160952Y-119797333D01*
X188065714Y-119844952D01*
X188018095Y-119892571D01*
X187970476Y-119987809D01*
X157792857Y-117221928D02*
X157792857Y-117779071D01*
X157450000Y-117479071D01*
X157450000Y-117607642D01*
X157407142Y-117693357D01*
X157364285Y-117736214D01*
X157278571Y-117779071D01*
X157064285Y-117779071D01*
X156978571Y-117736214D01*
X156935714Y-117693357D01*
X156892857Y-117607642D01*
X156892857Y-117350500D01*
X156935714Y-117264785D01*
X156978571Y-117221928D01*
X157750000Y-118636214D02*
X157792857Y-118550500D01*
X157792857Y-118421928D01*
X157750000Y-118293357D01*
X157664285Y-118207642D01*
X157578571Y-118164785D01*
X157407142Y-118121928D01*
X157278571Y-118121928D01*
X157107142Y-118164785D01*
X157021428Y-118207642D01*
X156935714Y-118293357D01*
X156892857Y-118421928D01*
X156892857Y-118507642D01*
X156935714Y-118636214D01*
X156978571Y-118679071D01*
X157278571Y-118679071D01*
X157278571Y-118507642D01*
X160332857Y-117350500D02*
X160332857Y-117907642D01*
X159990000Y-117607642D01*
X159990000Y-117736214D01*
X159947142Y-117821928D01*
X159904285Y-117864785D01*
X159818571Y-117907642D01*
X159604285Y-117907642D01*
X159518571Y-117864785D01*
X159475714Y-117821928D01*
X159432857Y-117736214D01*
X159432857Y-117479071D01*
X159475714Y-117393357D01*
X159518571Y-117350500D01*
X159904285Y-118593357D02*
X159904285Y-118293357D01*
X159432857Y-118293357D02*
X160332857Y-118293357D01*
X160332857Y-118721928D01*
D17*
X177212857Y-117223892D02*
X177684285Y-117223892D01*
X177770000Y-117200083D01*
X177812857Y-117152464D01*
X177812857Y-117057226D01*
X177770000Y-117009607D01*
X177255714Y-117223892D02*
X177212857Y-117176273D01*
X177212857Y-117057226D01*
X177255714Y-117009607D01*
X177341428Y-116985797D01*
X177427142Y-116985797D01*
X177512857Y-117009607D01*
X177555714Y-117057226D01*
X177555714Y-117176273D01*
X177598571Y-117223892D01*
X177212857Y-117461988D02*
X177812857Y-117461988D01*
X177727142Y-117461988D02*
X177770000Y-117485797D01*
X177812857Y-117533416D01*
X177812857Y-117604845D01*
X177770000Y-117652464D01*
X177684285Y-117676273D01*
X177212857Y-117676273D01*
X177684285Y-117676273D02*
X177770000Y-117700083D01*
X177812857Y-117747702D01*
X177812857Y-117819130D01*
X177770000Y-117866750D01*
X177684285Y-117890559D01*
X177212857Y-117890559D01*
X177812857Y-118128654D02*
X176912857Y-118128654D01*
X177770000Y-118128654D02*
X177812857Y-118176273D01*
X177812857Y-118271511D01*
X177770000Y-118319130D01*
X177727142Y-118342940D01*
X177641428Y-118366750D01*
X177384285Y-118366750D01*
X177298571Y-118342940D01*
X177255714Y-118319130D01*
X177212857Y-118271511D01*
X177212857Y-118176273D01*
X177255714Y-118128654D01*
X177255714Y-118557226D02*
X177212857Y-118604845D01*
X177212857Y-118700083D01*
X177255714Y-118747702D01*
X177341428Y-118771511D01*
X177384285Y-118771511D01*
X177470000Y-118747702D01*
X177512857Y-118700083D01*
X177512857Y-118628654D01*
X177555714Y-118581035D01*
X177641428Y-118557226D01*
X177684285Y-118557226D01*
X177770000Y-118581035D01*
X177812857Y-118628654D01*
X177812857Y-118700083D01*
X177770000Y-118747702D01*
X179752857Y-116985797D02*
X180352857Y-116985797D01*
X180267142Y-116985797D02*
X180310000Y-117009607D01*
X180352857Y-117057226D01*
X180352857Y-117128654D01*
X180310000Y-117176273D01*
X180224285Y-117200083D01*
X179752857Y-117200083D01*
X180224285Y-117200083D02*
X180310000Y-117223892D01*
X180352857Y-117271511D01*
X180352857Y-117342940D01*
X180310000Y-117390559D01*
X180224285Y-117414369D01*
X179752857Y-117414369D01*
X179795714Y-117842940D02*
X179752857Y-117795321D01*
X179752857Y-117700083D01*
X179795714Y-117652464D01*
X179881428Y-117628654D01*
X180224285Y-117628654D01*
X180310000Y-117652464D01*
X180352857Y-117700083D01*
X180352857Y-117795321D01*
X180310000Y-117842940D01*
X180224285Y-117866750D01*
X180138571Y-117866750D01*
X180052857Y-117628654D01*
X180352857Y-118295321D02*
X179624285Y-118295321D01*
X179538571Y-118271511D01*
X179495714Y-118247702D01*
X179452857Y-118200083D01*
X179452857Y-118128654D01*
X179495714Y-118081035D01*
X179795714Y-118295321D02*
X179752857Y-118247702D01*
X179752857Y-118152464D01*
X179795714Y-118104845D01*
X179838571Y-118081035D01*
X179924285Y-118057226D01*
X180181428Y-118057226D01*
X180267142Y-118081035D01*
X180310000Y-118104845D01*
X180352857Y-118152464D01*
X180352857Y-118247702D01*
X180310000Y-118295321D01*
X179752857Y-118747702D02*
X180224285Y-118747702D01*
X180310000Y-118723892D01*
X180352857Y-118676273D01*
X180352857Y-118581035D01*
X180310000Y-118533416D01*
X179795714Y-118747702D02*
X179752857Y-118700083D01*
X179752857Y-118581035D01*
X179795714Y-118533416D01*
X179881428Y-118509607D01*
X179967142Y-118509607D01*
X180052857Y-118533416D01*
X180095714Y-118581035D01*
X180095714Y-118700083D01*
X180138571Y-118747702D01*
X182292857Y-117081035D02*
X182335714Y-117033416D01*
X182378571Y-117009607D01*
X182464285Y-116985797D01*
X182721428Y-116985797D01*
X182807142Y-117009607D01*
X182850000Y-117033416D01*
X182892857Y-117081035D01*
X182892857Y-117152464D01*
X182850000Y-117200083D01*
X182807142Y-117223892D01*
X182721428Y-117247702D01*
X182464285Y-117247702D01*
X182378571Y-117223892D01*
X182335714Y-117200083D01*
X182292857Y-117152464D01*
X182292857Y-117081035D01*
X182292857Y-117461988D02*
X183192857Y-117461988D01*
X182292857Y-117676273D02*
X182764285Y-117676273D01*
X182850000Y-117652464D01*
X182892857Y-117604845D01*
X182892857Y-117533416D01*
X182850000Y-117485797D01*
X182807142Y-117461988D01*
X182292857Y-117914369D02*
X182892857Y-117914369D01*
X182807142Y-117914369D02*
X182850000Y-117938178D01*
X182892857Y-117985797D01*
X182892857Y-118057226D01*
X182850000Y-118104845D01*
X182764285Y-118128654D01*
X182292857Y-118128654D01*
X182764285Y-118128654D02*
X182850000Y-118152464D01*
X182892857Y-118200083D01*
X182892857Y-118271511D01*
X182850000Y-118319130D01*
X182764285Y-118342940D01*
X182292857Y-118342940D01*
X182335714Y-118557226D02*
X182292857Y-118604845D01*
X182292857Y-118700083D01*
X182335714Y-118747702D01*
X182421428Y-118771511D01*
X182464285Y-118771511D01*
X182550000Y-118747702D01*
X182592857Y-118700083D01*
X182592857Y-118628654D01*
X182635714Y-118581035D01*
X182721428Y-118557226D01*
X182764285Y-118557226D01*
X182850000Y-118581035D01*
X182892857Y-118628654D01*
X182892857Y-118700083D01*
X182850000Y-118747702D01*
D15*
X147547142Y-117264785D02*
X147590000Y-117307642D01*
X147632857Y-117393357D01*
X147632857Y-117607642D01*
X147590000Y-117693357D01*
X147547142Y-117736214D01*
X147461428Y-117779071D01*
X147375714Y-117779071D01*
X147247142Y-117736214D01*
X146732857Y-117221928D01*
X146732857Y-117779071D01*
X146818571Y-118679071D02*
X146775714Y-118636214D01*
X146732857Y-118507642D01*
X146732857Y-118421928D01*
X146775714Y-118293357D01*
X146861428Y-118207642D01*
X146947142Y-118164785D01*
X147118571Y-118121928D01*
X147247142Y-118121928D01*
X147418571Y-118164785D01*
X147504285Y-118207642D01*
X147590000Y-118293357D01*
X147632857Y-118421928D01*
X147632857Y-118507642D01*
X147590000Y-118636214D01*
X147547142Y-118679071D01*
X150087142Y-117264785D02*
X150130000Y-117307642D01*
X150172857Y-117393357D01*
X150172857Y-117607642D01*
X150130000Y-117693357D01*
X150087142Y-117736214D01*
X150001428Y-117779071D01*
X149915714Y-117779071D01*
X149787142Y-117736214D01*
X149272857Y-117221928D01*
X149272857Y-117779071D01*
X149272857Y-118164785D02*
X150172857Y-118164785D01*
X150172857Y-118379071D01*
X150130000Y-118507642D01*
X150044285Y-118593357D01*
X149958571Y-118636214D01*
X149787142Y-118679071D01*
X149658571Y-118679071D01*
X149487142Y-118636214D01*
X149401428Y-118593357D01*
X149315714Y-118507642D01*
X149272857Y-118379071D01*
X149272857Y-118164785D01*
X162872857Y-117350500D02*
X162872857Y-117907642D01*
X162530000Y-117607642D01*
X162530000Y-117736214D01*
X162487142Y-117821928D01*
X162444285Y-117864785D01*
X162358571Y-117907642D01*
X162144285Y-117907642D01*
X162058571Y-117864785D01*
X162015714Y-117821928D01*
X161972857Y-117736214D01*
X161972857Y-117479071D01*
X162015714Y-117393357D01*
X162058571Y-117350500D01*
X162230000Y-118250500D02*
X162230000Y-118679071D01*
X161972857Y-118164785D02*
X162872857Y-118464785D01*
X161972857Y-118764785D01*
X165412857Y-117221928D02*
X165412857Y-117779071D01*
X165070000Y-117479071D01*
X165070000Y-117607642D01*
X165027142Y-117693357D01*
X164984285Y-117736214D01*
X164898571Y-117779071D01*
X164684285Y-117779071D01*
X164598571Y-117736214D01*
X164555714Y-117693357D01*
X164512857Y-117607642D01*
X164512857Y-117350500D01*
X164555714Y-117264785D01*
X164598571Y-117221928D01*
X164984285Y-118464785D02*
X164941428Y-118593357D01*
X164898571Y-118636214D01*
X164812857Y-118679071D01*
X164684285Y-118679071D01*
X164598571Y-118636214D01*
X164555714Y-118593357D01*
X164512857Y-118507642D01*
X164512857Y-118164785D01*
X165412857Y-118164785D01*
X165412857Y-118464785D01*
X165370000Y-118550500D01*
X165327142Y-118593357D01*
X165241428Y-118636214D01*
X165155714Y-118636214D01*
X165070000Y-118593357D01*
X165027142Y-118550500D01*
X164984285Y-118464785D01*
X164984285Y-118164785D01*
X167952857Y-117221928D02*
X167952857Y-117779071D01*
X167610000Y-117479071D01*
X167610000Y-117607642D01*
X167567142Y-117693357D01*
X167524285Y-117736214D01*
X167438571Y-117779071D01*
X167224285Y-117779071D01*
X167138571Y-117736214D01*
X167095714Y-117693357D01*
X167052857Y-117607642D01*
X167052857Y-117350500D01*
X167095714Y-117264785D01*
X167138571Y-117221928D01*
X167138571Y-118679071D02*
X167095714Y-118636214D01*
X167052857Y-118507642D01*
X167052857Y-118421928D01*
X167095714Y-118293357D01*
X167181428Y-118207642D01*
X167267142Y-118164785D01*
X167438571Y-118121928D01*
X167567142Y-118121928D01*
X167738571Y-118164785D01*
X167824285Y-118207642D01*
X167910000Y-118293357D01*
X167952857Y-118421928D01*
X167952857Y-118507642D01*
X167910000Y-118636214D01*
X167867142Y-118679071D01*
X145007142Y-117264785D02*
X145050000Y-117307642D01*
X145092857Y-117393357D01*
X145092857Y-117607642D01*
X145050000Y-117693357D01*
X145007142Y-117736214D01*
X144921428Y-117779071D01*
X144835714Y-117779071D01*
X144707142Y-117736214D01*
X144192857Y-117221928D01*
X144192857Y-117779071D01*
X144664285Y-118464785D02*
X144621428Y-118593357D01*
X144578571Y-118636214D01*
X144492857Y-118679071D01*
X144364285Y-118679071D01*
X144278571Y-118636214D01*
X144235714Y-118593357D01*
X144192857Y-118507642D01*
X144192857Y-118164785D01*
X145092857Y-118164785D01*
X145092857Y-118464785D01*
X145050000Y-118550500D01*
X145007142Y-118593357D01*
X144921428Y-118636214D01*
X144835714Y-118636214D01*
X144750000Y-118593357D01*
X144707142Y-118550500D01*
X144664285Y-118464785D01*
X144664285Y-118164785D01*
X170492857Y-117221928D02*
X170492857Y-117779071D01*
X170150000Y-117479071D01*
X170150000Y-117607642D01*
X170107142Y-117693357D01*
X170064285Y-117736214D01*
X169978571Y-117779071D01*
X169764285Y-117779071D01*
X169678571Y-117736214D01*
X169635714Y-117693357D01*
X169592857Y-117607642D01*
X169592857Y-117350500D01*
X169635714Y-117264785D01*
X169678571Y-117221928D01*
X169592857Y-118164785D02*
X170492857Y-118164785D01*
X170492857Y-118379071D01*
X170450000Y-118507642D01*
X170364285Y-118593357D01*
X170278571Y-118636214D01*
X170107142Y-118679071D01*
X169978571Y-118679071D01*
X169807142Y-118636214D01*
X169721428Y-118593357D01*
X169635714Y-118507642D01*
X169592857Y-118379071D01*
X169592857Y-118164785D01*
D17*
X172132857Y-117319130D02*
X172732857Y-117319130D01*
X172647142Y-117319130D02*
X172690000Y-117342940D01*
X172732857Y-117390559D01*
X172732857Y-117461988D01*
X172690000Y-117509607D01*
X172604285Y-117533416D01*
X172132857Y-117533416D01*
X172604285Y-117533416D02*
X172690000Y-117557226D01*
X172732857Y-117604845D01*
X172732857Y-117676273D01*
X172690000Y-117723892D01*
X172604285Y-117747702D01*
X172132857Y-117747702D01*
X172132857Y-117985797D02*
X172732857Y-117985797D01*
X173032857Y-117985797D02*
X172990000Y-117961988D01*
X172947142Y-117985797D01*
X172990000Y-118009607D01*
X173032857Y-117985797D01*
X172947142Y-117985797D01*
X172132857Y-118295321D02*
X172175714Y-118247702D01*
X172261428Y-118223892D01*
X173032857Y-118223892D01*
X172132857Y-118557226D02*
X172175714Y-118509607D01*
X172261428Y-118485797D01*
X173032857Y-118485797D01*
X172132857Y-118747702D02*
X172732857Y-118747702D01*
X173032857Y-118747702D02*
X172990000Y-118723892D01*
X172947142Y-118747702D01*
X172990000Y-118771511D01*
X173032857Y-118747702D01*
X172947142Y-118747702D01*
X174672857Y-116890559D02*
X175272857Y-116890559D01*
X175187142Y-116890559D02*
X175230000Y-116914369D01*
X175272857Y-116961988D01*
X175272857Y-117033416D01*
X175230000Y-117081035D01*
X175144285Y-117104845D01*
X174672857Y-117104845D01*
X175144285Y-117104845D02*
X175230000Y-117128654D01*
X175272857Y-117176273D01*
X175272857Y-117247702D01*
X175230000Y-117295321D01*
X175144285Y-117319130D01*
X174672857Y-117319130D01*
X174672857Y-117557226D02*
X175272857Y-117557226D01*
X175572857Y-117557226D02*
X175530000Y-117533416D01*
X175487142Y-117557226D01*
X175530000Y-117581035D01*
X175572857Y-117557226D01*
X175487142Y-117557226D01*
X174715714Y-118009607D02*
X174672857Y-117961988D01*
X174672857Y-117866750D01*
X174715714Y-117819130D01*
X174758571Y-117795321D01*
X174844285Y-117771511D01*
X175101428Y-117771511D01*
X175187142Y-117795321D01*
X175230000Y-117819130D01*
X175272857Y-117866750D01*
X175272857Y-117961988D01*
X175230000Y-118009607D01*
X174672857Y-118223892D02*
X175272857Y-118223892D01*
X175101428Y-118223892D02*
X175187142Y-118247702D01*
X175230000Y-118271511D01*
X175272857Y-118319130D01*
X175272857Y-118366750D01*
X174672857Y-118604845D02*
X174715714Y-118557226D01*
X174758571Y-118533416D01*
X174844285Y-118509607D01*
X175101428Y-118509607D01*
X175187142Y-118533416D01*
X175230000Y-118557226D01*
X175272857Y-118604845D01*
X175272857Y-118676273D01*
X175230000Y-118723892D01*
X175187142Y-118747702D01*
X175101428Y-118771511D01*
X174844285Y-118771511D01*
X174758571Y-118747702D01*
X174715714Y-118723892D01*
X174672857Y-118676273D01*
X174672857Y-118604845D01*
D15*
X155252857Y-117307642D02*
X155252857Y-117864785D01*
X154910000Y-117564785D01*
X154910000Y-117693357D01*
X154867142Y-117779071D01*
X154824285Y-117821928D01*
X154738571Y-117864785D01*
X154524285Y-117864785D01*
X154438571Y-117821928D01*
X154395714Y-117779071D01*
X154352857Y-117693357D01*
X154352857Y-117436214D01*
X154395714Y-117350500D01*
X154438571Y-117307642D01*
X154824285Y-118250500D02*
X154824285Y-118550500D01*
X154352857Y-118679071D02*
X154352857Y-118250500D01*
X155252857Y-118250500D01*
X155252857Y-118679071D01*
X151812857Y-117221928D02*
X152712857Y-117221928D01*
X152712857Y-117364785D01*
X152670000Y-117450500D01*
X152584285Y-117507642D01*
X152498571Y-117536214D01*
X152327142Y-117564785D01*
X152198571Y-117564785D01*
X152027142Y-117536214D01*
X151941428Y-117507642D01*
X151855714Y-117450500D01*
X151812857Y-117364785D01*
X151812857Y-117221928D01*
X151812857Y-117821928D02*
X152712857Y-117821928D01*
X152712857Y-118050500D01*
X152670000Y-118107642D01*
X152627142Y-118136214D01*
X152541428Y-118164785D01*
X152412857Y-118164785D01*
X152327142Y-118136214D01*
X152284285Y-118107642D01*
X152241428Y-118050500D01*
X152241428Y-117821928D01*
X152712857Y-118364785D02*
X152712857Y-118736214D01*
X152370000Y-118536214D01*
X152370000Y-118621928D01*
X152327142Y-118679071D01*
X152284285Y-118707642D01*
X152198571Y-118736214D01*
X151984285Y-118736214D01*
X151898571Y-118707642D01*
X151855714Y-118679071D01*
X151812857Y-118621928D01*
X151812857Y-118450500D01*
X151855714Y-118393357D01*
X151898571Y-118364785D01*
D17*
X184832857Y-117628654D02*
X185732857Y-117628654D01*
X185175714Y-117676273D02*
X184832857Y-117819130D01*
X185432857Y-117819130D02*
X185090000Y-117628654D01*
X184832857Y-118033416D02*
X185432857Y-118033416D01*
X185732857Y-118033416D02*
X185690000Y-118009607D01*
X185647142Y-118033416D01*
X185690000Y-118057226D01*
X185732857Y-118033416D01*
X185647142Y-118033416D01*
X184832857Y-118342940D02*
X184875714Y-118295321D01*
X184961428Y-118271511D01*
X185732857Y-118271511D01*
X184832857Y-118604845D02*
X184875714Y-118557226D01*
X184918571Y-118533416D01*
X185004285Y-118509607D01*
X185261428Y-118509607D01*
X185347142Y-118533416D01*
X185390000Y-118557226D01*
X185432857Y-118604845D01*
X185432857Y-118676273D01*
X185390000Y-118723892D01*
X185347142Y-118747702D01*
X185261428Y-118771511D01*
X185004285Y-118771511D01*
X184918571Y-118747702D01*
X184875714Y-118723892D01*
X184832857Y-118676273D01*
X184832857Y-118604845D01*
X187972857Y-117152464D02*
X187372857Y-117271511D01*
X187972857Y-117390559D01*
X187372857Y-117652464D02*
X187415714Y-117604845D01*
X187458571Y-117581035D01*
X187544285Y-117557226D01*
X187801428Y-117557226D01*
X187887142Y-117581035D01*
X187930000Y-117604845D01*
X187972857Y-117652464D01*
X187972857Y-117723892D01*
X187930000Y-117771511D01*
X187887142Y-117795321D01*
X187801428Y-117819130D01*
X187544285Y-117819130D01*
X187458571Y-117795321D01*
X187415714Y-117771511D01*
X187372857Y-117723892D01*
X187372857Y-117652464D01*
X187372857Y-118104845D02*
X187415714Y-118057226D01*
X187501428Y-118033416D01*
X188272857Y-118033416D01*
X187972857Y-118223892D02*
X187972857Y-118414369D01*
X188272857Y-118295321D02*
X187501428Y-118295321D01*
X187415714Y-118319130D01*
X187372857Y-118366750D01*
X187372857Y-118414369D01*
X187415714Y-118557226D02*
X187372857Y-118604845D01*
X187372857Y-118700083D01*
X187415714Y-118747702D01*
X187501428Y-118771511D01*
X187544285Y-118771511D01*
X187630000Y-118747702D01*
X187672857Y-118700083D01*
X187672857Y-118628654D01*
X187715714Y-118581035D01*
X187801428Y-118557226D01*
X187844285Y-118557226D01*
X187930000Y-118581035D01*
X187972857Y-118628654D01*
X187972857Y-118700083D01*
X187930000Y-118747702D01*
D15*
X124332857Y-117221928D02*
X125232857Y-117221928D01*
X125232857Y-117364785D01*
X125190000Y-117450500D01*
X125104285Y-117507642D01*
X125018571Y-117536214D01*
X124847142Y-117564785D01*
X124718571Y-117564785D01*
X124547142Y-117536214D01*
X124461428Y-117507642D01*
X124375714Y-117450500D01*
X124332857Y-117364785D01*
X124332857Y-117221928D01*
X124332857Y-117821928D02*
X125232857Y-117821928D01*
X125232857Y-118050500D01*
X125190000Y-118107642D01*
X125147142Y-118136214D01*
X125061428Y-118164785D01*
X124932857Y-118164785D01*
X124847142Y-118136214D01*
X124804285Y-118107642D01*
X124761428Y-118050500D01*
X124761428Y-117821928D01*
X125147142Y-118393357D02*
X125190000Y-118421928D01*
X125232857Y-118479071D01*
X125232857Y-118621928D01*
X125190000Y-118679071D01*
X125147142Y-118707642D01*
X125061428Y-118736214D01*
X124975714Y-118736214D01*
X124847142Y-118707642D01*
X124332857Y-118364785D01*
X124332857Y-118736214D01*
X127687142Y-117350500D02*
X127730000Y-117393357D01*
X127772857Y-117479071D01*
X127772857Y-117693357D01*
X127730000Y-117779071D01*
X127687142Y-117821928D01*
X127601428Y-117864785D01*
X127515714Y-117864785D01*
X127387142Y-117821928D01*
X126872857Y-117307642D01*
X126872857Y-117864785D01*
X127344285Y-118250500D02*
X127344285Y-118550500D01*
X126872857Y-118679071D02*
X126872857Y-118250500D01*
X127772857Y-118250500D01*
X127772857Y-118679071D01*
X130227142Y-117264785D02*
X130270000Y-117307642D01*
X130312857Y-117393357D01*
X130312857Y-117607642D01*
X130270000Y-117693357D01*
X130227142Y-117736214D01*
X130141428Y-117779071D01*
X130055714Y-117779071D01*
X129927142Y-117736214D01*
X129412857Y-117221928D01*
X129412857Y-117779071D01*
X130270000Y-118636214D02*
X130312857Y-118550500D01*
X130312857Y-118421928D01*
X130270000Y-118293357D01*
X130184285Y-118207642D01*
X130098571Y-118164785D01*
X129927142Y-118121928D01*
X129798571Y-118121928D01*
X129627142Y-118164785D01*
X129541428Y-118207642D01*
X129455714Y-118293357D01*
X129412857Y-118421928D01*
X129412857Y-118507642D01*
X129455714Y-118636214D01*
X129498571Y-118679071D01*
X129798571Y-118679071D01*
X129798571Y-118507642D01*
X121792857Y-117779071D02*
X121792857Y-117264785D01*
X121792857Y-117521928D02*
X122692857Y-117521928D01*
X122564285Y-117436214D01*
X122478571Y-117350500D01*
X122435714Y-117264785D01*
X121792857Y-118164785D02*
X122692857Y-118164785D01*
X122692857Y-118379071D01*
X122650000Y-118507642D01*
X122564285Y-118593357D01*
X122478571Y-118636214D01*
X122307142Y-118679071D01*
X122178571Y-118679071D01*
X122007142Y-118636214D01*
X121921428Y-118593357D01*
X121835714Y-118507642D01*
X121792857Y-118379071D01*
X121792857Y-118164785D01*
X111632857Y-117907642D02*
X111632857Y-117393357D01*
X111632857Y-117650500D02*
X112532857Y-117650500D01*
X112404285Y-117564785D01*
X112318571Y-117479071D01*
X112275714Y-117393357D01*
X112104285Y-118593357D02*
X112104285Y-118293357D01*
X111632857Y-118293357D02*
X112532857Y-118293357D01*
X112532857Y-118721928D01*
X114172857Y-117907642D02*
X114172857Y-117393357D01*
X114172857Y-117650500D02*
X115072857Y-117650500D01*
X114944285Y-117564785D01*
X114858571Y-117479071D01*
X114815714Y-117393357D01*
X114430000Y-118250500D02*
X114430000Y-118679071D01*
X114172857Y-118164785D02*
X115072857Y-118464785D01*
X114172857Y-118764785D01*
X116712857Y-117779071D02*
X116712857Y-117264785D01*
X116712857Y-117521928D02*
X117612857Y-117521928D01*
X117484285Y-117436214D01*
X117398571Y-117350500D01*
X117355714Y-117264785D01*
X117184285Y-118464785D02*
X117141428Y-118593357D01*
X117098571Y-118636214D01*
X117012857Y-118679071D01*
X116884285Y-118679071D01*
X116798571Y-118636214D01*
X116755714Y-118593357D01*
X116712857Y-118507642D01*
X116712857Y-118164785D01*
X117612857Y-118164785D01*
X117612857Y-118464785D01*
X117570000Y-118550500D01*
X117527142Y-118593357D01*
X117441428Y-118636214D01*
X117355714Y-118636214D01*
X117270000Y-118593357D01*
X117227142Y-118550500D01*
X117184285Y-118464785D01*
X117184285Y-118164785D01*
X119252857Y-117779071D02*
X119252857Y-117264785D01*
X119252857Y-117521928D02*
X120152857Y-117521928D01*
X120024285Y-117436214D01*
X119938571Y-117350500D01*
X119895714Y-117264785D01*
X119338571Y-118679071D02*
X119295714Y-118636214D01*
X119252857Y-118507642D01*
X119252857Y-118421928D01*
X119295714Y-118293357D01*
X119381428Y-118207642D01*
X119467142Y-118164785D01*
X119638571Y-118121928D01*
X119767142Y-118121928D01*
X119938571Y-118164785D01*
X120024285Y-118207642D01*
X120110000Y-118293357D01*
X120152857Y-118421928D01*
X120152857Y-118507642D01*
X120110000Y-118636214D01*
X120067142Y-118679071D01*
X109092857Y-117779071D02*
X109092857Y-117264785D01*
X109092857Y-117521928D02*
X109992857Y-117521928D01*
X109864285Y-117436214D01*
X109778571Y-117350500D01*
X109735714Y-117264785D01*
X109950000Y-118636214D02*
X109992857Y-118550500D01*
X109992857Y-118421928D01*
X109950000Y-118293357D01*
X109864285Y-118207642D01*
X109778571Y-118164785D01*
X109607142Y-118121928D01*
X109478571Y-118121928D01*
X109307142Y-118164785D01*
X109221428Y-118207642D01*
X109135714Y-118293357D01*
X109092857Y-118421928D01*
X109092857Y-118507642D01*
X109135714Y-118636214D01*
X109178571Y-118679071D01*
X109478571Y-118679071D01*
X109478571Y-118507642D01*
X99190000Y-117350500D02*
X99190000Y-117779071D01*
X98932857Y-117264785D02*
X99832857Y-117564785D01*
X98932857Y-117864785D01*
X99018571Y-118679071D02*
X98975714Y-118636214D01*
X98932857Y-118507642D01*
X98932857Y-118421928D01*
X98975714Y-118293357D01*
X99061428Y-118207642D01*
X99147142Y-118164785D01*
X99318571Y-118121928D01*
X99447142Y-118121928D01*
X99618571Y-118164785D01*
X99704285Y-118207642D01*
X99790000Y-118293357D01*
X99832857Y-118421928D01*
X99832857Y-118507642D01*
X99790000Y-118636214D01*
X99747142Y-118679071D01*
X101472857Y-118164785D02*
X102372857Y-118164785D01*
X101472857Y-118679071D02*
X101987142Y-118293357D01*
X102372857Y-118679071D02*
X101858571Y-118164785D01*
X104012857Y-117221928D02*
X104912857Y-117221928D01*
X104912857Y-117364785D01*
X104870000Y-117450500D01*
X104784285Y-117507642D01*
X104698571Y-117536214D01*
X104527142Y-117564785D01*
X104398571Y-117564785D01*
X104227142Y-117536214D01*
X104141428Y-117507642D01*
X104055714Y-117450500D01*
X104012857Y-117364785D01*
X104012857Y-117221928D01*
X104012857Y-117821928D02*
X104912857Y-117821928D01*
X104912857Y-118050500D01*
X104870000Y-118107642D01*
X104827142Y-118136214D01*
X104741428Y-118164785D01*
X104612857Y-118164785D01*
X104527142Y-118136214D01*
X104484285Y-118107642D01*
X104441428Y-118050500D01*
X104441428Y-117821928D01*
X104012857Y-118736214D02*
X104012857Y-118393357D01*
X104012857Y-118564785D02*
X104912857Y-118564785D01*
X104784285Y-118507642D01*
X104698571Y-118450500D01*
X104655714Y-118393357D01*
X106552857Y-117864785D02*
X106552857Y-117350500D01*
X106552857Y-117607642D02*
X107452857Y-117607642D01*
X107324285Y-117521928D01*
X107238571Y-117436214D01*
X107195714Y-117350500D01*
X107024285Y-118250500D02*
X107024285Y-118550500D01*
X106552857Y-118679071D02*
X106552857Y-118250500D01*
X107452857Y-118250500D01*
X107452857Y-118679071D01*
X96821428Y-118464785D02*
X96392857Y-118464785D01*
X97292857Y-118164785D02*
X96821428Y-118464785D01*
X97292857Y-118764785D01*
X91398571Y-116707642D02*
X91355714Y-116664785D01*
X91312857Y-116536214D01*
X91312857Y-116450500D01*
X91355714Y-116321928D01*
X91441428Y-116236214D01*
X91527142Y-116193357D01*
X91698571Y-116150500D01*
X91827142Y-116150500D01*
X91998571Y-116193357D01*
X92084285Y-116236214D01*
X92170000Y-116321928D01*
X92212857Y-116450500D01*
X92212857Y-116536214D01*
X92170000Y-116664785D01*
X92127142Y-116707642D01*
X92212857Y-117264785D02*
X92212857Y-117436214D01*
X92170000Y-117521928D01*
X92084285Y-117607642D01*
X91912857Y-117650500D01*
X91612857Y-117650500D01*
X91441428Y-117607642D01*
X91355714Y-117521928D01*
X91312857Y-117436214D01*
X91312857Y-117264785D01*
X91355714Y-117179071D01*
X91441428Y-117093357D01*
X91612857Y-117050500D01*
X91912857Y-117050500D01*
X92084285Y-117093357D01*
X92170000Y-117179071D01*
X92212857Y-117264785D01*
X91312857Y-118036214D02*
X92212857Y-118036214D01*
X91570000Y-118336214D01*
X92212857Y-118636214D01*
X91312857Y-118636214D01*
D17*
X93852857Y-116223892D02*
X93852857Y-115985797D01*
X94752857Y-115985797D01*
X94752857Y-116485797D02*
X94752857Y-116581035D01*
X94710000Y-116628654D01*
X94624285Y-116676273D01*
X94452857Y-116700083D01*
X94152857Y-116700083D01*
X93981428Y-116676273D01*
X93895714Y-116628654D01*
X93852857Y-116581035D01*
X93852857Y-116485797D01*
X93895714Y-116438178D01*
X93981428Y-116390559D01*
X94152857Y-116366750D01*
X94452857Y-116366750D01*
X94624285Y-116390559D01*
X94710000Y-116438178D01*
X94752857Y-116485797D01*
X94324285Y-117461988D02*
X94281428Y-117533416D01*
X94238571Y-117557226D01*
X94152857Y-117581035D01*
X94024285Y-117581035D01*
X93938571Y-117557226D01*
X93895714Y-117533416D01*
X93852857Y-117485797D01*
X93852857Y-117295321D01*
X94752857Y-117295321D01*
X94752857Y-117461988D01*
X94710000Y-117509607D01*
X94667142Y-117533416D01*
X94581428Y-117557226D01*
X94495714Y-117557226D01*
X94410000Y-117533416D01*
X94367142Y-117509607D01*
X94324285Y-117461988D01*
X94324285Y-117295321D01*
X94110000Y-117771511D02*
X94110000Y-118009607D01*
X93852857Y-117723892D02*
X94752857Y-117890559D01*
X93852857Y-118057226D01*
X94752857Y-118152464D02*
X94752857Y-118438178D01*
X93852857Y-118295321D02*
X94752857Y-118295321D01*
X94752857Y-118533416D02*
X94752857Y-118819130D01*
X93852857Y-118676273D02*
X94752857Y-118676273D01*
D15*
X132767142Y-117393357D02*
X132810000Y-117436214D01*
X132852857Y-117521928D01*
X132852857Y-117736214D01*
X132810000Y-117821928D01*
X132767142Y-117864785D01*
X132681428Y-117907642D01*
X132595714Y-117907642D01*
X132467142Y-117864785D01*
X131952857Y-117350500D01*
X131952857Y-117907642D01*
X132424285Y-118593357D02*
X132424285Y-118293357D01*
X131952857Y-118293357D02*
X132852857Y-118293357D01*
X132852857Y-118721928D01*
X135307142Y-117393357D02*
X135350000Y-117436214D01*
X135392857Y-117521928D01*
X135392857Y-117736214D01*
X135350000Y-117821928D01*
X135307142Y-117864785D01*
X135221428Y-117907642D01*
X135135714Y-117907642D01*
X135007142Y-117864785D01*
X134492857Y-117350500D01*
X134492857Y-117907642D01*
X134750000Y-118250500D02*
X134750000Y-118679071D01*
X134492857Y-118164785D02*
X135392857Y-118464785D01*
X134492857Y-118764785D01*
M02*
